<svg width="44" height="33" viewBox="0 0 44 33" fill="none" xmlns="http://www.w3.org/2000/svg">
<path d="M11.0721 0C8.9254 0 7.01369 1.41797 6.39762 3.50625L4.162 11.0859L1.0118 10.0031L-0.00439453 13.0969L3.19661 14.1797L2.18042 17.6859C2.14231 17.8342 2.12326 17.9953 2.12961 18.15V29.7C2.12961 29.7516 2.12961 29.8031 2.12961 29.8547V31.35C2.12961 32.2588 2.86 33 3.75552 33H8.63325L9.19215 31.35H34.0889L34.6478 33H39.5255C40.421 33 41.1514 32.2588 41.1514 31.35V29.9578C41.1578 29.874 41.1578 29.7838 41.1514 29.7V18.15C41.1578 17.9953 41.1387 17.8342 41.1006 17.6859L40.0844 14.1797L43.2854 13.0969L42.2692 10.0031L39.119 11.0859L36.8834 3.50625C36.2673 1.41797 34.3556 0 32.2089 0H11.0721ZM11.0721 3.3H32.2089C32.933 3.3 33.5744 3.7834 33.784 4.48594L35.8672 11.55H7.41382L9.49701 4.48594C9.7066 3.77695 10.3481 3.3 11.0721 3.3ZM6.44843 14.85H36.8326L37.8996 18.4594V28.05H5.38143V18.4594L6.44843 14.85ZM9.4462 16.5C8.09975 16.5 7.00734 17.6086 7.00734 18.975C7.00734 20.3414 8.09975 21.45 9.4462 21.45C10.7927 21.45 11.8851 20.3414 11.8851 18.975C11.8851 17.6086 10.7927 16.5 9.4462 16.5ZM33.8348 16.5C32.4884 16.5 31.396 17.6086 31.396 18.975C31.396 20.3414 32.4884 21.45 33.8348 21.45C35.1813 21.45 36.2737 20.3414 36.2737 18.975C36.2737 17.6086 35.1813 16.5 33.8348 16.5ZM15.1369 21.45L13.1045 26.4H16.6104L17.3217 24.75H25.9593L26.6707 26.4H30.1765L28.1442 21.45H15.1369Z" fill="#7351D5"/>
</svg>
