<svg width="22" height="23" viewBox="0 0 22 23" fill="none" xmlns="http://www.w3.org/2000/svg">
<path d="M21.4471 21.632V6.84204H21.0773H17.0101V21.632H16.3076V10.5395H15.9378H11.8706V21.632H11.1681V9.06053H10.7983H6.73109V21.632H6.02857V12.0185H5.65882H1.5916V21.632H1V22.3714H1.5916H6.02857H6.73109H11.1681H11.8706H16.3076H17.0101H21.4471H21.7059V21.632H21.4471ZM2.33109 21.632V12.758H5.28908V21.632H2.33109ZM7.47059 9.80002H10.4286V21.632H7.47059V9.80002ZM12.6101 21.632V11.279H15.5681V21.632H12.6101ZM17.7496 7.58154H20.7076V21.632H17.7496V7.58154Z" fill="white" stroke="white" stroke-width="0.5"/>
<path d="M9.20835 4.47563L13.0907 8.28403L19.8201 1.55462L19.3025 1L13.0907 7.21176L9.17138 3.40336L2.66382 10.0218L3.21844 10.5395L9.20835 4.47563Z" fill="white" stroke="white" stroke-width="0.5"/>
</svg>
