<svg width="51" height="34" viewBox="0 0 51 34" fill="none" xmlns="http://www.w3.org/2000/svg">
<path d="M36.7564 8.11074L37.1543 8.28461C37.3226 8.35817 37.4975 8.39289 37.6697 8.39289C38.1759 8.39289 38.6578 8.09195 38.8704 7.58933C39.1554 6.91569 38.8492 6.1347 38.1864 5.84512L37.7885 5.67118C37.1256 5.38153 36.3574 5.69282 36.0724 6.36646C35.7874 7.04017 36.0937 7.82109 36.7564 8.11074Z" fill="#7351D5"/>
<path d="M48.2337 18.756V11.1103C48.2337 10.377 47.6489 9.78256 46.9274 9.78256H24.5404C23.8189 9.78256 23.2341 10.377 23.2341 11.1103C23.2341 11.8436 23.8189 12.4381 24.5404 12.4381H40.5813L24.5404 19.4475L5.46107 11.1103L24.5404 2.7731L33.1045 6.51533C33.7673 6.80491 34.5356 6.49362 34.8206 5.81991C35.1054 5.14627 34.7991 4.36528 34.1364 4.0757L25.0564 0.107947C24.727 -0.0359824 24.3538 -0.0359824 24.0244 0.107947L1.63756 9.8905C1.15801 10.1001 0.847168 10.5797 0.847168 11.1103C0.847168 11.6409 1.15801 12.1206 1.63756 12.3301L24.0245 22.1126C24.1892 22.1845 24.3649 22.2205 24.5404 22.2205C24.716 22.2205 24.8917 22.1845 25.0564 22.1126L37.3777 16.7284L37.378 25.9162C30.1879 32.6776 18.8928 32.6776 11.7029 25.9161L11.703 23.5725C11.703 22.8392 11.1181 22.2447 10.3967 22.2447C9.67523 22.2447 9.09032 22.8392 9.09032 23.5724L9.09025 26.485C9.09025 26.8417 9.23153 27.1835 9.48222 27.4332C13.5268 31.4623 18.8745 33.6812 24.5404 33.6812C30.2063 33.6812 35.5541 31.4623 39.5986 27.4334C39.8493 27.1836 39.9906 26.8418 39.9906 26.485L39.9904 15.5868L45.621 13.1263V18.756C44.5568 19.2587 43.8167 20.355 43.8167 21.6242C43.8167 22.9267 44.7732 26.3536 46.9273 26.3536C49.0814 26.3536 50.0377 22.9267 50.0377 21.6242C50.0378 20.3551 49.2979 19.2588 48.2337 18.756ZM46.9274 23.3391C46.6736 22.8324 46.4295 22.0494 46.4295 21.6243C46.4295 21.3452 46.6528 21.1182 46.9274 21.1182C47.2019 21.1182 47.4251 21.3452 47.4251 21.6243C47.4251 22.0494 47.1809 22.8324 46.9274 23.3391Z" fill="#7351D5"/>
<path d="M10.3967 20.8619C11.1182 20.8619 11.703 20.2674 11.703 19.5341V19.0923C11.703 18.359 11.1182 17.7645 10.3967 17.7645C9.67518 17.7645 9.09033 18.359 9.09033 19.0923V19.5341C9.09033 20.2674 9.67518 20.8619 10.3967 20.8619Z" fill="#7351D5"/>
</svg>
