<svg width="51" height="34" viewBox="0 0 51 34" fill="none" xmlns="http://www.w3.org/2000/svg">
<path d="M37.3545 7.82644L37.3546 7.82648C37.4586 7.87193 37.5652 7.89289 37.6697 7.89289C37.9786 7.89289 38.2769 7.70895 38.41 7.39453L37.3545 7.82644ZM37.3545 7.82644L36.9567 7.65259C36.9566 7.65259 36.9566 7.65259 36.9566 7.65258C36.9566 7.65258 36.9566 7.65258 36.9566 7.65257C36.5496 7.47463 36.3525 6.98754 36.5329 6.56129L36.5329 6.56127C36.7115 6.13913 37.1854 5.95335 37.5882 6.12932C37.5882 6.12933 37.5882 6.12934 37.5883 6.12934L37.9861 6.30326L37.9862 6.30329M37.3545 7.82644L37.9862 6.30329M37.9862 6.30329C38.3932 6.48113 38.5903 6.96825 38.41 7.39449L37.9862 6.30329Z" fill="white" stroke="white"/>
<path d="M47.7337 18.756V19.0728L48.0201 19.2081C48.9136 19.6302 49.5378 20.553 49.5377 21.6242C49.5377 22.1923 49.3193 23.2987 48.8428 24.2543C48.3553 25.2321 47.7049 25.8536 46.9273 25.8536C46.1497 25.8536 45.4993 25.2321 45.0117 24.2542C44.5352 23.2987 44.3167 22.1923 44.3167 21.6242C44.3167 20.553 44.9411 19.6301 45.8345 19.2081L46.121 19.0728V18.756V13.1263V12.3622L45.4208 12.6682L39.7902 15.1286L39.4904 15.2596L39.4904 15.5868L39.4906 26.485C39.4906 26.7101 39.4014 26.924 39.2457 27.0791C35.2942 31.0155 30.0729 33.1812 24.5404 33.1812C19.0079 33.1812 13.7867 31.0155 9.83509 27.079C9.67943 26.9239 9.59025 26.71 9.59025 26.485L9.59032 23.5724C9.59032 23.1076 9.95899 22.7447 10.3967 22.7447C10.8343 22.7447 11.203 23.1076 11.203 23.5725L11.2029 25.9161L11.2029 26.1323L11.3604 26.2804C18.7427 33.2228 30.3379 33.2228 37.7205 26.2804L37.878 26.1324L37.878 25.9162L37.8777 16.7284L37.8777 15.9643L37.1775 16.2702L24.8562 21.6544L24.8561 21.6544C24.7552 21.6985 24.6477 21.7205 24.5404 21.7205C24.4332 21.7205 24.3257 21.6985 24.2247 21.6544L24.2247 21.6544L1.83777 11.872L1.83775 11.872C1.54358 11.7434 1.34717 11.4457 1.34717 11.1103C1.34717 10.7749 1.54354 10.4773 1.83777 10.3487C1.83778 10.3487 1.83779 10.3487 1.8378 10.3487L24.2246 0.566117C24.4264 0.477961 24.6544 0.477961 24.8562 0.566114L33.9362 4.53387L34.1182 4.11727L33.9362 4.53387C34.3432 4.71171 34.5403 5.19884 34.3601 5.62513C34.1815 6.04733 33.7075 6.23312 33.3047 6.05716C33.3047 6.05716 33.3047 6.05715 33.3047 6.05715L24.7406 2.31493L24.5404 2.22745L24.3402 2.31493L5.26086 10.6522L4.21236 11.1103L5.26086 11.5685L24.3402 19.9057L24.5404 19.9932L24.7406 19.9057L40.7815 12.8962L40.5813 11.9381H24.5404C24.1027 11.9381 23.7341 11.5752 23.7341 11.1103C23.7341 10.6454 24.1027 10.2826 24.5404 10.2826H46.9274C47.3651 10.2826 47.7337 10.6454 47.7337 11.1103V18.756ZM46.4803 23.563L46.9275 24.4562L47.3745 23.5629C47.5164 23.2793 47.651 22.929 47.7506 22.5935C47.8475 22.2675 47.9251 21.9101 47.9251 21.6243C47.9251 21.077 47.4859 20.6182 46.9274 20.6182C46.3691 20.6182 45.9295 21.0768 45.9295 21.6243C45.9295 21.9101 46.0071 22.2675 46.104 22.5935C46.2036 22.929 46.3383 23.2794 46.4803 23.563Z" fill="white" stroke="white"/>
<path d="M11.203 19.5341C11.203 19.999 10.8344 20.3619 10.3967 20.3619C9.95896 20.3619 9.59033 19.999 9.59033 19.5341V19.0923C9.59033 18.6274 9.95896 18.2645 10.3967 18.2645C10.8344 18.2645 11.203 18.6274 11.203 19.0923V19.5341Z" fill="white" stroke="white"/>
</svg>
