<svg width="39" height="37" viewBox="0 0 39 37" fill="none" xmlns="http://www.w3.org/2000/svg">
<mask id="path-1-inside-1_14105_3195" fill="white">
<path d="M19.5 0L18.4784 1.00123L0 19.9336L2.04328 22.0271L3.86446 20.1611V37H16.6572V22.4367H22.3428V37H35.1355V20.1611L36.9567 22.0271L39 19.9336L20.5216 1.00123L19.5 0ZM19.5 4.14145L32.2927 17.2485V34.0873H25.1857V19.524H13.8144V34.0873H6.70729V17.2485L19.5 4.14145Z"/>
</mask>
<path d="M19.5 0L18.4784 1.00123L0 19.9336L2.04328 22.0271L3.86446 20.1611V37H16.6572V22.4367H22.3428V37H35.1355V20.1611L36.9567 22.0271L39 19.9336L20.5216 1.00123L19.5 0ZM19.5 4.14145L32.2927 17.2485V34.0873H25.1857V19.524H13.8144V34.0873H6.70729V17.2485L19.5 4.14145Z" fill="white"/>
<path d="M19.5 0L36.9984 -17.8551L19.5 -35.004L2.00159 -17.8551L19.5 0ZM18.4784 1.00123L0.979946 -16.8539L0.78153 -16.6594L0.587485 -16.4606L18.4784 1.00123ZM0 19.9336L-17.8909 2.47172L-34.934 19.9336L-17.8909 37.3954L0 19.9336ZM2.04328 22.0271L-15.8476 39.4889L2.04328 57.8194L19.9342 39.4889L2.04328 22.0271ZM3.86446 20.1611H28.8645V-41.2454L-14.0264 2.69927L3.86446 20.1611ZM3.86446 37H-21.1355V62H3.86446V37ZM16.6572 37V62H41.6572V37H16.6572ZM16.6572 22.4367V-2.56335H-8.34282V22.4367H16.6572ZM22.3428 22.4367H47.3428V-2.56335H22.3428V22.4367ZM22.3428 37H-2.65718V62H22.3428V37ZM35.1355 37V62H60.1355V37H35.1355ZM35.1355 20.1611L53.0264 2.69927L10.1355 -41.2454V20.1611H35.1355ZM36.9567 22.0271L19.0658 39.4889L36.9567 57.8193L54.8476 39.4889L36.9567 22.0271ZM39 19.9336L56.8909 37.3954L73.934 19.9336L56.8909 2.47172L39 19.9336ZM20.5216 1.00123L38.4125 -16.4606L38.2185 -16.6594L38.0201 -16.8539L20.5216 1.00123ZM19.5 4.14145L37.3909 -13.3204L19.5 -31.6508L1.60913 -13.3204L19.5 4.14145ZM32.2927 17.2485H57.2927V7.07038L50.1836 -0.213403L32.2927 17.2485ZM32.2927 34.0873V59.0873H57.2927V34.0873H32.2927ZM25.1857 34.0873H0.185651V59.0873H25.1857V34.0873ZM25.1857 19.524H50.1857V-5.47602H25.1857V19.524ZM13.8144 19.524V-5.47602H-11.1856V19.524H13.8144ZM13.8144 34.0873V59.0873H38.8144V34.0873H13.8144ZM6.70729 34.0873H-18.2927V59.0873H6.70729V34.0873ZM6.70729 17.2485L-11.1836 -0.213401L-18.2927 7.07039V17.2485H6.70729ZM2.00159 -17.8551L0.979946 -16.8539L35.9768 18.8564L36.9984 17.8551L2.00159 -17.8551ZM0.587485 -16.4606L-17.8909 2.47172L17.8909 37.3954L36.3692 18.4631L0.587485 -16.4606ZM-17.8909 37.3954L-15.8476 39.4889L19.9342 4.5652L17.8909 2.47172L-17.8909 37.3954ZM19.9342 39.4889L21.7553 37.623L-14.0264 2.69927L-15.8476 4.5652L19.9342 39.4889ZM-21.1355 20.1611V37H28.8645V20.1611H-21.1355ZM3.86446 62H16.6572V12H3.86446V62ZM41.6572 37V22.4367H-8.34282V37H41.6572ZM16.6572 47.4367H22.3428V-2.56335H16.6572V47.4367ZM-2.65718 22.4367V37H47.3428V22.4367H-2.65718ZM22.3428 62H35.1355V12H22.3428V62ZM60.1355 37V20.1611H10.1355V37H60.1355ZM17.2447 37.623L19.0658 39.4889L54.8476 4.5652L53.0264 2.69927L17.2447 37.623ZM54.8476 39.4889L56.8909 37.3954L21.1091 2.47172L19.0658 4.5652L54.8476 39.4889ZM56.8909 2.47172L38.4125 -16.4606L2.63076 18.4631L21.1091 37.3954L56.8909 2.47172ZM38.0201 -16.8539L36.9984 -17.8551L2.00157 17.8551L3.02321 18.8563L38.0201 -16.8539ZM1.60913 21.6033L14.4018 34.7103L50.1836 -0.213403L37.3909 -13.3204L1.60913 21.6033ZM7.29271 17.2485V34.0873H57.2927V17.2485H7.29271ZM32.2927 9.08733H25.1857V59.0873H32.2927V9.08733ZM50.1857 34.0873V19.524H0.185651V34.0873H50.1857ZM25.1857 -5.47602H13.8144V44.524H25.1857V-5.47602ZM-11.1856 19.524V34.0873H38.8144V19.524H-11.1856ZM13.8144 9.08733H6.70729V59.0873H13.8144V9.08733ZM31.7073 34.0873V17.2485H-18.2927V34.0873H31.7073ZM24.5982 34.7103L37.3909 21.6033L1.60913 -13.3204L-11.1836 -0.213401L24.5982 34.7103Z" fill="white" mask="url(#path-1-inside-1_14105_3195)"/>
</svg>
