<svg width="30" height="20" viewBox="0 0 30 20" fill="none" xmlns="http://www.w3.org/2000/svg">
<path d="M0.741838 0H28.9516C29.3613 0 29.6935 0.332203 29.6935 0.741837V6.73613C29.6935 7.14576 29.3613 7.47797 28.9516 7.47797H28.5695V12.522H28.9516C29.3613 12.522 29.6935 12.8542 29.6935 13.2639V19.2582C29.6935 19.6678 29.3613 20 28.9516 20H0.741838C0.332203 20 0 19.6678 0 19.2582V13.2639C0 12.8542 0.332203 12.522 0.741838 12.522H1.124V7.47797H0.741838C0.332203 7.47797 0 7.14576 0 6.73613V0.741837C0 0.332203 0.332203 0 0.741838 0ZM14.1049 5.87868C14.1049 4.90312 15.5886 4.90312 15.5886 5.87868V6.31258H16.1499C17.1254 6.31258 17.1254 7.7959 16.1499 7.7959H15.5886V9.25816H16.1499C17.4398 9.25816 18.3529 10.2162 18.3529 11.4726C18.3529 12.7293 17.4398 13.6874 16.1499 13.6874H15.5886V14.1213C15.5886 15.0969 14.1049 15.0969 14.1049 14.1213V13.6874H13.5436C12.5681 13.6874 12.5681 12.2037 13.5436 12.2037H14.1049V10.7418H13.5436C12.2537 10.7418 11.3406 9.78376 11.3406 8.52703C11.3406 7.27029 12.2537 6.31258 13.5436 6.31258H14.1049V5.87868ZM15.5886 10.7418V12.2037H16.1499C16.6037 12.2037 16.8692 11.9076 16.8692 11.4726C16.8692 11.038 16.6037 10.7418 16.1499 10.7418H15.5886ZM14.1049 9.25816V7.7959H13.5436C13.0897 7.7959 12.8243 8.09206 12.8243 8.52703C12.8243 8.962 13.0894 9.25816 13.5436 9.25816H14.1049ZM5.95361 3.58359H23.7399C24.1495 3.58359 24.4817 3.91579 24.4817 4.32542V15.6746C24.4817 16.0842 24.1495 16.4164 23.7399 16.4164H5.95361C5.54398 16.4164 5.21177 16.0842 5.21177 15.6746V4.32542C5.21177 3.91579 5.54398 3.58359 5.95361 3.58359ZM22.9984 5.06726H6.69509V14.9327H22.9984V5.06726ZM28.2098 1.48332H1.48368V5.99429H1.86583C2.27547 5.99429 2.60767 6.32649 2.60767 6.73613V13.2639C2.60767 13.6735 2.27547 14.0054 1.86583 14.0054H1.48368V18.5167H28.2098V14.0054H27.8277C27.4184 14.0054 27.0862 13.6735 27.0862 13.2639V6.73613C27.0862 6.32649 27.4184 5.99429 27.8277 5.99429H28.2098V1.48332Z" fill="#7351D5"/>
</svg>
