<svg width="43" height="40" viewBox="0 0 43 40" fill="none" xmlns="http://www.w3.org/2000/svg">
<path d="M24.1084 28.5426C24.5355 28.9768 25.2344 28.9768 25.6615 28.5426L27.7776 26.3918C28.5736 25.5828 28.6318 24.2706 27.865 23.432C27.0593 22.5539 25.7101 22.5342 24.885 23.3728C24.0599 22.5342 22.7106 22.5539 21.905 23.432C21.1381 24.2706 21.1964 25.5828 21.9923 26.3918L24.1084 28.5426Z" fill="#7351D5"/>
<mask id="path-2-inside-1_14106_3264" fill="white">
<path d="M38.232 16.7526V14.365C38.6591 14.7104 39.2027 14.9077 39.7851 14.9077C41.1732 14.9077 42.3089 13.7533 42.3089 12.3425C42.3089 11.494 41.9012 10.7343 41.2703 10.2706C41.9012 9.80691 42.3089 9.04722 42.3089 8.19873C42.3089 6.78788 41.1732 5.63354 39.7851 5.63354C39.2027 5.63354 38.6591 5.84073 38.232 6.17618V3.78858C38.232 1.69697 36.5625 0 34.5046 0C34.2328 0 34.0193 0.217054 34.0193 0.493305V17.7195C34.0193 17.9958 34.2328 18.2128 34.5046 18.2128C34.7764 18.2128 34.9899 17.9958 34.9899 17.7195V1.03594C36.281 1.27273 37.2614 2.4172 37.2614 3.78858V8.19873V12.3425V16.7526C37.2614 18.2918 36.0286 19.5546 34.5046 19.5546H32.8544H31.8935V19.4066C31.8935 18.2128 30.9325 17.2361 29.758 17.2361H29.6609C30.0686 16.4567 30.2821 15.5884 30.2821 14.6808C30.2821 12.2044 28.6611 10.1029 26.4382 9.43199L30.0686 5.33756C30.2239 5.16984 30.2336 4.91332 30.1074 4.72586L28.2049 2.00282C28.1175 1.87456 27.9622 1.79563 27.8069 1.79563H21.9828C21.8274 1.79563 21.6818 1.87456 21.5848 2.00282L19.6822 4.72586C19.5463 4.91332 19.5657 5.16984 19.7211 5.33756L23.3514 9.43199C21.1286 10.1128 19.5075 12.2044 19.5075 14.6808C19.5075 15.5884 19.7211 16.4468 20.1287 17.2361H20.0317C18.8571 17.2361 17.8962 18.2128 17.8962 19.4066V19.5546H16.9352C15.7607 19.5546 14.7997 20.5314 14.7997 21.7252V22.7216C14.2076 22.3369 13.5281 22.1297 12.8098 22.1297H6.40324C5.7723 21.0444 4.60748 20.3044 3.27764 20.3044H2.44285C1.63718 20.3044 0.986816 20.9655 0.986816 21.7844V38.4877C0.986816 39.3066 1.63718 39.9676 2.44285 39.9676H3.27764C4.60748 39.9676 5.7723 39.2375 6.40324 38.1424H29.4667C31.6993 38.1424 33.8057 37.2544 35.3879 35.6462L41.2315 29.7068C41.9207 29.0063 42.3089 28.0395 42.2992 27.043C42.2895 26.0662 41.9109 25.1586 41.2315 24.4877C39.8434 23.1261 37.6011 23.1557 36.2421 24.537L35.0094 25.79V21.7054C35.0094 21.2713 34.8832 20.8569 34.6599 20.5116C36.6304 20.4623 38.232 18.7949 38.232 16.7526ZM5.93731 36.2777C5.93731 37.7674 4.74337 38.981 3.27764 38.981H2.44285C2.17105 38.981 1.9575 38.7639 1.9575 38.4877V21.7942C1.9575 21.518 2.17105 21.3009 2.44285 21.3009H3.27764C4.74337 21.3009 5.93731 22.5144 5.93731 24.0042V36.2777ZM23.0117 5.01198H20.7306L20.7015 4.97252L22.2254 2.78224H23.895L23.0117 5.01198H26.7682L25.8752 2.78224H27.5448L29.0785 4.98238L29.0493 5.02185H26.7682L25.3122 9.23467C25.1763 9.22481 25.0307 9.21494 24.8948 9.21494C24.7589 9.21494 24.6133 9.22481 24.4774 9.23467L23.0117 5.01198ZM24.8851 10.1917C27.3215 10.1917 29.3114 12.2044 29.3114 14.6906C29.3114 15.618 29.0396 16.4863 28.5349 17.2459H27.4671C27.9136 16.6638 28.166 15.9436 28.166 15.1741C28.166 13.3192 26.6809 11.8196 24.8657 11.8196C23.0505 11.8196 21.5654 13.3291 21.5654 15.1741C21.5654 15.9436 21.8177 16.6638 22.2643 17.2459H21.245C20.7306 16.4961 20.4685 15.618 20.4685 14.6906C20.4685 12.2044 22.4487 10.1917 24.8851 10.1917ZM27.205 15.1741C27.205 16.0423 26.7488 16.8217 26.0111 17.2459H23.73C22.9923 16.8217 22.5361 16.0423 22.5361 15.1741C22.5361 13.8619 23.5844 12.8062 24.8657 12.8062C26.147 12.8062 27.205 13.8619 27.205 15.1741ZM15.7607 21.7252C15.7607 21.074 16.2848 20.5412 16.9255 20.5412H18.3718H31.4178H32.8641C33.5048 20.5412 34.029 21.074 34.029 21.7252V26.7963L30.7869 30.0916C30.2724 30.6145 29.5832 30.9006 28.8552 30.9006H21.876C21.7886 30.1113 21.4489 29.3517 20.8665 28.7597L15.7607 23.5701V21.7252ZM36.9119 25.2572C37.902 24.2509 39.5328 24.2311 40.5423 25.2178C41.0373 25.7012 41.3091 26.3622 41.3188 27.0726C41.3285 27.8027 41.0373 28.513 40.5423 29.0261L39.5231 30.062L38.63 29.1543C38.4359 28.957 38.135 28.957 37.9408 29.1543C37.7467 29.3517 37.7467 29.6575 37.9408 29.8548L38.8339 30.7625L37.8923 31.7195L36.2324 30.0324C36.0383 29.8351 35.7374 29.8351 35.5432 30.0324C35.3491 30.2297 35.3491 30.5356 35.5432 30.7329L37.2031 32.42L36.2615 33.377L35.3685 32.4693C35.1744 32.272 34.8735 32.272 34.6793 32.4693C34.4852 32.6667 34.4852 32.9725 34.6793 33.1698L35.5724 34.0775L34.689 34.9655C33.2912 36.3862 31.4275 37.1656 29.457 37.1656H6.80123C6.86917 36.8795 6.908 36.5835 6.908 36.2777V24.0042C6.908 23.6984 6.86917 23.4024 6.80123 23.1163H12.8001C13.5281 23.1163 14.2173 23.4024 14.7317 23.9253L20.187 29.4701C21.1771 30.4764 21.1965 32.1339 20.2258 33.16C19.7502 33.6631 19.0998 33.9394 18.4009 33.9493C17.6826 33.9591 16.9837 33.6631 16.479 33.16L12.4215 29.0458C12.2274 28.8485 11.9264 28.8485 11.7323 29.0458C11.5382 29.2431 11.5382 29.549 11.7323 29.7463L15.7704 33.8506C16.4498 34.5412 17.3914 34.9359 18.3524 34.9359C18.3621 34.9359 18.3718 34.9359 18.3912 34.9359C19.3522 34.926 20.2452 34.5412 20.9053 33.8506C21.4295 33.2981 21.7401 32.6173 21.8469 31.907H28.8455C29.8356 31.907 30.7675 31.5123 31.4664 30.802L36.9119 25.2572Z"/>
</mask>
<path d="M38.232 16.7526V14.365C38.6591 14.7104 39.2027 14.9077 39.7851 14.9077C41.1732 14.9077 42.3089 13.7533 42.3089 12.3425C42.3089 11.494 41.9012 10.7343 41.2703 10.2706C41.9012 9.80691 42.3089 9.04722 42.3089 8.19873C42.3089 6.78788 41.1732 5.63354 39.7851 5.63354C39.2027 5.63354 38.6591 5.84073 38.232 6.17618V3.78858C38.232 1.69697 36.5625 0 34.5046 0C34.2328 0 34.0193 0.217054 34.0193 0.493305V17.7195C34.0193 17.9958 34.2328 18.2128 34.5046 18.2128C34.7764 18.2128 34.9899 17.9958 34.9899 17.7195V1.03594C36.281 1.27273 37.2614 2.4172 37.2614 3.78858V8.19873V12.3425V16.7526C37.2614 18.2918 36.0286 19.5546 34.5046 19.5546H32.8544H31.8935V19.4066C31.8935 18.2128 30.9325 17.2361 29.758 17.2361H29.6609C30.0686 16.4567 30.2821 15.5884 30.2821 14.6808C30.2821 12.2044 28.6611 10.1029 26.4382 9.43199L30.0686 5.33756C30.2239 5.16984 30.2336 4.91332 30.1074 4.72586L28.2049 2.00282C28.1175 1.87456 27.9622 1.79563 27.8069 1.79563H21.9828C21.8274 1.79563 21.6818 1.87456 21.5848 2.00282L19.6822 4.72586C19.5463 4.91332 19.5657 5.16984 19.7211 5.33756L23.3514 9.43199C21.1286 10.1128 19.5075 12.2044 19.5075 14.6808C19.5075 15.5884 19.7211 16.4468 20.1287 17.2361H20.0317C18.8571 17.2361 17.8962 18.2128 17.8962 19.4066V19.5546H16.9352C15.7607 19.5546 14.7997 20.5314 14.7997 21.7252V22.7216C14.2076 22.3369 13.5281 22.1297 12.8098 22.1297H6.40324C5.7723 21.0444 4.60748 20.3044 3.27764 20.3044H2.44285C1.63718 20.3044 0.986816 20.9655 0.986816 21.7844V38.4877C0.986816 39.3066 1.63718 39.9676 2.44285 39.9676H3.27764C4.60748 39.9676 5.7723 39.2375 6.40324 38.1424H29.4667C31.6993 38.1424 33.8057 37.2544 35.3879 35.6462L41.2315 29.7068C41.9207 29.0063 42.3089 28.0395 42.2992 27.043C42.2895 26.0662 41.9109 25.1586 41.2315 24.4877C39.8434 23.1261 37.6011 23.1557 36.2421 24.537L35.0094 25.79V21.7054C35.0094 21.2713 34.8832 20.8569 34.6599 20.5116C36.6304 20.4623 38.232 18.7949 38.232 16.7526ZM5.93731 36.2777C5.93731 37.7674 4.74337 38.981 3.27764 38.981H2.44285C2.17105 38.981 1.9575 38.7639 1.9575 38.4877V21.7942C1.9575 21.518 2.17105 21.3009 2.44285 21.3009H3.27764C4.74337 21.3009 5.93731 22.5144 5.93731 24.0042V36.2777ZM23.0117 5.01198H20.7306L20.7015 4.97252L22.2254 2.78224H23.895L23.0117 5.01198H26.7682L25.8752 2.78224H27.5448L29.0785 4.98238L29.0493 5.02185H26.7682L25.3122 9.23467C25.1763 9.22481 25.0307 9.21494 24.8948 9.21494C24.7589 9.21494 24.6133 9.22481 24.4774 9.23467L23.0117 5.01198ZM24.8851 10.1917C27.3215 10.1917 29.3114 12.2044 29.3114 14.6906C29.3114 15.618 29.0396 16.4863 28.5349 17.2459H27.4671C27.9136 16.6638 28.166 15.9436 28.166 15.1741C28.166 13.3192 26.6809 11.8196 24.8657 11.8196C23.0505 11.8196 21.5654 13.3291 21.5654 15.1741C21.5654 15.9436 21.8177 16.6638 22.2643 17.2459H21.245C20.7306 16.4961 20.4685 15.618 20.4685 14.6906C20.4685 12.2044 22.4487 10.1917 24.8851 10.1917ZM27.205 15.1741C27.205 16.0423 26.7488 16.8217 26.0111 17.2459H23.73C22.9923 16.8217 22.5361 16.0423 22.5361 15.1741C22.5361 13.8619 23.5844 12.8062 24.8657 12.8062C26.147 12.8062 27.205 13.8619 27.205 15.1741ZM15.7607 21.7252C15.7607 21.074 16.2848 20.5412 16.9255 20.5412H18.3718H31.4178H32.8641C33.5048 20.5412 34.029 21.074 34.029 21.7252V26.7963L30.7869 30.0916C30.2724 30.6145 29.5832 30.9006 28.8552 30.9006H21.876C21.7886 30.1113 21.4489 29.3517 20.8665 28.7597L15.7607 23.5701V21.7252ZM36.9119 25.2572C37.902 24.2509 39.5328 24.2311 40.5423 25.2178C41.0373 25.7012 41.3091 26.3622 41.3188 27.0726C41.3285 27.8027 41.0373 28.513 40.5423 29.0261L39.5231 30.062L38.63 29.1543C38.4359 28.957 38.135 28.957 37.9408 29.1543C37.7467 29.3517 37.7467 29.6575 37.9408 29.8548L38.8339 30.7625L37.8923 31.7195L36.2324 30.0324C36.0383 29.8351 35.7374 29.8351 35.5432 30.0324C35.3491 30.2297 35.3491 30.5356 35.5432 30.7329L37.2031 32.42L36.2615 33.377L35.3685 32.4693C35.1744 32.272 34.8735 32.272 34.6793 32.4693C34.4852 32.6667 34.4852 32.9725 34.6793 33.1698L35.5724 34.0775L34.689 34.9655C33.2912 36.3862 31.4275 37.1656 29.457 37.1656H6.80123C6.86917 36.8795 6.908 36.5835 6.908 36.2777V24.0042C6.908 23.6984 6.86917 23.4024 6.80123 23.1163H12.8001C13.5281 23.1163 14.2173 23.4024 14.7317 23.9253L20.187 29.4701C21.1771 30.4764 21.1965 32.1339 20.2258 33.16C19.7502 33.6631 19.0998 33.9394 18.4009 33.9493C17.6826 33.9591 16.9837 33.6631 16.479 33.16L12.4215 29.0458C12.2274 28.8485 11.9264 28.8485 11.7323 29.0458C11.5382 29.2431 11.5382 29.549 11.7323 29.7463L15.7704 33.8506C16.4498 34.5412 17.3914 34.9359 18.3524 34.9359C18.3621 34.9359 18.3718 34.9359 18.3912 34.9359C19.3522 34.926 20.2452 34.5412 20.9053 33.8506C21.4295 33.2981 21.7401 32.6173 21.8469 31.907H28.8455C29.8356 31.907 30.7675 31.5123 31.4664 30.802L36.9119 25.2572Z" fill="#7351D5"/>
<path d="M38.232 14.365L41.3756 10.4769L33.232 3.89275V14.365H38.232ZM41.2703 10.2706L38.3093 6.24167L32.8273 10.2706L38.3093 14.2996L41.2703 10.2706ZM38.232 6.17618H33.232V16.461L41.3204 10.1084L38.232 6.17618ZM34.9899 1.03594L35.892 -3.88202L29.99 -4.96452V1.03594H34.9899ZM31.8935 19.5546H26.8935V24.5546H31.8935V19.5546ZM29.6609 17.2361L25.2304 14.9186L21.4029 22.2361H29.6609V17.2361ZM26.4382 9.43199L22.697 6.11484L17.5134 11.9611L24.9935 14.2187L26.4382 9.43199ZM30.0686 5.33756L26.3999 1.9404L26.3632 1.98001L26.3274 2.02041L30.0686 5.33756ZM30.1074 4.72586L34.2552 1.93372L34.2309 1.89774L34.2061 1.86218L30.1074 4.72586ZM28.2049 2.00282L24.0724 4.81757L24.0891 4.84214L24.1062 4.8665L28.2049 2.00282ZM21.5848 2.00282L17.5979 -1.01454L17.5405 -0.938768L17.4861 -0.860869L21.5848 2.00282ZM19.6822 4.72586L23.7304 7.66057L23.756 7.62528L23.7809 7.58955L19.6822 4.72586ZM19.7211 5.33756L23.4622 2.0204L23.4264 1.98001L23.3898 1.9404L19.7211 5.33756ZM23.3514 9.43199L24.8156 14.2128L32.2531 11.935L27.0926 6.11484L23.3514 9.43199ZM20.1287 17.2361V22.2361H28.339L24.5711 14.9415L20.1287 17.2361ZM17.8962 19.5546V24.5546H22.8962V19.5546H17.8962ZM14.7997 22.7216L12.0752 26.9142L19.7997 31.9338V22.7216H14.7997ZM6.40324 22.1297L2.08066 24.6427L3.52652 27.1297H6.40324V22.1297ZM6.40324 38.1424V33.1424H3.51345L2.07084 35.6463L6.40324 38.1424ZM35.3879 35.6462L38.9521 39.1529L35.3879 35.6462ZM41.2315 29.7068L37.6673 26.2002L41.2315 29.7068ZM42.2992 27.043L47.299 26.9943L47.299 26.9933L42.2992 27.043ZM41.2315 24.4877L44.7444 20.9297L44.7386 20.9239L44.7327 20.9181L41.2315 24.4877ZM36.2421 24.537L32.678 21.0303L36.2421 24.537ZM35.0094 25.79H30.0094V38.0013L38.5735 29.2966L35.0094 25.79ZM34.6599 20.5116L34.5348 15.5132L25.6186 15.7364L30.4611 23.2263L34.6599 20.5116ZM20.7306 5.01198L16.7073 7.98075L18.2062 10.012H20.7306V5.01198ZM20.7015 4.97252L16.5972 2.1168L14.5507 5.05807L16.6782 7.94128L20.7015 4.97252ZM22.2254 2.78224V-2.21776H19.6132L18.1212 -0.0734709L22.2254 2.78224ZM23.895 2.78224L28.5435 4.62378L31.2538 -2.21776H23.895V2.78224ZM26.7682 5.01198V10.012H34.1569L31.4098 3.15299L26.7682 5.01198ZM25.8752 2.78224V-2.21776H18.4866L21.2336 4.64123L25.8752 2.78224ZM27.5448 2.78224L31.6466 -0.0770416L30.1543 -2.21776H27.5448V2.78224ZM29.0785 4.98238L33.1016 7.95124L35.2312 5.06536L33.1802 2.1231L29.0785 4.98238ZM29.0493 5.02185V10.0218H31.5737L33.0725 7.99071L29.0493 5.02185ZM26.7682 5.02185V0.0218463H23.2061L22.0425 3.38855L26.7682 5.02185ZM25.3122 9.23467L24.9502 14.2215L28.7827 14.4998L30.0379 10.868L25.3122 9.23467ZM24.4774 9.23467L19.7539 10.8743L21.0122 14.4994L24.8395 14.2215L24.4774 9.23467ZM28.5349 17.2459V22.2459H31.2158L32.6994 20.013L28.5349 17.2459ZM27.4671 17.2459L23.4999 14.2028L17.3301 22.2459H27.4671V17.2459ZM22.2643 17.2459V22.2459H32.4012L26.2315 14.2028L22.2643 17.2459ZM21.245 17.2459L17.1222 20.0747L18.6119 22.2459H21.245V17.2459ZM20.4685 14.6906H15.4685H20.4685ZM26.0111 17.2459V22.2459H27.3463L28.5037 21.5803L26.0111 17.2459ZM23.73 17.2459L21.2374 21.5803L22.3948 22.2459H23.73V17.2459ZM34.029 26.7963L37.5932 30.303L39.029 28.8436V26.7963H34.029ZM30.7869 30.0916L27.2227 26.585V26.585L30.7869 30.0916ZM21.876 30.9006L16.9063 31.4507L17.3989 35.9006H21.876V30.9006ZM20.8665 28.7597L24.4306 25.253V25.253L20.8665 28.7597ZM15.7607 23.5701H10.7607V25.6174L12.1965 27.0768L15.7607 23.5701ZM36.9119 25.2572L33.3477 21.7506L33.3446 21.7537L36.9119 25.2572ZM40.5423 25.2178L37.0475 28.7936L37.0489 28.795L40.5423 25.2178ZM41.3188 27.0726L46.3184 27.0061L46.3184 27.0043L41.3188 27.0726ZM40.5423 29.0261L44.1065 32.5327L44.1235 32.5154L44.1403 32.498L40.5423 29.0261ZM39.5231 30.062L35.9589 33.5687L39.5231 37.1913L43.0872 33.5687L39.5231 30.062ZM38.63 29.1543L35.0658 32.661L35.0658 32.661L38.63 29.1543ZM37.9408 29.8548L41.505 26.3482L37.9408 29.8548ZM38.8339 30.7625L42.398 34.2692L45.8481 30.7625L42.398 27.2559L38.8339 30.7625ZM37.8923 31.7195L34.3281 35.2262L37.8923 38.8488L41.4565 35.2262L37.8923 31.7195ZM36.2324 30.0324L39.7966 26.5258L36.2324 30.0324ZM35.5432 30.7329L39.1074 27.2263L39.1074 27.2263L35.5432 30.7329ZM37.2031 32.42L40.7673 35.9267L44.2173 32.42L40.7673 28.9134L37.2031 32.42ZM36.2615 33.377L32.6974 36.8837L36.2615 40.5063L39.8257 36.8837L36.2615 33.377ZM35.3685 32.4693L38.9327 28.9627L35.3685 32.4693ZM34.6793 33.1698L38.2435 29.6632V29.6632L34.6793 33.1698ZM35.5724 34.0775L39.1171 37.6038L42.6057 34.0969L39.1365 30.5709L35.5724 34.0775ZM34.689 34.9655L31.1443 31.4392L31.1345 31.449L31.1249 31.4588L34.689 34.9655ZM6.80123 37.1656L1.93653 36.0103L0.474747 42.1656H6.80123V37.1656ZM6.80123 23.1163V18.1163H0.474747L1.93653 24.2716L6.80123 23.1163ZM14.7317 23.9253L18.2959 20.4186V20.4186L14.7317 23.9253ZM20.187 29.4701L16.6228 32.9767H16.6228L20.187 29.4701ZM20.2258 33.16L16.5936 29.7238L16.5923 29.7253L20.2258 33.16ZM18.4009 33.9493L18.4696 38.9488L18.4715 38.9488L18.4009 33.9493ZM16.479 33.16L12.919 36.6709L12.9339 36.686L12.949 36.7011L16.479 33.16ZM12.4215 29.0458L8.85732 32.5525L8.86152 32.5567L12.4215 29.0458ZM11.7323 29.7463L8.16813 33.253L8.16813 33.253L11.7323 29.7463ZM15.7704 33.8506L19.3345 30.3439L19.3345 30.3439L15.7704 33.8506ZM18.3912 34.9359V39.9359H18.4169L18.4425 39.9356L18.3912 34.9359ZM20.9053 33.8506L24.5199 37.3053L24.5263 37.2986L24.5326 37.2919L20.9053 33.8506ZM21.8469 31.907V26.907H17.5423L16.9024 31.1638L21.8469 31.907ZM31.4664 30.802L35.0305 34.3086L35.0337 34.3055L31.4664 30.802ZM43.232 16.7526V14.365H33.232V16.7526H43.232ZM35.0884 18.2532C36.4091 19.3209 38.0633 19.9077 39.7851 19.9077V9.90768C40.3421 9.90768 40.9092 10.0998 41.3756 10.4769L35.0884 18.2532ZM39.7851 19.9077C44.011 19.9077 47.3089 16.4378 47.3089 12.3425H37.3089C37.3089 11.0689 38.3354 9.90768 39.7851 9.90768V19.9077ZM47.3089 12.3425C47.3089 9.87533 46.1216 7.63092 44.2313 6.24167L38.3093 14.2996C37.6809 13.8377 37.3089 13.1127 37.3089 12.3425H47.3089ZM44.2313 14.2996C46.1216 12.9103 47.3089 10.6659 47.3089 8.19873H37.3089C37.3089 7.42853 37.6809 6.70351 38.3093 6.24167L44.2313 14.2996ZM47.3089 8.19873C47.3089 4.10347 44.011 0.633545 39.7851 0.633545V10.6335C38.3354 10.6335 37.3089 9.47229 37.3089 8.19873H47.3089ZM39.7851 0.633545C38.0094 0.633545 36.3921 1.26348 35.1437 2.244L41.3204 10.1084C40.9262 10.418 40.3961 10.6335 39.7851 10.6335V0.633545ZM43.232 6.17618V3.78858H33.232V6.17618H43.232ZM43.232 3.78858C43.232 -0.987441 39.4003 -5 34.5046 -5V5C33.7246 5 33.232 4.38138 33.232 3.78858H43.232ZM34.5046 -5C31.395 -5 29.0193 -2.46736 29.0193 0.493305H39.0193C39.0193 2.90147 37.0706 5 34.5046 5V-5ZM29.0193 0.493305V17.7195H39.0193V0.493305H29.0193ZM29.0193 17.7195C29.0193 20.6802 31.395 23.2128 34.5046 23.2128V13.2128C37.0706 13.2128 39.0193 15.3113 39.0193 17.7195H29.0193ZM34.5046 23.2128C37.6142 23.2128 39.9899 20.6802 39.9899 17.7195H29.99C29.99 15.3113 31.9386 13.2128 34.5046 13.2128V23.2128ZM39.9899 17.7195V1.03594H29.99V17.7195H39.9899ZM34.0879 5.95391C33.0108 5.75634 32.2614 4.83657 32.2614 3.78858H42.2614C42.2614 -0.00217849 39.5511 -3.21089 35.892 -3.88202L34.0879 5.95391ZM32.2614 3.78858V8.19873H42.2614V3.78858H32.2614ZM32.2614 8.19873V12.3425H42.2614V8.19873H32.2614ZM32.2614 12.3425V16.7526H42.2614V12.3425H32.2614ZM32.2614 16.7526C32.2614 15.6189 33.1794 14.5546 34.5046 14.5546V24.5546C38.8778 24.5546 42.2614 20.9646 42.2614 16.7526H32.2614ZM34.5046 14.5546H32.8544V24.5546H34.5046V14.5546ZM32.8544 14.5546H31.8935V24.5546H32.8544V14.5546ZM36.8935 19.5546V19.4066H26.8935V19.5546H36.8935ZM36.8935 19.4066C36.8935 15.5284 33.7703 12.2361 29.758 12.2361V22.2361C28.0947 22.2361 26.8935 20.8972 26.8935 19.4066H36.8935ZM29.758 12.2361H29.6609V22.2361H29.758V12.2361ZM34.0914 19.5535C34.8789 18.048 35.2821 16.3832 35.2821 14.6808H25.2821C25.2821 14.7937 25.2583 14.8653 25.2304 14.9186L34.0914 19.5535ZM35.2821 14.6808C35.2821 9.99529 32.2128 5.95207 27.8829 4.64526L24.9935 14.2187C25.0416 14.2332 25.1155 14.2742 25.1813 14.3626C25.2419 14.4442 25.2821 14.5483 25.2821 14.6808H35.2821ZM30.1794 12.7492L33.8098 8.65472L26.3274 2.02041L22.697 6.11484L30.1794 12.7492ZM33.7373 8.73472C35.5907 6.73312 35.5738 3.89259 34.2552 1.93372L25.9596 7.518C24.8934 5.93405 24.857 3.60656 26.3999 1.9404L33.7373 8.73472ZM34.2061 1.86218L32.3036 -0.860868L24.1062 4.8665L26.0087 7.58955L34.2061 1.86218ZM32.3373 -0.811934C31.2801 -2.36404 29.5465 -3.20437 27.8069 -3.20437V6.79563C26.3778 6.79563 24.9549 6.11316 24.0724 4.81757L32.3373 -0.811934ZM27.8069 -3.20437H21.9828V6.79563H27.8069V-3.20437ZM21.9828 -3.20437C20.0938 -3.20437 18.5342 -2.25172 17.5979 -1.01454L25.5717 5.02018C24.8295 6.00084 23.5611 6.79563 21.9828 6.79563V-3.20437ZM17.4861 -0.860869L15.5835 1.86218L23.7809 7.58955L25.6835 4.86651L17.4861 -0.860869ZM15.6341 1.79116C14.0624 3.95912 14.3185 6.86228 16.0524 8.73472L23.3898 1.9404C24.813 3.4774 25.0303 5.86751 23.7304 7.66057L15.6341 1.79116ZM15.9799 8.65472L19.6102 12.7492L27.0926 6.11484L23.4622 2.0204L15.9799 8.65472ZM21.8873 4.65117C17.5885 5.96769 14.5075 9.98068 14.5075 14.6808H24.5075C24.5075 14.4281 24.6686 14.2578 24.8156 14.2128L21.8873 4.65117ZM14.5075 14.6808C14.5075 16.3967 14.9168 18.0409 15.6864 19.5307L24.5711 14.9415C24.5253 14.8527 24.5075 14.7801 24.5075 14.6808H14.5075ZM20.1287 12.2361H20.0317V22.2361H20.1287V12.2361ZM20.0317 12.2361C16.0193 12.2361 12.8962 15.5284 12.8962 19.4066H22.8962C22.8962 20.8972 21.695 22.2361 20.0317 22.2361V12.2361ZM12.8962 19.4066V19.5546H22.8962V19.4066H12.8962ZM17.8962 14.5546H16.9352V24.5546H17.8962V14.5546ZM16.9352 14.5546C12.9228 14.5546 9.79968 17.847 9.79968 21.7252H19.7997C19.7997 23.2158 18.5985 24.5546 16.9352 24.5546V14.5546ZM9.79968 21.7252V22.7216H19.7997V21.7252H9.79968ZM17.5241 18.5291C16.1372 17.6278 14.5143 17.1297 12.8098 17.1297V27.1297C12.5419 27.1297 12.2779 27.0459 12.0752 26.9142L17.5241 18.5291ZM12.8098 17.1297H6.40324V27.1297H12.8098V17.1297ZM10.7258 19.6166C9.26553 17.1048 6.51552 15.3044 3.27764 15.3044V25.3044C2.69943 25.3044 2.27907 24.984 2.08066 24.6427L10.7258 19.6166ZM3.27764 15.3044H2.44285V25.3044H3.27764V15.3044ZM2.44285 15.3044C-1.20064 15.3044 -4.01318 18.2811 -4.01318 21.7844H5.98682C5.98682 23.6499 4.47499 25.3044 2.44285 25.3044V15.3044ZM-4.01318 21.7844V38.4877H5.98682V21.7844H-4.01318ZM-4.01318 38.4877C-4.01318 41.991 -1.20063 44.9676 2.44285 44.9676V34.9676C4.47498 34.9676 5.98682 36.6221 5.98682 38.4877H-4.01318ZM2.44285 44.9676H3.27764V34.9676H2.44285V44.9676ZM3.27764 44.9676C6.49525 44.9676 9.26311 43.1943 10.7357 40.6384L2.07084 35.6463C2.28149 35.2807 2.71971 34.9676 3.27764 34.9676V44.9676ZM6.40324 43.1424H29.4667V33.1424H6.40324V43.1424ZM29.4667 43.1424C33.0553 43.1424 36.4411 41.7051 38.9521 39.1529L31.8238 32.1396C31.1703 32.8037 30.3434 33.1424 29.4667 33.1424V43.1424ZM38.9521 39.1529L44.7956 33.2135L37.6673 26.2002L31.8238 32.1396L38.9521 39.1529ZM44.7956 33.2135C46.4288 31.5536 47.3215 29.3024 47.299 26.9943L37.2995 27.0917C37.2964 26.7765 37.4125 26.4591 37.6673 26.2002L44.7956 33.2135ZM47.299 26.9933C47.2765 24.7346 46.3897 22.5542 44.7444 20.9297L37.7185 28.0456C37.4321 27.7629 37.3025 27.3979 37.2995 27.0927L47.299 26.9933ZM44.7327 20.9181C41.3618 17.6117 35.9582 17.6963 32.678 21.0303L39.8063 28.0437C39.244 28.6152 38.325 28.6405 37.7302 28.0572L44.7327 20.9181ZM32.678 21.0303L31.4452 22.2833L38.5735 29.2966L39.8063 28.0437L32.678 21.0303ZM40.0094 25.79V21.7054H30.0094V25.79H40.0094ZM40.0094 21.7054C40.0094 20.304 39.6027 18.9476 38.8588 17.7969L30.4611 23.2263C30.1636 22.7663 30.0094 22.2386 30.0094 21.7054H40.0094ZM34.7851 25.5101C39.5721 25.3902 43.232 21.4017 43.232 16.7526H33.232C33.232 16.1882 33.6888 15.5344 34.5348 15.5132L34.7851 25.5101ZM0.937315 36.2777C0.937315 35.083 1.90556 33.981 3.27764 33.981V43.981C7.58119 43.981 10.9373 40.4519 10.9373 36.2777H0.937315ZM3.27764 33.981H2.44285V43.981H3.27764V33.981ZM2.44285 33.981C5.00883 33.981 6.9575 36.0795 6.9575 38.4877H-3.0425C-3.0425 41.4484 -0.666719 43.981 2.44285 43.981V33.981ZM6.9575 38.4877V21.7942H-3.0425V38.4877H6.9575ZM6.9575 21.7942C6.9575 24.2024 5.00887 26.3009 2.44285 26.3009V16.3009C-0.666765 16.3009 -3.0425 18.8336 -3.0425 21.7942H6.9575ZM2.44285 26.3009H3.27764V16.3009H2.44285V26.3009ZM3.27764 26.3009C1.90555 26.3009 0.937315 25.1988 0.937315 24.0042H10.9373C10.9373 19.83 7.58119 16.3009 3.27764 16.3009V26.3009ZM0.937315 24.0042V36.2777H10.9373V24.0042H0.937315ZM23.0117 0.0119799H20.7306V10.012H23.0117V0.0119799ZM24.7538 2.04321L24.7247 2.00375L16.6782 7.94128L16.7073 7.98075L24.7538 2.04321ZM24.8057 7.82823L26.3297 5.63795L18.1212 -0.0734709L16.5972 2.1168L24.8057 7.82823ZM22.2254 7.78224H23.895V-2.21776H22.2254V7.78224ZM19.2465 0.940701L18.3632 3.17044L27.6602 6.85352L28.5435 4.62378L19.2465 0.940701ZM23.0117 10.012H26.7682V0.0119799H23.0117V10.012ZM31.4098 3.15299L30.5168 0.923253L21.2336 4.64123L22.1267 6.87097L31.4098 3.15299ZM25.8752 7.78224H27.5448V-2.21776H25.8752V7.78224ZM23.443 5.64152L24.9767 7.84166L33.1802 2.1231L31.6466 -0.0770416L23.443 5.64152ZM25.0553 2.01352L25.0262 2.05299L33.0725 7.99071L33.1016 7.95124L25.0553 2.01352ZM29.0493 0.0218463H26.7682V10.0218H29.0493V0.0218463ZM22.0425 3.38855L20.5865 7.60138L30.0379 10.868L31.4939 6.65514L22.0425 3.38855ZM25.6743 4.2478C25.5506 4.23882 25.2358 4.21494 24.8948 4.21494V14.2149C24.869 14.2149 24.8513 14.2145 24.8437 14.2142C24.8359 14.214 24.8344 14.2139 24.841 14.2142C24.8476 14.2146 24.8592 14.2152 24.8781 14.2165C24.8973 14.2178 24.9196 14.2193 24.9502 14.2215L25.6743 4.2478ZM24.8948 4.21494C24.5539 4.21494 24.239 4.23882 24.1154 4.2478L24.8395 14.2215C24.87 14.2193 24.8924 14.2178 24.9116 14.2165C24.9304 14.2152 24.942 14.2146 24.9486 14.2142C24.9552 14.2139 24.9538 14.214 24.946 14.2142C24.9383 14.2145 24.9206 14.2149 24.8948 14.2149V4.21494ZM29.201 7.59509L27.7352 3.3724L18.2882 6.65156L19.7539 10.8743L29.201 7.59509ZM24.8851 15.1917C24.4908 15.1917 24.3114 14.896 24.3114 14.6906H34.3114C34.3114 9.51277 30.1523 5.19168 24.8851 5.19168V15.1917ZM24.3114 14.6906C24.3114 14.6615 24.3164 14.6169 24.3316 14.5672C24.3465 14.5184 24.3642 14.4881 24.3703 14.4789L32.6994 20.013C33.7338 18.4562 34.3114 16.6297 34.3114 14.6906H24.3114ZM28.5349 12.2459H27.4671V22.2459H28.5349V12.2459ZM31.4344 20.2891C32.5455 18.8406 33.166 17.0524 33.166 15.1741H23.166C23.166 14.8348 23.2818 14.4871 23.4999 14.2028L31.4344 20.2891ZM33.166 15.1741C33.166 10.6252 29.5092 6.81959 24.8657 6.81959V16.8196C23.8526 16.8196 23.166 16.0133 23.166 15.1741H33.166ZM24.8657 6.81959C20.2127 6.81959 16.5654 10.6447 16.5654 15.1741H26.5654C26.5654 16.0135 25.8883 16.8196 24.8657 16.8196V6.81959ZM16.5654 15.1741C16.5654 17.0524 17.1859 18.8406 18.297 20.2891L26.2315 14.2028C26.4496 14.4871 26.5654 14.8348 26.5654 15.1741H16.5654ZM22.2643 12.2459H21.245V22.2459H22.2643V12.2459ZM25.3679 14.4172C25.4039 14.4697 25.4321 14.5292 25.4496 14.5871C25.4669 14.6441 25.4685 14.6816 25.4685 14.6906H15.4685C15.4685 16.5791 16.0094 18.4528 17.1222 20.0747L25.3679 14.4172ZM25.4685 14.6906C25.4685 14.8816 25.2936 15.1917 24.8851 15.1917V5.19168C19.6038 5.19168 15.4685 9.52716 15.4685 14.6906H25.4685ZM22.205 15.1741C22.205 14.2515 22.7063 13.3786 23.5185 12.9115L28.5037 21.5803C30.7913 20.2648 32.205 17.8331 32.205 15.1741H22.205ZM26.0111 12.2459H23.73V22.2459H26.0111V12.2459ZM26.2226 12.9115C27.0348 13.3786 27.5361 14.2515 27.5361 15.1741H17.5361C17.5361 17.8331 18.9497 20.2648 21.2374 21.5803L26.2226 12.9115ZM27.5361 15.1741C27.5361 16.5599 26.4087 17.8062 24.8657 17.8062V7.8062C20.76 7.8062 17.5361 11.1638 17.5361 15.1741H27.5361ZM24.8657 17.8062C23.3495 17.8062 22.205 16.5871 22.205 15.1741H32.205C32.205 11.1367 28.9445 7.8062 24.8657 7.8062V17.8062ZM20.7607 21.7252C20.7607 23.7584 19.1226 25.5412 16.9255 25.5412V15.5412C13.447 15.5412 10.7607 18.3896 10.7607 21.7252H20.7607ZM16.9255 25.5412H18.3718V15.5412H16.9255V25.5412ZM18.3718 25.5412H31.4178V15.5412H18.3718V25.5412ZM31.4178 25.5412H32.8641V15.5412H31.4178V25.5412ZM32.8641 25.5412C30.667 25.5412 29.029 23.7584 29.029 21.7252H39.029C39.029 18.3896 36.3426 15.5412 32.8641 15.5412V25.5412ZM29.029 21.7252V26.7963H39.029V21.7252H29.029ZM30.4648 23.2897L27.2227 26.585L34.3511 33.5983L37.5932 30.303L30.4648 23.2897ZM27.2227 26.585C27.653 26.1476 28.25 25.9006 28.8552 25.9006V35.9006C30.9164 35.9006 32.8918 35.0815 34.3511 33.5983L27.2227 26.585ZM28.8552 25.9006H21.876V35.9006H28.8552V25.9006ZM26.8456 30.3506C26.6414 28.5053 25.8409 26.6864 24.4306 25.253L17.3023 32.2663C17.0568 32.0169 16.9358 31.7174 16.9063 31.4507L26.8456 30.3506ZM24.4306 25.253L19.3248 20.0635L12.1965 27.0768L17.3023 32.2663L24.4306 25.253ZM20.7607 23.5701V21.7252H10.7607V23.5701H20.7607ZM40.4761 28.7639C39.5436 29.7116 38.018 29.7421 37.0475 28.7936L44.037 21.6419C41.0475 18.7202 36.2604 18.7901 33.3477 21.7506L40.4761 28.7639ZM37.0489 28.795C36.5432 28.3011 36.3266 27.6756 36.3193 27.1409L46.3184 27.0043C46.2916 25.0489 45.5314 23.1013 44.0356 21.6405L37.0489 28.795ZM36.3193 27.1391C36.3111 26.5217 36.5445 25.9684 36.9442 25.5542L44.1403 32.498C45.5301 31.0577 46.346 29.0836 46.3184 27.0061L36.3193 27.1391ZM36.9781 25.5194L35.9589 26.5554L43.0872 33.5687L44.1065 32.5327L36.9781 25.5194ZM43.0872 26.5554L42.1942 25.6477L35.0658 32.661L35.9589 33.5687L43.0872 26.5554ZM42.1942 25.6477C40.0411 23.4592 36.5298 23.4592 34.3767 25.6477L41.505 32.661C39.7402 34.4548 36.8307 34.4548 35.0658 32.661L42.1942 25.6477ZM34.3767 25.6477C32.2681 27.7908 32.2681 31.2183 34.3767 33.3615L41.505 26.3482C43.2253 28.0967 43.2253 30.9125 41.505 32.661L34.3767 25.6477ZM34.3767 33.3615L35.2697 34.2692L42.398 27.2559L41.505 26.3482L34.3767 33.3615ZM35.2697 27.2558L34.3281 28.2129L41.4565 35.2262L42.398 34.2692L35.2697 27.2558ZM41.4565 28.2129L39.7966 26.5258L32.6682 33.5391L34.3281 35.2262L41.4565 28.2129ZM39.7966 26.5258C37.6435 24.3373 34.1322 24.3373 31.9791 26.5258L39.1074 33.5391C37.3426 35.3329 34.4331 35.3329 32.6682 33.5391L39.7966 26.5258ZM31.9791 26.5258C29.8705 28.6689 29.8705 32.0964 31.9791 34.2396L39.1074 27.2263C40.8277 28.9748 40.8277 31.7906 39.1074 33.5391L31.9791 26.5258ZM31.9791 34.2396L33.6389 35.9267L40.7673 28.9134L39.1074 27.2263L31.9791 34.2396ZM33.6389 28.9134L32.6974 29.8704L39.8257 36.8837L40.7673 35.9267L33.6389 28.9134ZM39.8257 29.8704L38.9327 28.9627L31.8043 35.976L32.6974 36.8837L39.8257 29.8704ZM38.9327 28.9627C36.7796 26.7742 33.2683 26.7742 31.1152 28.9627L38.2435 35.976C36.4787 37.7698 33.5692 37.7698 31.8043 35.976L38.9327 28.9627ZM31.1152 28.9627C29.0066 31.1058 29.0066 34.5333 31.1152 36.6765L38.2435 29.6632C39.9638 31.4117 39.9638 34.2275 38.2435 35.976L31.1152 28.9627ZM31.1152 36.6765L32.0082 37.5842L39.1365 30.5709L38.2435 29.6632L31.1152 36.6765ZM32.0276 30.5512L31.1443 31.4392L38.2338 38.4918L39.1171 37.6038L32.0276 30.5512ZM31.1249 31.4588C30.663 31.9283 30.0817 32.1656 29.457 32.1656V42.1656C32.7734 42.1656 35.9195 40.8441 38.2532 38.4721L31.1249 31.4588ZM29.457 32.1656H6.80123V42.1656H29.457V32.1656ZM11.6659 38.3209C11.8146 37.695 11.908 37.0104 11.908 36.2777H1.908C1.908 36.1566 1.92377 36.064 1.93653 36.0103L11.6659 38.3209ZM11.908 36.2777V24.0042H1.908V36.2777H11.908ZM11.908 24.0042C11.908 23.2715 11.8146 22.5869 11.6659 21.961L1.93653 24.2716C1.92378 24.2179 1.908 24.1253 1.908 24.0042H11.908ZM6.80123 28.1163H12.8001V18.1163H6.80123V28.1163ZM12.8001 28.1163C12.1949 28.1163 11.5979 27.8694 11.1676 27.432L18.2959 20.4186C16.8366 18.9354 14.8613 18.1163 12.8001 18.1163V28.1163ZM11.1676 27.4319L16.6228 32.9767L23.7512 25.9634L18.2959 20.4186L11.1676 27.4319ZM16.6228 32.9767C15.7323 32.0716 15.7076 30.6604 16.5936 29.7238L23.858 36.5961C26.6854 33.6074 26.6219 28.8812 23.7512 25.9634L16.6228 32.9767ZM16.5923 29.7253C17.0803 29.209 17.7324 28.9582 18.3303 28.9498L18.4715 38.9488C20.4672 38.9206 22.42 38.1173 23.8594 36.5947L16.5923 29.7253ZM18.3323 28.9497C19.0151 28.9404 19.5986 29.2099 20.0089 29.6189L12.949 36.7011C14.3688 38.1164 16.3501 38.9779 18.4696 38.9488L18.3323 28.9497ZM20.0389 29.6491L15.9815 25.5349L8.86152 32.5567L12.919 36.6709L20.0389 29.6491ZM15.9857 25.5392C13.8326 23.3507 10.3213 23.3507 8.16813 25.5392L15.2965 32.5525C13.5316 34.3463 10.6222 34.3463 8.85732 32.5525L15.9857 25.5392ZM8.16813 25.5392C6.05957 27.6823 6.05957 31.1098 8.16813 33.253L15.2965 26.2396C17.0168 27.9882 17.0168 30.8039 15.2965 32.5525L8.16813 25.5392ZM8.16813 33.253L12.2062 37.3573L19.3345 30.3439L15.2965 26.2396L8.16813 33.253ZM12.2062 37.3573C13.8212 38.9988 16.045 39.9359 18.3524 39.9359V29.9359C18.7378 29.9359 19.0785 30.0837 19.3345 30.3439L12.2062 37.3573ZM18.3524 39.9359C18.3524 39.9359 18.3524 39.9359 18.3524 39.9359C18.3525 39.9359 18.3525 39.9359 18.3525 39.9359C18.3525 39.9359 18.3525 39.9359 18.3526 39.9359C18.3526 39.9359 18.3526 39.9359 18.3526 39.9359C18.3526 39.9359 18.3527 39.9359 18.3527 39.9359C18.3527 39.9359 18.3527 39.9359 18.3527 39.9359C18.3528 39.9359 18.3528 39.9359 18.3528 39.9359C18.3528 39.9359 18.3528 39.9359 18.3528 39.9359C18.3529 39.9359 18.3529 39.9359 18.3529 39.9359C18.3529 39.9359 18.3529 39.9359 18.353 39.9359C18.353 39.9359 18.353 39.9359 18.353 39.9359C18.353 39.9359 18.3531 39.9359 18.3531 39.9359C18.3531 39.9359 18.3531 39.9359 18.3531 39.9359C18.3531 39.9359 18.3532 39.9359 18.3532 39.9359C18.3532 39.9359 18.3532 39.9359 18.3532 39.9359C18.3533 39.9359 18.3533 39.9359 18.3533 39.9359C18.3533 39.9359 18.3533 39.9359 18.3534 39.9359C18.3534 39.9359 18.3534 39.9359 18.3534 39.9359C18.3534 39.9359 18.3535 39.9359 18.3535 39.9359C18.3535 39.9359 18.3535 39.9359 18.3535 39.9359C18.3535 39.9359 18.3536 39.9359 18.3536 39.9359C18.3536 39.9359 18.3536 39.9359 18.3536 39.9359C18.3537 39.9359 18.3537 39.9359 18.3537 39.9359C18.3537 39.9359 18.3537 39.9359 18.3538 39.9359C18.3538 39.9359 18.3538 39.9359 18.3538 39.9359C18.3538 39.9359 18.3539 39.9359 18.3539 39.9359C18.3539 39.9359 18.3539 39.9359 18.3539 39.9359C18.3539 39.9359 18.354 39.9359 18.354 39.9359C18.354 39.9359 18.354 39.9359 18.354 39.9359C18.3541 39.9359 18.3541 39.9359 18.3541 39.9359C18.3541 39.9359 18.3541 39.9359 18.3542 39.9359C18.3542 39.9359 18.3542 39.9359 18.3542 39.9359C18.3542 39.9359 18.3543 39.9359 18.3543 39.9359C18.3543 39.9359 18.3543 39.9359 18.3543 39.9359C18.3543 39.9359 18.3544 39.9359 18.3544 39.9359C18.3544 39.9359 18.3544 39.9359 18.3544 39.9359C18.3545 39.9359 18.3545 39.9359 18.3545 39.9359C18.3545 39.9359 18.3545 39.9359 18.3546 39.9359C18.3546 39.9359 18.3546 39.9359 18.3546 39.9359C18.3546 39.9359 18.3547 39.9359 18.3547 39.9359C18.3547 39.9359 18.3547 39.9359 18.3547 39.9359C18.3547 39.9359 18.3548 39.9359 18.3548 39.9359C18.3548 39.9359 18.3548 39.9359 18.3548 39.9359C18.3549 39.9359 18.3549 39.9359 18.3549 39.9359C18.3549 39.9359 18.3549 39.9359 18.355 39.9359C18.355 39.9359 18.355 39.9359 18.355 39.9359C18.355 39.9359 18.3551 39.9359 18.3551 39.9359C18.3551 39.9359 18.3551 39.9359 18.3551 39.9359C18.3551 39.9359 18.3552 39.9359 18.3552 39.9359C18.3552 39.9359 18.3552 39.9359 18.3552 39.9359C18.3553 39.9359 18.3553 39.9359 18.3553 39.9359C18.3553 39.9359 18.3553 39.9359 18.3554 39.9359C18.3554 39.9359 18.3554 39.9359 18.3554 39.9359C18.3554 39.9359 18.3555 39.9359 18.3555 39.9359C18.3555 39.9359 18.3555 39.9359 18.3555 39.9359C18.3556 39.9359 18.3556 39.9359 18.3556 39.9359C18.3556 39.9359 18.3556 39.9359 18.3556 39.9359C18.3557 39.9359 18.3557 39.9359 18.3557 39.9359C18.3557 39.9359 18.3557 39.9359 18.3558 39.9359C18.3558 39.9359 18.3558 39.9359 18.3558 39.9359C18.3558 39.9359 18.3559 39.9359 18.3559 39.9359C18.3559 39.9359 18.3559 39.9359 18.3559 39.9359C18.356 39.9359 18.356 39.9359 18.356 39.9359C18.356 39.9359 18.356 39.9359 18.3561 39.9359C18.3561 39.9359 18.3561 39.9359 18.3561 39.9359C18.3561 39.9359 18.3561 39.9359 18.3562 39.9359C18.3562 39.9359 18.3562 39.9359 18.3562 39.9359C18.3562 39.9359 18.3563 39.9359 18.3563 39.9359C18.3563 39.9359 18.3563 39.9359 18.3563 39.9359C18.3564 39.9359 18.3564 39.9359 18.3564 39.9359C18.3564 39.9359 18.3564 39.9359 18.3565 39.9359C18.3565 39.9359 18.3565 39.9359 18.3565 39.9359C18.3565 39.9359 18.3566 39.9359 18.3566 39.9359C18.3566 39.9359 18.3566 39.9359 18.3566 39.9359C18.3566 39.9359 18.3567 39.9359 18.3567 39.9359C18.3567 39.9359 18.3567 39.9359 18.3567 39.9359C18.3568 39.9359 18.3568 39.9359 18.3568 39.9359C18.3568 39.9359 18.3568 39.9359 18.3569 39.9359C18.3569 39.9359 18.3569 39.9359 18.3569 39.9359C18.3569 39.9359 18.357 39.9359 18.357 39.9359C18.357 39.9359 18.357 39.9359 18.357 39.9359C18.3571 39.9359 18.3571 39.9359 18.3571 39.9359C18.3571 39.9359 18.3571 39.9359 18.3572 39.9359C18.3572 39.9359 18.3572 39.9359 18.3572 39.9359C18.3572 39.9359 18.3573 39.9359 18.3573 39.9359C18.3573 39.9359 18.3573 39.9359 18.3573 39.9359C18.3573 39.9359 18.3574 39.9359 18.3574 39.9359C18.3574 39.9359 18.3574 39.9359 18.3574 39.9359C18.3575 39.9359 18.3575 39.9359 18.3575 39.9359C18.3575 39.9359 18.3575 39.9359 18.3576 39.9359C18.3576 39.9359 18.3576 39.9359 18.3576 39.9359C18.3576 39.9359 18.3577 39.9359 18.3577 39.9359C18.3577 39.9359 18.3577 39.9359 18.3577 39.9359C18.3578 39.9359 18.3578 39.9359 18.3578 39.9359C18.3578 39.9359 18.3578 39.9359 18.3579 39.9359C18.3579 39.9359 18.3579 39.9359 18.3579 39.9359C18.3579 39.9359 18.358 39.9359 18.358 39.9359C18.358 39.9359 18.358 39.9359 18.358 39.9359C18.3581 39.9359 18.3581 39.9359 18.3581 39.9359C18.3581 39.9359 18.3581 39.9359 18.3582 39.9359C18.3582 39.9359 18.3582 39.9359 18.3582 39.9359C18.3582 39.9359 18.3582 39.9359 18.3583 39.9359C18.3583 39.9359 18.3583 39.9359 18.3583 39.9359C18.3583 39.9359 18.3584 39.9359 18.3584 39.9359C18.3584 39.9359 18.3584 39.9359 18.3584 39.9359C18.3585 39.9359 18.3585 39.9359 18.3585 39.9359C18.3585 39.9359 18.3585 39.9359 18.3586 39.9359C18.3586 39.9359 18.3586 39.9359 18.3586 39.9359C18.3586 39.9359 18.3587 39.9359 18.3587 39.9359C18.3587 39.9359 18.3587 39.9359 18.3587 39.9359C18.3588 39.9359 18.3588 39.9359 18.3588 39.9359C18.3588 39.9359 18.3588 39.9359 18.3589 39.9359C18.3589 39.9359 18.3589 39.9359 18.3589 39.9359C18.3589 39.9359 18.359 39.9359 18.359 39.9359C18.359 39.9359 18.359 39.9359 18.359 39.9359C18.3591 39.9359 18.3591 39.9359 18.3591 39.9359C18.3591 39.9359 18.3591 39.9359 18.3592 39.9359C18.3592 39.9359 18.3592 39.9359 18.3592 39.9359C18.3592 39.9359 18.3593 39.9359 18.3593 39.9359C18.3593 39.9359 18.3593 39.9359 18.3593 39.9359C18.3594 39.9359 18.3594 39.9359 18.3594 39.9359C18.3594 39.9359 18.3594 39.9359 18.3595 39.9359C18.3595 39.9359 18.3595 39.9359 18.3595 39.9359C18.3595 39.9359 18.3596 39.9359 18.3596 39.9359C18.3596 39.9359 18.3596 39.9359 18.3596 39.9359C18.3597 39.9359 18.3597 39.9359 18.3597 39.9359C18.3597 39.9359 18.3597 39.9359 18.3598 39.9359C18.3598 39.9359 18.3598 39.9359 18.3598 39.9359C18.3598 39.9359 18.3599 39.9359 18.3599 39.9359C18.3599 39.9359 18.3599 39.9359 18.3599 39.9359C18.36 39.9359 18.36 39.9359 18.36 39.9359C18.36 39.9359 18.36 39.9359 18.3601 39.9359C18.3601 39.9359 18.3601 39.9359 18.3601 39.9359C18.3601 39.9359 18.3602 39.9359 18.3602 39.9359C18.3602 39.9359 18.3602 39.9359 18.3602 39.9359C18.3603 39.9359 18.3603 39.9359 18.3603 39.9359C18.3603 39.9359 18.3603 39.9359 18.3604 39.9359C18.3604 39.9359 18.3604 39.9359 18.3604 39.9359C18.3605 39.9359 18.3605 39.9359 18.3605 39.9359C18.3605 39.9359 18.3605 39.9359 18.3606 39.9359C18.3606 39.9359 18.3606 39.9359 18.3606 39.9359C18.3606 39.9359 18.3607 39.9359 18.3607 39.9359C18.3607 39.9359 18.3607 39.9359 18.3607 39.9359C18.3608 39.9359 18.3608 39.9359 18.3608 39.9359C18.3608 39.9359 18.3608 39.9359 18.3609 39.9359C18.3609 39.9359 18.3609 39.9359 18.3609 39.9359C18.3609 39.9359 18.361 39.9359 18.361 39.9359C18.361 39.9359 18.361 39.9359 18.361 39.9359C18.3611 39.9359 18.3611 39.9359 18.3611 39.9359C18.3611 39.9359 18.3611 39.9359 18.3612 39.9359C18.3612 39.9359 18.3612 39.9359 18.3612 39.9359C18.3612 39.9359 18.3613 39.9359 18.3613 39.9359C18.3613 39.9359 18.3613 39.9359 18.3614 39.9359C18.3614 39.9359 18.3614 39.9359 18.3614 39.9359C18.3614 39.9359 18.3615 39.9359 18.3615 39.9359C18.3615 39.9359 18.3615 39.9359 18.3615 39.9359C18.3616 39.9359 18.3616 39.9359 18.3616 39.9359C18.3616 39.9359 18.3616 39.9359 18.3617 39.9359C18.3617 39.9359 18.3617 39.9359 18.3617 39.9359C18.3617 39.9359 18.3618 39.9359 18.3618 39.9359C18.3618 39.9359 18.3618 39.9359 18.3619 39.9359C18.3619 39.9359 18.3619 39.9359 18.3619 39.9359C18.3619 39.9359 18.362 39.9359 18.362 39.9359C18.362 39.9359 18.362 39.9359 18.362 39.9359C18.3621 39.9359 18.3621 39.9359 18.3621 39.9359C18.3621 39.9359 18.3621 39.9359 18.3622 39.9359C18.3622 39.9359 18.3622 39.9359 18.3622 39.9359C18.3622 39.9359 18.3623 39.9359 18.3623 39.9359C18.3623 39.9359 18.3623 39.9359 18.3624 39.9359C18.3624 39.9359 18.3624 39.9359 18.3624 39.9359C18.3624 39.9359 18.3625 39.9359 18.3625 39.9359C18.3625 39.9359 18.3625 39.9359 18.3625 39.9359C18.3626 39.9359 18.3626 39.9359 18.3626 39.9359C18.3626 39.9359 18.3626 39.9359 18.3627 39.9359C18.3627 39.9359 18.3627 39.9359 18.3627 39.9359C18.3628 39.9359 18.3628 39.9359 18.3628 39.9359C18.3628 39.9359 18.3628 39.9359 18.3629 39.9359C18.3629 39.9359 18.3629 39.9359 18.3629 39.9359C18.3629 39.9359 18.363 39.9359 18.363 39.9359C18.363 39.9359 18.363 39.9359 18.3631 39.9359C18.3631 39.9359 18.3631 39.9359 18.3631 39.9359C18.3631 39.9359 18.3632 39.9359 18.3632 39.9359C18.3632 39.9359 18.3632 39.9359 18.3632 39.9359C18.3633 39.9359 18.3633 39.9359 18.3633 39.9359C18.3633 39.9359 18.3633 39.9359 18.3634 39.9359C18.3634 39.9359 18.3634 39.9359 18.3634 39.9359C18.3635 39.9359 18.3635 39.9359 18.3635 39.9359C18.3635 39.9359 18.3635 39.9359 18.3636 39.9359C18.3636 39.9359 18.3636 39.9359 18.3636 39.9359C18.3637 39.9359 18.3637 39.9359 18.3637 39.9359C18.3637 39.9359 18.3637 39.9359 18.3638 39.9359C18.3638 39.9359 18.3638 39.9359 18.3638 39.9359C18.3638 39.9359 18.3639 39.9359 18.3639 39.9359C18.3639 39.9359 18.3639 39.9359 18.364 39.9359C18.364 39.9359 18.364 39.9359 18.364 39.9359C18.364 39.9359 18.3641 39.9359 18.3641 39.9359C18.3641 39.9359 18.3641 39.9359 18.3641 39.9359C18.3642 39.9359 18.3642 39.9359 18.3642 39.9359C18.3642 39.9359 18.3643 39.9359 18.3643 39.9359C18.3643 39.9359 18.3643 39.9359 18.3643 39.9359C18.3644 39.9359 18.3644 39.9359 18.3644 39.9359C18.3644 39.9359 18.3645 39.9359 18.3645 39.9359C18.3645 39.9359 18.3645 39.9359 18.3645 39.9359C18.3646 39.9359 18.3646 39.9359 18.3646 39.9359C18.3646 39.9359 18.3647 39.9359 18.3647 39.9359C18.3647 39.9359 18.3647 39.9359 18.3647 39.9359C18.3648 39.9359 18.3648 39.9359 18.3648 39.9359C18.3648 39.9359 18.3649 39.9359 18.3649 39.9359C18.3649 39.9359 18.3649 39.9359 18.3649 39.9359C18.365 39.9359 18.365 39.9359 18.365 39.9359C18.365 39.9359 18.365 39.9359 18.3651 39.9359C18.3651 39.9359 18.3651 39.9359 18.3651 39.9359C18.3652 39.9359 18.3652 39.9359 18.3652 39.9359C18.3652 39.9359 18.3652 39.9359 18.3653 39.9359C18.3653 39.9359 18.3653 39.9359 18.3653 39.9359C18.3654 39.9359 18.3654 39.9359 18.3654 39.9359C18.3654 39.9359 18.3654 39.9359 18.3655 39.9359C18.3655 39.9359 18.3655 39.9359 18.3655 39.9359C18.3656 39.9359 18.3656 39.9359 18.3656 39.9359C18.3656 39.9359 18.3657 39.9359 18.3657 39.9359C18.3657 39.9359 18.3657 39.9359 18.3657 39.9359C18.3658 39.9359 18.3658 39.9359 18.3658 39.9359C18.3658 39.9359 18.3659 39.9359 18.3659 39.9359C18.3659 39.9359 18.3659 39.9359 18.3659 39.9359C18.366 39.9359 18.366 39.9359 18.366 39.9359C18.366 39.9359 18.3661 39.9359 18.3661 39.9359C18.3661 39.9359 18.3661 39.9359 18.3661 39.9359C18.3662 39.9359 18.3662 39.9359 18.3662 39.9359C18.3662 39.9359 18.3663 39.9359 18.3663 39.9359C18.3663 39.9359 18.3663 39.9359 18.3664 39.9359C18.3664 39.9359 18.3664 39.9359 18.3664 39.9359C18.3664 39.9359 18.3665 39.9359 18.3665 39.9359C18.3665 39.9359 18.3665 39.9359 18.3666 39.9359C18.3666 39.9359 18.3666 39.9359 18.3666 39.9359C18.3666 39.9359 18.3667 39.9359 18.3667 39.9359C18.3667 39.9359 18.3667 39.9359 18.3668 39.9359C18.3668 39.9359 18.3668 39.9359 18.3668 39.9359C18.3669 39.9359 18.3669 39.9359 18.3669 39.9359C18.3669 39.9359 18.3669 39.9359 18.367 39.9359C18.367 39.9359 18.367 39.9359 18.367 39.9359C18.3671 39.9359 18.3671 39.9359 18.3671 39.9359C18.3671 39.9359 18.3672 39.9359 18.3672 39.9359C18.3672 39.9359 18.3672 39.9359 18.3673 39.9359C18.3673 39.9359 18.3673 39.9359 18.3673 39.9359C18.3673 39.9359 18.3674 39.9359 18.3674 39.9359C18.3674 39.9359 18.3674 39.9359 18.3675 39.9359C18.3675 39.9359 18.3675 39.9359 18.3675 39.9359C18.3676 39.9359 18.3676 39.9359 18.3676 39.9359C18.3676 39.9359 18.3676 39.9359 18.3677 39.9359C18.3677 39.9359 18.3677 39.9359 18.3677 39.9359C18.3678 39.9359 18.3678 39.9359 18.3678 39.9359C18.3678 39.9359 18.3679 39.9359 18.3679 39.9359C18.3679 39.9359 18.3679 39.9359 18.368 39.9359C18.368 39.9359 18.368 39.9359 18.368 39.9359C18.368 39.9359 18.3681 39.9359 18.3681 39.9359C18.3681 39.9359 18.3681 39.9359 18.3682 39.9359C18.3682 39.9359 18.3682 39.9359 18.3682 39.9359C18.3683 39.9359 18.3683 39.9359 18.3683 39.9359C18.3683 39.9359 18.3684 39.9359 18.3684 39.9359C18.3684 39.9359 18.3684 39.9359 18.3685 39.9359C18.3685 39.9359 18.3685 39.9359 18.3685 39.9359C18.3685 39.9359 18.3686 39.9359 18.3686 39.9359C18.3686 39.9359 18.3686 39.9359 18.3687 39.9359C18.3687 39.9359 18.3687 39.9359 18.3687 39.9359C18.3688 39.9359 18.3688 39.9359 18.3688 39.9359C18.3688 39.9359 18.3689 39.9359 18.3689 39.9359C18.3689 39.9359 18.3689 39.9359 18.369 39.9359C18.369 39.9359 18.369 39.9359 18.369 39.9359C18.3691 39.9359 18.3691 39.9359 18.3691 39.9359C18.3691 39.9359 18.3691 39.9359 18.3692 39.9359C18.3692 39.9359 18.3692 39.9359 18.3692 39.9359C18.3693 39.9359 18.3693 39.9359 18.3693 39.9359C18.3693 39.9359 18.3694 39.9359 18.3694 39.9359C18.3694 39.9359 18.3694 39.9359 18.3695 39.9359C18.3695 39.9359 18.3695 39.9359 18.3695 39.9359C18.3696 39.9359 18.3696 39.9359 18.3696 39.9359C18.3696 39.9359 18.3697 39.9359 18.3697 39.9359C18.3697 39.9359 18.3697 39.9359 18.3698 39.9359C18.3698 39.9359 18.3698 39.9359 18.3698 39.9359C18.3699 39.9359 18.3699 39.9359 18.3699 39.9359C18.3699 39.9359 18.37 39.9359 18.37 39.9359C18.37 39.9359 18.37 39.9359 18.3701 39.9359C18.3701 39.9359 18.3701 39.9359 18.3701 39.9359C18.3702 39.9359 18.3702 39.9359 18.3702 39.9359C18.3702 39.9359 18.3703 39.9359 18.3703 39.9359C18.3703 39.9359 18.3703 39.9359 18.3703 39.9359C18.3704 39.9359 18.3704 39.9359 18.3704 39.9359C18.3704 39.9359 18.3705 39.9359 18.3705 39.9359C18.3705 39.9359 18.3705 39.9359 18.3706 39.9359C18.3706 39.9359 18.3706 39.9359 18.3706 39.9359C18.3707 39.9359 18.3707 39.9359 18.3707 39.9359C18.3707 39.9359 18.3708 39.9359 18.3708 39.9359C18.3708 39.9359 18.3708 39.9359 18.3709 39.9359C18.3709 39.9359 18.3709 39.9359 18.371 39.9359C18.371 39.9359 18.371 39.9359 18.371 39.9359C18.3711 39.9359 18.3711 39.9359 18.3711 39.9359C18.3711 39.9359 18.3712 39.9359 18.3712 39.9359C18.3712 39.9359 18.3712 39.9359 18.3713 39.9359C18.3713 39.9359 18.3713 39.9359 18.3713 39.9359C18.3714 39.9359 18.3714 39.9359 18.3714 39.9359C18.3714 39.9359 18.3715 39.9359 18.3715 39.9359C18.3715 39.9359 18.3715 39.9359 18.3716 39.9359C18.3716 39.9359 18.3716 39.9359 18.3716 39.9359C18.3717 39.9359 18.3717 39.9359 18.3717 39.9359C18.3717 39.9359 18.3718 39.9359 18.3718 39.9359C18.3718 39.9359 18.3718 39.9359 18.3719 39.9359C18.3719 39.9359 18.3719 39.9359 18.3719 39.9359C18.372 39.9359 18.372 39.9359 18.372 39.9359C18.372 39.9359 18.3721 39.9359 18.3721 39.9359C18.3721 39.9359 18.3722 39.9359 18.3722 39.9359C18.3722 39.9359 18.3722 39.9359 18.3723 39.9359C18.3723 39.9359 18.3723 39.9359 18.3723 39.9359C18.3724 39.9359 18.3724 39.9359 18.3724 39.9359C18.3724 39.9359 18.3725 39.9359 18.3725 39.9359C18.3725 39.9359 18.3725 39.9359 18.3726 39.9359C18.3726 39.9359 18.3726 39.9359 18.3726 39.9359C18.3727 39.9359 18.3727 39.9359 18.3727 39.9359C18.3728 39.9359 18.3728 39.9359 18.3728 39.9359C18.3728 39.9359 18.3729 39.9359 18.3729 39.9359C18.3729 39.9359 18.3729 39.9359 18.373 39.9359C18.373 39.9359 18.373 39.9359 18.373 39.9359C18.3731 39.9359 18.3731 39.9359 18.3731 39.9359C18.3731 39.9359 18.3732 39.9359 18.3732 39.9359C18.3732 39.9359 18.3733 39.9359 18.3733 39.9359C18.3733 39.9359 18.3733 39.9359 18.3734 39.9359C18.3734 39.9359 18.3734 39.9359 18.3734 39.9359C18.3735 39.9359 18.3735 39.9359 18.3735 39.9359C18.3735 39.9359 18.3736 39.9359 18.3736 39.9359C18.3736 39.9359 18.3737 39.9359 18.3737 39.9359C18.3737 39.9359 18.3737 39.9359 18.3738 39.9359C18.3738 39.9359 18.3738 39.9359 18.3738 39.9359C18.3739 39.9359 18.3739 39.9359 18.3739 39.9359C18.3739 39.9359 18.374 39.9359 18.374 39.9359C18.374 39.9359 18.3741 39.9359 18.3741 39.9359C18.3741 39.9359 18.3741 39.9359 18.3742 39.9359C18.3742 39.9359 18.3742 39.9359 18.3742 39.9359C18.3743 39.9359 18.3743 39.9359 18.3743 39.9359C18.3744 39.9359 18.3744 39.9359 18.3744 39.9359C18.3744 39.9359 18.3745 39.9359 18.3745 39.9359C18.3745 39.9359 18.3745 39.9359 18.3746 39.9359C18.3746 39.9359 18.3746 39.9359 18.3747 39.9359C18.3747 39.9359 18.3747 39.9359 18.3747 39.9359C18.3748 39.9359 18.3748 39.9359 18.3748 39.9359C18.3748 39.9359 18.3749 39.9359 18.3749 39.9359C18.3749 39.9359 18.375 39.9359 18.375 39.9359C18.375 39.9359 18.375 39.9359 18.3751 39.9359C18.3751 39.9359 18.3751 39.9359 18.3751 39.9359C18.3752 39.9359 18.3752 39.9359 18.3752 39.9359C18.3753 39.9359 18.3753 39.9359 18.3753 39.9359C18.3753 39.9359 18.3754 39.9359 18.3754 39.9359C18.3754 39.9359 18.3755 39.9359 18.3755 39.9359C18.3755 39.9359 18.3755 39.9359 18.3756 39.9359C18.3756 39.9359 18.3756 39.9359 18.3757 39.9359C18.3757 39.9359 18.3757 39.9359 18.3757 39.9359C18.3758 39.9359 18.3758 39.9359 18.3758 39.9359C18.3758 39.9359 18.3759 39.9359 18.3759 39.9359C18.3759 39.9359 18.376 39.9359 18.376 39.9359C18.376 39.9359 18.376 39.9359 18.3761 39.9359C18.3761 39.9359 18.3761 39.9359 18.3762 39.9359C18.3762 39.9359 18.3762 39.9359 18.3762 39.9359C18.3763 39.9359 18.3763 39.9359 18.3763 39.9359C18.3764 39.9359 18.3764 39.9359 18.3764 39.9359C18.3764 39.9359 18.3765 39.9359 18.3765 39.9359C18.3765 39.9359 18.3766 39.9359 18.3766 39.9359C18.3766 39.9359 18.3766 39.9359 18.3767 39.9359C18.3767 39.9359 18.3767 39.9359 18.3768 39.9359C18.3768 39.9359 18.3768 39.9359 18.3768 39.9359C18.3769 39.9359 18.3769 39.9359 18.3769 39.9359C18.377 39.9359 18.377 39.9359 18.377 39.9359C18.377 39.9359 18.3771 39.9359 18.3771 39.9359C18.3771 39.9359 18.3772 39.9359 18.3772 39.9359C18.3772 39.9359 18.3772 39.9359 18.3773 39.9359C18.3773 39.9359 18.3773 39.9359 18.3774 39.9359C18.3774 39.9359 18.3774 39.9359 18.3774 39.9359C18.3775 39.9359 18.3775 39.9359 18.3775 39.9359C18.3776 39.9359 18.3776 39.9359 18.3776 39.9359C18.3776 39.9359 18.3777 39.9359 18.3777 39.9359C18.3777 39.9359 18.3778 39.9359 18.3778 39.9359C18.3778 39.9359 18.3779 39.9359 18.3779 39.9359C18.3779 39.9359 18.3779 39.9359 18.378 39.9359C18.378 39.9359 18.378 39.9359 18.3781 39.9359C18.3781 39.9359 18.3781 39.9359 18.3781 39.9359C18.3782 39.9359 18.3782 39.9359 18.3782 39.9359C18.3783 39.9359 18.3783 39.9359 18.3783 39.9359C18.3784 39.9359 18.3784 39.9359 18.3784 39.9359C18.3784 39.9359 18.3785 39.9359 18.3785 39.9359C18.3785 39.9359 18.3786 39.9359 18.3786 39.9359C18.3786 39.9359 18.3787 39.9359 18.3787 39.9359C18.3787 39.9359 18.3787 39.9359 18.3788 39.9359C18.3788 39.9359 18.3788 39.9359 18.3789 39.9359C18.3789 39.9359 18.3789 39.9359 18.379 39.9359C18.379 39.9359 18.379 39.9359 18.379 39.9359C18.3791 39.9359 18.3791 39.9359 18.3791 39.9359C18.3792 39.9359 18.3792 39.9359 18.3792 39.9359C18.3793 39.9359 18.3793 39.9359 18.3793 39.9359C18.3793 39.9359 18.3794 39.9359 18.3794 39.9359C18.3794 39.9359 18.3795 39.9359 18.3795 39.9359C18.3795 39.9359 18.3796 39.9359 18.3796 39.9359C18.3796 39.9359 18.3796 39.9359 18.3797 39.9359C18.3797 39.9359 18.3797 39.9359 18.3798 39.9359C18.3798 39.9359 18.3798 39.9359 18.3799 39.9359C18.3799 39.9359 18.3799 39.9359 18.38 39.9359C18.38 39.9359 18.38 39.9359 18.38 39.9359C18.3801 39.9359 18.3801 39.9359 18.3801 39.9359C18.3802 39.9359 18.3802 39.9359 18.3802 39.9359C18.3803 39.9359 18.3803 39.9359 18.3803 39.9359C18.3804 39.9359 18.3804 39.9359 18.3804 39.9359C18.3804 39.9359 18.3805 39.9359 18.3805 39.9359C18.3805 39.9359 18.3806 39.9359 18.3806 39.9359C18.3806 39.9359 18.3807 39.9359 18.3807 39.9359C18.3807 39.9359 18.3808 39.9359 18.3808 39.9359C18.3808 39.9359 18.3808 39.9359 18.3809 39.9359C18.3809 39.9359 18.3809 39.9359 18.381 39.9359C18.381 39.9359 18.381 39.9359 18.3811 39.9359C18.3811 39.9359 18.3811 39.9359 18.3812 39.9359C18.3812 39.9359 18.3812 39.9359 18.3813 39.9359C18.3813 39.9359 18.3813 39.9359 18.3814 39.9359C18.3814 39.9359 18.3814 39.9359 18.3814 39.9359C18.3815 39.9359 18.3815 39.9359 18.3815 39.9359C18.3816 39.9359 18.3816 39.9359 18.3816 39.9359C18.3817 39.9359 18.3817 39.9359 18.3817 39.9359C18.3818 39.9359 18.3818 39.9359 18.3818 39.9359C18.3819 39.9359 18.3819 39.9359 18.3819 39.9359C18.382 39.9359 18.382 39.9359 18.382 39.9359C18.3821 39.9359 18.3821 39.9359 18.3821 39.9359C18.3821 39.9359 18.3822 39.9359 18.3822 39.9359C18.3822 39.9359 18.3823 39.9359 18.3823 39.9359C18.3823 39.9359 18.3824 39.9359 18.3824 39.9359C18.3824 39.9359 18.3825 39.9359 18.3825 39.9359C18.3825 39.9359 18.3826 39.9359 18.3826 39.9359C18.3826 39.9359 18.3827 39.9359 18.3827 39.9359C18.3827 39.9359 18.3828 39.9359 18.3828 39.9359C18.3828 39.9359 18.3829 39.9359 18.3829 39.9359C18.3829 39.9359 18.383 39.9359 18.383 39.9359C18.383 39.9359 18.3831 39.9359 18.3831 39.9359C18.3831 39.9359 18.3832 39.9359 18.3832 39.9359C18.3832 39.9359 18.3832 39.9359 18.3833 39.9359C18.3833 39.9359 18.3833 39.9359 18.3834 39.9359C18.3834 39.9359 18.3834 39.9359 18.3835 39.9359C18.3835 39.9359 18.3835 39.9359 18.3836 39.9359C18.3836 39.9359 18.3836 39.9359 18.3837 39.9359C18.3837 39.9359 18.3837 39.9359 18.3838 39.9359C18.3838 39.9359 18.3838 39.9359 18.3839 39.9359C18.3839 39.9359 18.3839 39.9359 18.384 39.9359C18.384 39.9359 18.384 39.9359 18.3841 39.9359C18.3841 39.9359 18.3841 39.9359 18.3842 39.9359C18.3842 39.9359 18.3842 39.9359 18.3843 39.9359C18.3843 39.9359 18.3843 39.9359 18.3844 39.9359C18.3844 39.9359 18.3844 39.9359 18.3845 39.9359C18.3845 39.9359 18.3845 39.9359 18.3846 39.9359C18.3846 39.9359 18.3846 39.9359 18.3847 39.9359C18.3847 39.9359 18.3847 39.9359 18.3848 39.9359C18.3848 39.9359 18.3848 39.9359 18.3849 39.9359C18.3849 39.9359 18.3849 39.9359 18.385 39.9359C18.385 39.9359 18.385 39.9359 18.3851 39.9359C18.3851 39.9359 18.3852 39.9359 18.3852 39.9359C18.3852 39.9359 18.3853 39.9359 18.3853 39.9359C18.3853 39.9359 18.3854 39.9359 18.3854 39.9359C18.3854 39.9359 18.3855 39.9359 18.3855 39.9359C18.3855 39.9359 18.3856 39.9359 18.3856 39.9359C18.3856 39.9359 18.3857 39.9359 18.3857 39.9359C18.3857 39.9359 18.3858 39.9359 18.3858 39.9359C18.3858 39.9359 18.3859 39.9359 18.3859 39.9359C18.3859 39.9359 18.386 39.9359 18.386 39.9359C18.386 39.9359 18.3861 39.9359 18.3861 39.9359C18.3861 39.9359 18.3862 39.9359 18.3862 39.9359C18.3862 39.9359 18.3863 39.9359 18.3863 39.9359C18.3864 39.9359 18.3864 39.9359 18.3864 39.9359C18.3865 39.9359 18.3865 39.9359 18.3865 39.9359C18.3866 39.9359 18.3866 39.9359 18.3866 39.9359C18.3867 39.9359 18.3867 39.9359 18.3867 39.9359C18.3868 39.9359 18.3868 39.9359 18.3868 39.9359C18.3869 39.9359 18.3869 39.9359 18.3869 39.9359C18.387 39.9359 18.387 39.9359 18.3871 39.9359C18.3871 39.9359 18.3871 39.9359 18.3872 39.9359C18.3872 39.9359 18.3872 39.9359 18.3873 39.9359C18.3873 39.9359 18.3873 39.9359 18.3874 39.9359C18.3874 39.9359 18.3874 39.9359 18.3875 39.9359C18.3875 39.9359 18.3875 39.9359 18.3876 39.9359C18.3876 39.9359 18.3877 39.9359 18.3877 39.9359C18.3877 39.9359 18.3878 39.9359 18.3878 39.9359C18.3878 39.9359 18.3879 39.9359 18.3879 39.9359C18.3879 39.9359 18.388 39.9359 18.388 39.9359C18.388 39.9359 18.3881 39.9359 18.3881 39.9359C18.3882 39.9359 18.3882 39.9359 18.3882 39.9359C18.3883 39.9359 18.3883 39.9359 18.3883 39.9359C18.3884 39.9359 18.3884 39.9359 18.3884 39.9359C18.3885 39.9359 18.3885 39.9359 18.3886 39.9359C18.3886 39.9359 18.3886 39.9359 18.3887 39.9359C18.3887 39.9359 18.3887 39.9359 18.3888 39.9359C18.3888 39.9359 18.3888 39.9359 18.3889 39.9359C18.3889 39.9359 18.389 39.9359 18.389 39.9359C18.389 39.9359 18.3891 39.9359 18.3891 39.9359C18.3891 39.9359 18.3892 39.9359 18.3892 39.9359C18.3892 39.9359 18.3893 39.9359 18.3893 39.9359C18.3894 39.9359 18.3894 39.9359 18.3894 39.9359C18.3895 39.9359 18.3895 39.9359 18.3895 39.9359C18.3896 39.9359 18.3896 39.9359 18.3896 39.9359C18.3897 39.9359 18.3897 39.9359 18.3898 39.9359C18.3898 39.9359 18.3898 39.9359 18.3899 39.9359C18.3899 39.9359 18.3899 39.9359 18.39 39.9359C18.39 39.9359 18.3901 39.9359 18.3901 39.9359C18.3901 39.9359 18.3902 39.9359 18.3902 39.9359C18.3902 39.9359 18.3903 39.9359 18.3903 39.9359C18.3904 39.9359 18.3904 39.9359 18.3904 39.9359C18.3905 39.9359 18.3905 39.9359 18.3905 39.9359C18.3906 39.9359 18.3906 39.9359 18.3907 39.9359C18.3907 39.9359 18.3907 39.9359 18.3908 39.9359C18.3908 39.9359 18.3908 39.9359 18.3909 39.9359C18.3909 39.9359 18.391 39.9359 18.391 39.9359C18.391 39.9359 18.3911 39.9359 18.3911 39.9359C18.3911 39.9359 18.3912 39.9359 18.3912 39.9359V29.9359C18.3912 29.9359 18.3911 29.9359 18.3911 29.9359C18.3911 29.9359 18.391 29.9359 18.391 29.9359C18.391 29.9359 18.3909 29.9359 18.3909 29.9359C18.3908 29.9359 18.3908 29.9359 18.3908 29.9359C18.3907 29.9359 18.3907 29.9359 18.3907 29.9359C18.3906 29.9359 18.3906 29.9359 18.3905 29.9359C18.3905 29.9359 18.3905 29.9359 18.3904 29.9359C18.3904 29.9359 18.3904 29.9359 18.3903 29.9359C18.3903 29.9359 18.3902 29.9359 18.3902 29.9359C18.3902 29.9359 18.3901 29.9359 18.3901 29.9359C18.3901 29.9359 18.39 29.9359 18.39 29.9359C18.3899 29.9359 18.3899 29.9359 18.3899 29.9359C18.3898 29.9359 18.3898 29.9359 18.3898 29.9359C18.3897 29.9359 18.3897 29.9359 18.3896 29.9359C18.3896 29.9359 18.3896 29.9359 18.3895 29.9359C18.3895 29.9359 18.3895 29.9359 18.3894 29.9359C18.3894 29.9359 18.3894 29.9359 18.3893 29.9359C18.3893 29.9359 18.3892 29.9359 18.3892 29.9359C18.3892 29.9359 18.3891 29.9359 18.3891 29.9359C18.3891 29.9359 18.389 29.9359 18.389 29.9359C18.389 29.9359 18.3889 29.9359 18.3889 29.9359C18.3888 29.9359 18.3888 29.9359 18.3888 29.9359C18.3887 29.9359 18.3887 29.9359 18.3887 29.9359C18.3886 29.9359 18.3886 29.9359 18.3886 29.9359C18.3885 29.9359 18.3885 29.9359 18.3884 29.9359C18.3884 29.9359 18.3884 29.9359 18.3883 29.9359C18.3883 29.9359 18.3883 29.9359 18.3882 29.9359C18.3882 29.9359 18.3882 29.9359 18.3881 29.9359C18.3881 29.9359 18.388 29.9359 18.388 29.9359C18.388 29.9359 18.3879 29.9359 18.3879 29.9359C18.3879 29.9359 18.3878 29.9359 18.3878 29.9359C18.3878 29.9359 18.3877 29.9359 18.3877 29.9359C18.3877 29.9359 18.3876 29.9359 18.3876 29.9359C18.3875 29.9359 18.3875 29.9359 18.3875 29.9359C18.3874 29.9359 18.3874 29.9359 18.3874 29.9359C18.3873 29.9359 18.3873 29.9359 18.3873 29.9359C18.3872 29.9359 18.3872 29.9359 18.3872 29.9359C18.3871 29.9359 18.3871 29.9359 18.3871 29.9359C18.387 29.9359 18.387 29.9359 18.3869 29.9359C18.3869 29.9359 18.3869 29.9359 18.3868 29.9359C18.3868 29.9359 18.3868 29.9359 18.3867 29.9359C18.3867 29.9359 18.3867 29.9359 18.3866 29.9359C18.3866 29.9359 18.3866 29.9359 18.3865 29.9359C18.3865 29.9359 18.3865 29.9359 18.3864 29.9359C18.3864 29.9359 18.3864 29.9359 18.3863 29.9359C18.3863 29.9359 18.3862 29.9359 18.3862 29.9359C18.3862 29.9359 18.3861 29.9359 18.3861 29.9359C18.3861 29.9359 18.386 29.9359 18.386 29.9359C18.386 29.9359 18.3859 29.9359 18.3859 29.9359C18.3859 29.9359 18.3858 29.9359 18.3858 29.9359C18.3858 29.9359 18.3857 29.9359 18.3857 29.9359C18.3857 29.9359 18.3856 29.9359 18.3856 29.9359C18.3856 29.9359 18.3855 29.9359 18.3855 29.9359C18.3855 29.9359 18.3854 29.9359 18.3854 29.9359C18.3854 29.9359 18.3853 29.9359 18.3853 29.9359C18.3853 29.9359 18.3852 29.9359 18.3852 29.9359C18.3852 29.9359 18.3851 29.9359 18.3851 29.9359C18.385 29.9359 18.385 29.9359 18.385 29.9359C18.3849 29.9359 18.3849 29.9359 18.3849 29.9359C18.3848 29.9359 18.3848 29.9359 18.3848 29.9359C18.3847 29.9359 18.3847 29.9359 18.3847 29.9359C18.3846 29.9359 18.3846 29.9359 18.3846 29.9359C18.3845 29.9359 18.3845 29.9359 18.3845 29.9359C18.3844 29.9359 18.3844 29.9359 18.3844 29.9359C18.3843 29.9359 18.3843 29.9359 18.3843 29.9359C18.3842 29.9359 18.3842 29.9359 18.3842 29.9359C18.3841 29.9359 18.3841 29.9359 18.3841 29.9359C18.384 29.9359 18.384 29.9359 18.384 29.9359C18.3839 29.9359 18.3839 29.9359 18.3839 29.9359C18.3838 29.9359 18.3838 29.9359 18.3838 29.9359C18.3837 29.9359 18.3837 29.9359 18.3837 29.9359C18.3836 29.9359 18.3836 29.9359 18.3836 29.9359C18.3835 29.9359 18.3835 29.9359 18.3835 29.9359C18.3834 29.9359 18.3834 29.9359 18.3834 29.9359C18.3833 29.9359 18.3833 29.9359 18.3833 29.9359C18.3832 29.9359 18.3832 29.9359 18.3832 29.9359C18.3832 29.9359 18.3831 29.9359 18.3831 29.9359C18.3831 29.9359 18.383 29.9359 18.383 29.9359C18.383 29.9359 18.3829 29.9359 18.3829 29.9359C18.3829 29.9359 18.3828 29.9359 18.3828 29.9359C18.3828 29.9359 18.3827 29.9359 18.3827 29.9359C18.3827 29.9359 18.3826 29.9359 18.3826 29.9359C18.3826 29.9359 18.3825 29.9359 18.3825 29.9359C18.3825 29.9359 18.3824 29.9359 18.3824 29.9359C18.3824 29.9359 18.3823 29.9359 18.3823 29.9359C18.3823 29.9359 18.3822 29.9359 18.3822 29.9359C18.3822 29.9359 18.3821 29.9359 18.3821 29.9359C18.3821 29.9359 18.3821 29.9359 18.382 29.9359C18.382 29.9359 18.382 29.9359 18.3819 29.9359C18.3819 29.9359 18.3819 29.9359 18.3818 29.9359C18.3818 29.9359 18.3818 29.9359 18.3817 29.9359C18.3817 29.9359 18.3817 29.9359 18.3816 29.9359C18.3816 29.9359 18.3816 29.9359 18.3815 29.9359C18.3815 29.9359 18.3815 29.9359 18.3814 29.9359C18.3814 29.9359 18.3814 29.9359 18.3814 29.9359C18.3813 29.9359 18.3813 29.9359 18.3813 29.9359C18.3812 29.9359 18.3812 29.9359 18.3812 29.9359C18.3811 29.9359 18.3811 29.9359 18.3811 29.9359C18.381 29.9359 18.381 29.9359 18.381 29.9359C18.3809 29.9359 18.3809 29.9359 18.3809 29.9359C18.3808 29.9359 18.3808 29.9359 18.3808 29.9359C18.3808 29.9359 18.3807 29.9359 18.3807 29.9359C18.3807 29.9359 18.3806 29.9359 18.3806 29.9359C18.3806 29.9359 18.3805 29.9359 18.3805 29.9359C18.3805 29.9359 18.3804 29.9359 18.3804 29.9359C18.3804 29.9359 18.3804 29.9359 18.3803 29.9359C18.3803 29.9359 18.3803 29.9359 18.3802 29.9359C18.3802 29.9359 18.3802 29.9359 18.3801 29.9359C18.3801 29.9359 18.3801 29.9359 18.38 29.9359C18.38 29.9359 18.38 29.9359 18.38 29.9359C18.3799 29.9359 18.3799 29.9359 18.3799 29.9359C18.3798 29.9359 18.3798 29.9359 18.3798 29.9359C18.3797 29.9359 18.3797 29.9359 18.3797 29.9359C18.3796 29.9359 18.3796 29.9359 18.3796 29.9359C18.3796 29.9359 18.3795 29.9359 18.3795 29.9359C18.3795 29.9359 18.3794 29.9359 18.3794 29.9359C18.3794 29.9359 18.3793 29.9359 18.3793 29.9359C18.3793 29.9359 18.3793 29.9359 18.3792 29.9359C18.3792 29.9359 18.3792 29.9359 18.3791 29.9359C18.3791 29.9359 18.3791 29.9359 18.379 29.9359C18.379 29.9359 18.379 29.9359 18.379 29.9359C18.3789 29.9359 18.3789 29.9359 18.3789 29.9359C18.3788 29.9359 18.3788 29.9359 18.3788 29.9359C18.3787 29.9359 18.3787 29.9359 18.3787 29.9359C18.3787 29.9359 18.3786 29.9359 18.3786 29.9359C18.3786 29.9359 18.3785 29.9359 18.3785 29.9359C18.3785 29.9359 18.3784 29.9359 18.3784 29.9359C18.3784 29.9359 18.3784 29.9359 18.3783 29.9359C18.3783 29.9359 18.3783 29.9359 18.3782 29.9359C18.3782 29.9359 18.3782 29.9359 18.3781 29.9359C18.3781 29.9359 18.3781 29.9359 18.3781 29.9359C18.378 29.9359 18.378 29.9359 18.378 29.9359C18.3779 29.9359 18.3779 29.9359 18.3779 29.9359C18.3779 29.9359 18.3778 29.9359 18.3778 29.9359C18.3778 29.9359 18.3777 29.9359 18.3777 29.9359C18.3777 29.9359 18.3776 29.9359 18.3776 29.9359C18.3776 29.9359 18.3776 29.9359 18.3775 29.9359C18.3775 29.9359 18.3775 29.9359 18.3774 29.9359C18.3774 29.9359 18.3774 29.9359 18.3774 29.9359C18.3773 29.9359 18.3773 29.9359 18.3773 29.9359C18.3772 29.9359 18.3772 29.9359 18.3772 29.9359C18.3772 29.9359 18.3771 29.9359 18.3771 29.9359C18.3771 29.9359 18.377 29.9359 18.377 29.9359C18.377 29.9359 18.377 29.9359 18.3769 29.9359C18.3769 29.9359 18.3769 29.9359 18.3768 29.9359C18.3768 29.9359 18.3768 29.9359 18.3768 29.9359C18.3767 29.9359 18.3767 29.9359 18.3767 29.9359C18.3766 29.9359 18.3766 29.9359 18.3766 29.9359C18.3766 29.9359 18.3765 29.9359 18.3765 29.9359C18.3765 29.9359 18.3764 29.9359 18.3764 29.9359C18.3764 29.9359 18.3764 29.9359 18.3763 29.9359C18.3763 29.9359 18.3763 29.9359 18.3762 29.9359C18.3762 29.9359 18.3762 29.9359 18.3762 29.9359C18.3761 29.9359 18.3761 29.9359 18.3761 29.9359C18.376 29.9359 18.376 29.9359 18.376 29.9359C18.376 29.9359 18.3759 29.9359 18.3759 29.9359C18.3759 29.9359 18.3758 29.9359 18.3758 29.9359C18.3758 29.9359 18.3758 29.9359 18.3757 29.9359C18.3757 29.9359 18.3757 29.9359 18.3757 29.9359C18.3756 29.9359 18.3756 29.9359 18.3756 29.9359C18.3755 29.9359 18.3755 29.9359 18.3755 29.9359C18.3755 29.9359 18.3754 29.9359 18.3754 29.9359C18.3754 29.9359 18.3753 29.9359 18.3753 29.9359C18.3753 29.9359 18.3753 29.9359 18.3752 29.9359C18.3752 29.9359 18.3752 29.9359 18.3751 29.9359C18.3751 29.9359 18.3751 29.9359 18.3751 29.9359C18.375 29.9359 18.375 29.9359 18.375 29.9359C18.375 29.9359 18.3749 29.9359 18.3749 29.9359C18.3749 29.9359 18.3748 29.9359 18.3748 29.9359C18.3748 29.9359 18.3748 29.9359 18.3747 29.9359C18.3747 29.9359 18.3747 29.9359 18.3747 29.9359C18.3746 29.9359 18.3746 29.9359 18.3746 29.9359C18.3745 29.9359 18.3745 29.9359 18.3745 29.9359C18.3745 29.9359 18.3744 29.9359 18.3744 29.9359C18.3744 29.9359 18.3744 29.9359 18.3743 29.9359C18.3743 29.9359 18.3743 29.9359 18.3742 29.9359C18.3742 29.9359 18.3742 29.9359 18.3742 29.9359C18.3741 29.9359 18.3741 29.9359 18.3741 29.9359C18.3741 29.9359 18.374 29.9359 18.374 29.9359C18.374 29.9359 18.3739 29.9359 18.3739 29.9359C18.3739 29.9359 18.3739 29.9359 18.3738 29.9359C18.3738 29.9359 18.3738 29.9359 18.3738 29.9359C18.3737 29.9359 18.3737 29.9359 18.3737 29.9359C18.3737 29.9359 18.3736 29.9359 18.3736 29.9359C18.3736 29.9359 18.3735 29.9359 18.3735 29.9359C18.3735 29.9359 18.3735 29.9359 18.3734 29.9359C18.3734 29.9359 18.3734 29.9359 18.3734 29.9359C18.3733 29.9359 18.3733 29.9359 18.3733 29.9359C18.3733 29.9359 18.3732 29.9359 18.3732 29.9359C18.3732 29.9359 18.3731 29.9359 18.3731 29.9359C18.3731 29.9359 18.3731 29.9359 18.373 29.9359C18.373 29.9359 18.373 29.9359 18.373 29.9359C18.3729 29.9359 18.3729 29.9359 18.3729 29.9359C18.3729 29.9359 18.3728 29.9359 18.3728 29.9359C18.3728 29.9359 18.3728 29.9359 18.3727 29.9359C18.3727 29.9359 18.3727 29.9359 18.3726 29.9359C18.3726 29.9359 18.3726 29.9359 18.3726 29.9359C18.3725 29.9359 18.3725 29.9359 18.3725 29.9359C18.3725 29.9359 18.3724 29.9359 18.3724 29.9359C18.3724 29.9359 18.3724 29.9359 18.3723 29.9359C18.3723 29.9359 18.3723 29.9359 18.3723 29.9359C18.3722 29.9359 18.3722 29.9359 18.3722 29.9359C18.3722 29.9359 18.3721 29.9359 18.3721 29.9359C18.3721 29.9359 18.372 29.9359 18.372 29.9359C18.372 29.9359 18.372 29.9359 18.3719 29.9359C18.3719 29.9359 18.3719 29.9359 18.3719 29.9359C18.3718 29.9359 18.3718 29.9359 18.3718 29.9359C18.3718 29.9359 18.3717 29.9359 18.3717 29.9359C18.3717 29.9359 18.3717 29.9359 18.3716 29.9359C18.3716 29.9359 18.3716 29.9359 18.3716 29.9359C18.3715 29.9359 18.3715 29.9359 18.3715 29.9359C18.3715 29.9359 18.3714 29.9359 18.3714 29.9359C18.3714 29.9359 18.3714 29.9359 18.3713 29.9359C18.3713 29.9359 18.3713 29.9359 18.3713 29.9359C18.3712 29.9359 18.3712 29.9359 18.3712 29.9359C18.3712 29.9359 18.3711 29.9359 18.3711 29.9359C18.3711 29.9359 18.3711 29.9359 18.371 29.9359C18.371 29.9359 18.371 29.9359 18.371 29.9359C18.3709 29.9359 18.3709 29.9359 18.3709 29.9359C18.3708 29.9359 18.3708 29.9359 18.3708 29.9359C18.3708 29.9359 18.3707 29.9359 18.3707 29.9359C18.3707 29.9359 18.3707 29.9359 18.3706 29.9359C18.3706 29.9359 18.3706 29.9359 18.3706 29.9359C18.3705 29.9359 18.3705 29.9359 18.3705 29.9359C18.3705 29.9359 18.3704 29.9359 18.3704 29.9359C18.3704 29.9359 18.3704 29.9359 18.3703 29.9359C18.3703 29.9359 18.3703 29.9359 18.3703 29.9359C18.3703 29.9359 18.3702 29.9359 18.3702 29.9359C18.3702 29.9359 18.3702 29.9359 18.3701 29.9359C18.3701 29.9359 18.3701 29.9359 18.3701 29.9359C18.37 29.9359 18.37 29.9359 18.37 29.9359C18.37 29.9359 18.3699 29.9359 18.3699 29.9359C18.3699 29.9359 18.3699 29.9359 18.3698 29.9359C18.3698 29.9359 18.3698 29.9359 18.3698 29.9359C18.3697 29.9359 18.3697 29.9359 18.3697 29.9359C18.3697 29.9359 18.3696 29.9359 18.3696 29.9359C18.3696 29.9359 18.3696 29.9359 18.3695 29.9359C18.3695 29.9359 18.3695 29.9359 18.3695 29.9359C18.3694 29.9359 18.3694 29.9359 18.3694 29.9359C18.3694 29.9359 18.3693 29.9359 18.3693 29.9359C18.3693 29.9359 18.3693 29.9359 18.3692 29.9359C18.3692 29.9359 18.3692 29.9359 18.3692 29.9359C18.3691 29.9359 18.3691 29.9359 18.3691 29.9359C18.3691 29.9359 18.3691 29.9359 18.369 29.9359C18.369 29.9359 18.369 29.9359 18.369 29.9359C18.3689 29.9359 18.3689 29.9359 18.3689 29.9359C18.3689 29.9359 18.3688 29.9359 18.3688 29.9359C18.3688 29.9359 18.3688 29.9359 18.3687 29.9359C18.3687 29.9359 18.3687 29.9359 18.3687 29.9359C18.3686 29.9359 18.3686 29.9359 18.3686 29.9359C18.3686 29.9359 18.3685 29.9359 18.3685 29.9359C18.3685 29.9359 18.3685 29.9359 18.3685 29.9359C18.3684 29.9359 18.3684 29.9359 18.3684 29.9359C18.3684 29.9359 18.3683 29.9359 18.3683 29.9359C18.3683 29.9359 18.3683 29.9359 18.3682 29.9359C18.3682 29.9359 18.3682 29.9359 18.3682 29.9359C18.3681 29.9359 18.3681 29.9359 18.3681 29.9359C18.3681 29.9359 18.368 29.9359 18.368 29.9359C18.368 29.9359 18.368 29.9359 18.368 29.9359C18.3679 29.9359 18.3679 29.9359 18.3679 29.9359C18.3679 29.9359 18.3678 29.9359 18.3678 29.9359C18.3678 29.9359 18.3678 29.9359 18.3677 29.9359C18.3677 29.9359 18.3677 29.9359 18.3677 29.9359C18.3676 29.9359 18.3676 29.9359 18.3676 29.9359C18.3676 29.9359 18.3676 29.9359 18.3675 29.9359C18.3675 29.9359 18.3675 29.9359 18.3675 29.9359C18.3674 29.9359 18.3674 29.9359 18.3674 29.9359C18.3674 29.9359 18.3673 29.9359 18.3673 29.9359C18.3673 29.9359 18.3673 29.9359 18.3673 29.9359C18.3672 29.9359 18.3672 29.9359 18.3672 29.9359C18.3672 29.9359 18.3671 29.9359 18.3671 29.9359C18.3671 29.9359 18.3671 29.9359 18.367 29.9359C18.367 29.9359 18.367 29.9359 18.367 29.9359C18.3669 29.9359 18.3669 29.9359 18.3669 29.9359C18.3669 29.9359 18.3669 29.9359 18.3668 29.9359C18.3668 29.9359 18.3668 29.9359 18.3668 29.9359C18.3667 29.9359 18.3667 29.9359 18.3667 29.9359C18.3667 29.9359 18.3666 29.9359 18.3666 29.9359C18.3666 29.9359 18.3666 29.9359 18.3666 29.9359C18.3665 29.9359 18.3665 29.9359 18.3665 29.9359C18.3665 29.9359 18.3664 29.9359 18.3664 29.9359C18.3664 29.9359 18.3664 29.9359 18.3664 29.9359C18.3663 29.9359 18.3663 29.9359 18.3663 29.9359C18.3663 29.9359 18.3662 29.9359 18.3662 29.9359C18.3662 29.9359 18.3662 29.9359 18.3661 29.9359C18.3661 29.9359 18.3661 29.9359 18.3661 29.9359C18.3661 29.9359 18.366 29.9359 18.366 29.9359C18.366 29.9359 18.366 29.9359 18.3659 29.9359C18.3659 29.9359 18.3659 29.9359 18.3659 29.9359C18.3659 29.9359 18.3658 29.9359 18.3658 29.9359C18.3658 29.9359 18.3658 29.9359 18.3657 29.9359C18.3657 29.9359 18.3657 29.9359 18.3657 29.9359C18.3657 29.9359 18.3656 29.9359 18.3656 29.9359C18.3656 29.9359 18.3656 29.9359 18.3655 29.9359C18.3655 29.9359 18.3655 29.9359 18.3655 29.9359C18.3654 29.9359 18.3654 29.9359 18.3654 29.9359C18.3654 29.9359 18.3654 29.9359 18.3653 29.9359C18.3653 29.9359 18.3653 29.9359 18.3653 29.9359C18.3652 29.9359 18.3652 29.9359 18.3652 29.9359C18.3652 29.9359 18.3652 29.9359 18.3651 29.9359C18.3651 29.9359 18.3651 29.9359 18.3651 29.9359C18.365 29.9359 18.365 29.9359 18.365 29.9359C18.365 29.9359 18.365 29.9359 18.3649 29.9359C18.3649 29.9359 18.3649 29.9359 18.3649 29.9359C18.3649 29.9359 18.3648 29.9359 18.3648 29.9359C18.3648 29.9359 18.3648 29.9359 18.3647 29.9359C18.3647 29.9359 18.3647 29.9359 18.3647 29.9359C18.3647 29.9359 18.3646 29.9359 18.3646 29.9359C18.3646 29.9359 18.3646 29.9359 18.3645 29.9359C18.3645 29.9359 18.3645 29.9359 18.3645 29.9359C18.3645 29.9359 18.3644 29.9359 18.3644 29.9359C18.3644 29.9359 18.3644 29.9359 18.3643 29.9359C18.3643 29.9359 18.3643 29.9359 18.3643 29.9359C18.3643 29.9359 18.3642 29.9359 18.3642 29.9359C18.3642 29.9359 18.3642 29.9359 18.3641 29.9359C18.3641 29.9359 18.3641 29.9359 18.3641 29.9359C18.3641 29.9359 18.364 29.9359 18.364 29.9359C18.364 29.9359 18.364 29.9359 18.364 29.9359C18.3639 29.9359 18.3639 29.9359 18.3639 29.9359C18.3639 29.9359 18.3638 29.9359 18.3638 29.9359C18.3638 29.9359 18.3638 29.9359 18.3638 29.9359C18.3637 29.9359 18.3637 29.9359 18.3637 29.9359C18.3637 29.9359 18.3637 29.9359 18.3636 29.9359C18.3636 29.9359 18.3636 29.9359 18.3636 29.9359C18.3635 29.9359 18.3635 29.9359 18.3635 29.9359C18.3635 29.9359 18.3635 29.9359 18.3634 29.9359C18.3634 29.9359 18.3634 29.9359 18.3634 29.9359C18.3633 29.9359 18.3633 29.9359 18.3633 29.9359C18.3633 29.9359 18.3633 29.9359 18.3632 29.9359C18.3632 29.9359 18.3632 29.9359 18.3632 29.9359C18.3632 29.9359 18.3631 29.9359 18.3631 29.9359C18.3631 29.9359 18.3631 29.9359 18.3631 29.9359C18.363 29.9359 18.363 29.9359 18.363 29.9359C18.363 29.9359 18.3629 29.9359 18.3629 29.9359C18.3629 29.9359 18.3629 29.9359 18.3629 29.9359C18.3628 29.9359 18.3628 29.9359 18.3628 29.9359C18.3628 29.9359 18.3628 29.9359 18.3627 29.9359C18.3627 29.9359 18.3627 29.9359 18.3627 29.9359C18.3626 29.9359 18.3626 29.9359 18.3626 29.9359C18.3626 29.9359 18.3626 29.9359 18.3625 29.9359C18.3625 29.9359 18.3625 29.9359 18.3625 29.9359C18.3625 29.9359 18.3624 29.9359 18.3624 29.9359C18.3624 29.9359 18.3624 29.9359 18.3624 29.9359C18.3623 29.9359 18.3623 29.9359 18.3623 29.9359C18.3623 29.9359 18.3622 29.9359 18.3622 29.9359C18.3622 29.9359 18.3622 29.9359 18.3622 29.9359C18.3621 29.9359 18.3621 29.9359 18.3621 29.9359C18.3621 29.9359 18.3621 29.9359 18.362 29.9359C18.362 29.9359 18.362 29.9359 18.362 29.9359C18.362 29.9359 18.3619 29.9359 18.3619 29.9359C18.3619 29.9359 18.3619 29.9359 18.3619 29.9359C18.3618 29.9359 18.3618 29.9359 18.3618 29.9359C18.3618 29.9359 18.3617 29.9359 18.3617 29.9359C18.3617 29.9359 18.3617 29.9359 18.3617 29.9359C18.3616 29.9359 18.3616 29.9359 18.3616 29.9359C18.3616 29.9359 18.3616 29.9359 18.3615 29.9359C18.3615 29.9359 18.3615 29.9359 18.3615 29.9359C18.3615 29.9359 18.3614 29.9359 18.3614 29.9359C18.3614 29.9359 18.3614 29.9359 18.3614 29.9359C18.3613 29.9359 18.3613 29.9359 18.3613 29.9359C18.3613 29.9359 18.3612 29.9359 18.3612 29.9359C18.3612 29.9359 18.3612 29.9359 18.3612 29.9359C18.3611 29.9359 18.3611 29.9359 18.3611 29.9359C18.3611 29.9359 18.3611 29.9359 18.361 29.9359C18.361 29.9359 18.361 29.9359 18.361 29.9359C18.361 29.9359 18.3609 29.9359 18.3609 29.9359C18.3609 29.9359 18.3609 29.9359 18.3609 29.9359C18.3608 29.9359 18.3608 29.9359 18.3608 29.9359C18.3608 29.9359 18.3608 29.9359 18.3607 29.9359C18.3607 29.9359 18.3607 29.9359 18.3607 29.9359C18.3607 29.9359 18.3606 29.9359 18.3606 29.9359C18.3606 29.9359 18.3606 29.9359 18.3606 29.9359C18.3605 29.9359 18.3605 29.9359 18.3605 29.9359C18.3605 29.9359 18.3605 29.9359 18.3604 29.9359C18.3604 29.9359 18.3604 29.9359 18.3604 29.9359C18.3603 29.9359 18.3603 29.9359 18.3603 29.9359C18.3603 29.9359 18.3603 29.9359 18.3602 29.9359C18.3602 29.9359 18.3602 29.9359 18.3602 29.9359C18.3602 29.9359 18.3601 29.9359 18.3601 29.9359C18.3601 29.9359 18.3601 29.9359 18.3601 29.9359C18.36 29.9359 18.36 29.9359 18.36 29.9359C18.36 29.9359 18.36 29.9359 18.3599 29.9359C18.3599 29.9359 18.3599 29.9359 18.3599 29.9359C18.3599 29.9359 18.3598 29.9359 18.3598 29.9359C18.3598 29.9359 18.3598 29.9359 18.3598 29.9359C18.3597 29.9359 18.3597 29.9359 18.3597 29.9359C18.3597 29.9359 18.3597 29.9359 18.3596 29.9359C18.3596 29.9359 18.3596 29.9359 18.3596 29.9359C18.3596 29.9359 18.3595 29.9359 18.3595 29.9359C18.3595 29.9359 18.3595 29.9359 18.3595 29.9359C18.3594 29.9359 18.3594 29.9359 18.3594 29.9359C18.3594 29.9359 18.3594 29.9359 18.3593 29.9359C18.3593 29.9359 18.3593 29.9359 18.3593 29.9359C18.3593 29.9359 18.3592 29.9359 18.3592 29.9359C18.3592 29.9359 18.3592 29.9359 18.3592 29.9359C18.3591 29.9359 18.3591 29.9359 18.3591 29.9359C18.3591 29.9359 18.3591 29.9359 18.359 29.9359C18.359 29.9359 18.359 29.9359 18.359 29.9359C18.359 29.9359 18.3589 29.9359 18.3589 29.9359C18.3589 29.9359 18.3589 29.9359 18.3589 29.9359C18.3588 29.9359 18.3588 29.9359 18.3588 29.9359C18.3588 29.9359 18.3588 29.9359 18.3587 29.9359C18.3587 29.9359 18.3587 29.9359 18.3587 29.9359C18.3587 29.9359 18.3586 29.9359 18.3586 29.9359C18.3586 29.9359 18.3586 29.9359 18.3586 29.9359C18.3585 29.9359 18.3585 29.9359 18.3585 29.9359C18.3585 29.9359 18.3585 29.9359 18.3584 29.9359C18.3584 29.9359 18.3584 29.9359 18.3584 29.9359C18.3584 29.9359 18.3583 29.9359 18.3583 29.9359C18.3583 29.9359 18.3583 29.9359 18.3583 29.9359C18.3582 29.9359 18.3582 29.9359 18.3582 29.9359C18.3582 29.9359 18.3582 29.9359 18.3582 29.9359C18.3581 29.9359 18.3581 29.9359 18.3581 29.9359C18.3581 29.9359 18.3581 29.9359 18.358 29.9359C18.358 29.9359 18.358 29.9359 18.358 29.9359C18.358 29.9359 18.3579 29.9359 18.3579 29.9359C18.3579 29.9359 18.3579 29.9359 18.3579 29.9359C18.3578 29.9359 18.3578 29.9359 18.3578 29.9359C18.3578 29.9359 18.3578 29.9359 18.3577 29.9359C18.3577 29.9359 18.3577 29.9359 18.3577 29.9359C18.3577 29.9359 18.3576 29.9359 18.3576 29.9359C18.3576 29.9359 18.3576 29.9359 18.3576 29.9359C18.3575 29.9359 18.3575 29.9359 18.3575 29.9359C18.3575 29.9359 18.3575 29.9359 18.3574 29.9359C18.3574 29.9359 18.3574 29.9359 18.3574 29.9359C18.3574 29.9359 18.3573 29.9359 18.3573 29.9359C18.3573 29.9359 18.3573 29.9359 18.3573 29.9359C18.3573 29.9359 18.3572 29.9359 18.3572 29.9359C18.3572 29.9359 18.3572 29.9359 18.3572 29.9359C18.3571 29.9359 18.3571 29.9359 18.3571 29.9359C18.3571 29.9359 18.3571 29.9359 18.357 29.9359C18.357 29.9359 18.357 29.9359 18.357 29.9359C18.357 29.9359 18.3569 29.9359 18.3569 29.9359C18.3569 29.9359 18.3569 29.9359 18.3569 29.9359C18.3568 29.9359 18.3568 29.9359 18.3568 29.9359C18.3568 29.9359 18.3568 29.9359 18.3567 29.9359C18.3567 29.9359 18.3567 29.9359 18.3567 29.9359C18.3567 29.9359 18.3566 29.9359 18.3566 29.9359C18.3566 29.9359 18.3566 29.9359 18.3566 29.9359C18.3566 29.9359 18.3565 29.9359 18.3565 29.9359C18.3565 29.9359 18.3565 29.9359 18.3565 29.9359C18.3564 29.9359 18.3564 29.9359 18.3564 29.9359C18.3564 29.9359 18.3564 29.9359 18.3563 29.9359C18.3563 29.9359 18.3563 29.9359 18.3563 29.9359C18.3563 29.9359 18.3562 29.9359 18.3562 29.9359C18.3562 29.9359 18.3562 29.9359 18.3562 29.9359C18.3561 29.9359 18.3561 29.9359 18.3561 29.9359C18.3561 29.9359 18.3561 29.9359 18.3561 29.9359C18.356 29.9359 18.356 29.9359 18.356 29.9359C18.356 29.9359 18.356 29.9359 18.3559 29.9359C18.3559 29.9359 18.3559 29.9359 18.3559 29.9359C18.3559 29.9359 18.3558 29.9359 18.3558 29.9359C18.3558 29.9359 18.3558 29.9359 18.3558 29.9359C18.3557 29.9359 18.3557 29.9359 18.3557 29.9359C18.3557 29.9359 18.3557 29.9359 18.3556 29.9359C18.3556 29.9359 18.3556 29.9359 18.3556 29.9359C18.3556 29.9359 18.3556 29.9359 18.3555 29.9359C18.3555 29.9359 18.3555 29.9359 18.3555 29.9359C18.3555 29.9359 18.3554 29.9359 18.3554 29.9359C18.3554 29.9359 18.3554 29.9359 18.3554 29.9359C18.3553 29.9359 18.3553 29.9359 18.3553 29.9359C18.3553 29.9359 18.3553 29.9359 18.3552 29.9359C18.3552 29.9359 18.3552 29.9359 18.3552 29.9359C18.3552 29.9359 18.3551 29.9359 18.3551 29.9359C18.3551 29.9359 18.3551 29.9359 18.3551 29.9359C18.3551 29.9359 18.355 29.9359 18.355 29.9359C18.355 29.9359 18.355 29.9359 18.355 29.9359C18.3549 29.9359 18.3549 29.9359 18.3549 29.9359C18.3549 29.9359 18.3549 29.9359 18.3548 29.9359C18.3548 29.9359 18.3548 29.9359 18.3548 29.9359C18.3548 29.9359 18.3547 29.9359 18.3547 29.9359C18.3547 29.9359 18.3547 29.9359 18.3547 29.9359C18.3547 29.9359 18.3546 29.9359 18.3546 29.9359C18.3546 29.9359 18.3546 29.9359 18.3546 29.9359C18.3545 29.9359 18.3545 29.9359 18.3545 29.9359C18.3545 29.9359 18.3545 29.9359 18.3544 29.9359C18.3544 29.9359 18.3544 29.9359 18.3544 29.9359C18.3544 29.9359 18.3543 29.9359 18.3543 29.9359C18.3543 29.9359 18.3543 29.9359 18.3543 29.9359C18.3543 29.9359 18.3542 29.9359 18.3542 29.9359C18.3542 29.9359 18.3542 29.9359 18.3542 29.9359C18.3541 29.9359 18.3541 29.9359 18.3541 29.9359C18.3541 29.9359 18.3541 29.9359 18.354 29.9359C18.354 29.9359 18.354 29.9359 18.354 29.9359C18.354 29.9359 18.3539 29.9359 18.3539 29.9359C18.3539 29.9359 18.3539 29.9359 18.3539 29.9359C18.3539 29.9359 18.3538 29.9359 18.3538 29.9359C18.3538 29.9359 18.3538 29.9359 18.3538 29.9359C18.3537 29.9359 18.3537 29.9359 18.3537 29.9359C18.3537 29.9359 18.3537 29.9359 18.3536 29.9359C18.3536 29.9359 18.3536 29.9359 18.3536 29.9359C18.3536 29.9359 18.3535 29.9359 18.3535 29.9359C18.3535 29.9359 18.3535 29.9359 18.3535 29.9359C18.3535 29.9359 18.3534 29.9359 18.3534 29.9359C18.3534 29.9359 18.3534 29.9359 18.3534 29.9359C18.3533 29.9359 18.3533 29.9359 18.3533 29.9359C18.3533 29.9359 18.3533 29.9359 18.3532 29.9359C18.3532 29.9359 18.3532 29.9359 18.3532 29.9359C18.3532 29.9359 18.3531 29.9359 18.3531 29.9359C18.3531 29.9359 18.3531 29.9359 18.3531 29.9359C18.3531 29.9359 18.353 29.9359 18.353 29.9359C18.353 29.9359 18.353 29.9359 18.353 29.9359C18.3529 29.9359 18.3529 29.9359 18.3529 29.9359C18.3529 29.9359 18.3529 29.9359 18.3528 29.9359C18.3528 29.9359 18.3528 29.9359 18.3528 29.9359C18.3528 29.9359 18.3528 29.9359 18.3527 29.9359C18.3527 29.9359 18.3527 29.9359 18.3527 29.9359C18.3527 29.9359 18.3526 29.9359 18.3526 29.9359C18.3526 29.9359 18.3526 29.9359 18.3526 29.9359C18.3525 29.9359 18.3525 29.9359 18.3525 29.9359C18.3525 29.9359 18.3525 29.9359 18.3524 29.9359C18.3524 29.9359 18.3524 29.9359 18.3524 29.9359V39.9359ZM18.4425 39.9356C20.7379 39.912 22.9198 38.9795 24.5199 37.3053L17.2907 30.3959C17.5707 30.103 17.9665 29.94 18.3399 29.9361L18.4425 39.9356ZM24.5326 37.2919C25.8043 35.9515 26.5417 34.3109 26.7913 32.6502L16.9024 31.1638C16.9385 30.9238 17.0546 30.6447 17.278 30.4093L24.5326 37.2919ZM21.8469 36.907H28.8455V26.907H21.8469V36.907ZM28.8455 36.907C31.1949 36.907 33.4052 35.9606 35.0305 34.3086L27.9022 27.2953C28.1297 27.0641 28.4763 26.907 28.8455 26.907V36.907ZM35.0337 34.3055L40.4792 28.7607L33.3446 21.7537L27.8991 27.2985L35.0337 34.3055Z" fill="#7351D5" mask="url(#path-2-inside-1_14106_3264)"/>
<path d="M14.4017 29.7266C14.4988 29.8252 14.625 29.8746 14.7415 29.8746C14.8579 29.8746 14.9938 29.8252 15.0812 29.7266L16.7605 28.0197C16.9546 27.8224 16.9546 27.5166 16.7605 27.3193C16.5664 27.1219 16.2654 27.1219 16.0713 27.3193L14.392 29.0261C14.2076 29.2234 14.2076 29.5293 14.4017 29.7266Z" fill="#7351D5"/>
<path d="M13.8779 27.9703C14.0041 27.9703 14.1302 27.921 14.2176 27.8223L14.8874 27.1416C15.0815 26.9443 15.0815 26.6384 14.8874 26.4411C14.6932 26.2438 14.3923 26.2438 14.1982 26.4411L13.5284 27.1218C13.3343 27.3192 13.3343 27.625 13.5284 27.8223C13.6255 27.921 13.7517 27.9703 13.8779 27.9703Z" fill="#7351D5"/>
</svg>
