<svg width="45" height="45" viewBox="0 0 45 45" fill="none" xmlns="http://www.w3.org/2000/svg">
<path d="M23.7297 16.5795V15.1348H27.8766C29.7097 15.1348 31.4676 14.41 32.7638 13.1199C34.0599 11.8297 34.7881 10.0799 34.7881 8.25536V5.50357C34.7881 5.13866 34.6425 4.7887 34.3832 4.53067C34.124 4.27264 33.7724 4.12768 33.4058 4.12768H27.8766C26.3799 4.1196 24.9222 4.60322 23.7297 5.50357V1.37589C23.7297 1.01098 23.5841 0.66102 23.3248 0.40299C23.0656 0.14496 22.714 0 22.3474 0C21.9808 0 21.6292 0.14496 21.37 0.40299C21.1108 0.66102 20.9651 1.01098 20.9651 1.37589V2.75179C19.7726 1.85143 18.315 1.36781 16.8182 1.37589H11.289C10.9224 1.37589 10.5708 1.52085 10.3116 1.77888C10.0524 2.03691 9.90673 2.38688 9.90673 2.75179V5.50357C9.90673 7.32812 10.6349 9.07794 11.9311 10.3681C13.2272 11.6582 14.9852 12.383 16.8182 12.383H20.9651V16.5795C17.4366 16.9325 14.1794 18.6218 11.867 21.2981C9.55473 23.9744 8.36423 27.4329 8.54176 30.9583C8.7193 34.4837 10.2513 37.8064 12.8209 40.2391C15.3905 42.6718 18.8011 44.0284 22.3474 44.0284C25.8937 44.0284 29.3043 42.6718 31.8739 40.2391C34.4435 37.8064 35.9755 34.4837 36.1531 30.9583C36.3306 27.4329 35.1401 23.9744 32.8278 21.2981C30.5155 18.6218 27.2582 16.9325 23.7297 16.5795ZM27.8766 6.94826H32.0235V8.25536C32.0235 9.35008 31.5866 10.4 30.8089 11.1741C30.0312 11.9482 28.9764 12.383 27.8766 12.383H23.7297V11.0071C23.7297 9.91241 24.1666 8.86252 24.9443 8.08843C25.722 7.31434 26.7768 6.87946 27.8766 6.87946V6.94826ZM12.6713 5.50357V4.12768H16.8182C17.918 4.12768 18.9728 4.56256 19.7505 5.33665C20.5282 6.11074 20.9651 7.16063 20.9651 8.25536V9.63125H16.8182C15.7184 9.63125 14.6636 9.19637 13.8859 8.42228C13.1082 7.64819 12.6713 6.5983 12.6713 5.50357ZM22.3474 41.2768C20.1603 41.2768 18.0222 40.6312 16.2037 39.4217C14.3852 38.2123 12.9678 36.4932 12.1308 34.4819C11.2938 32.4706 11.0748 30.2574 11.5015 28.1223C11.9282 25.9871 12.9814 24.0258 14.528 22.4864C16.0745 20.947 18.0449 19.8987 20.19 19.474C22.3351 19.0493 24.5586 19.2673 26.5793 20.1004C28.5999 20.9335 30.327 22.3443 31.5421 24.1544C32.7572 25.9645 33.4058 28.0926 33.4058 30.2696C33.4058 33.1889 32.2407 35.9886 30.1669 38.0529C28.093 40.1171 25.2803 41.2768 22.3474 41.2768Z" fill="white"/>
<path d="M22.3471 26.1418H25.1117C25.4783 26.1418 25.8299 25.9969 26.0891 25.7388C26.3484 25.4808 26.494 25.1309 26.494 24.7659C26.494 24.401 26.3484 24.0511 26.0891 23.793C25.8299 23.535 25.4783 23.3901 25.1117 23.3901H23.7294C23.7294 23.0251 23.5838 22.6752 23.3245 22.4171C23.0653 22.1591 22.7137 22.0142 22.3471 22.0142C21.9805 22.0142 21.6289 22.1591 21.3697 22.4171C21.1104 22.6752 20.9648 23.0251 20.9648 23.3901V23.6377C20.0506 23.9679 19.282 24.6074 18.7935 25.4444C18.305 26.2815 18.1276 27.2628 18.2923 28.2168C18.4569 29.1709 18.9533 30.037 19.6945 30.6637C20.4357 31.2904 21.3746 31.6379 22.3471 31.6454C22.7137 31.6454 23.0653 31.7904 23.3245 32.0484C23.5838 32.3064 23.7294 32.6564 23.7294 33.0213C23.7294 33.3862 23.5838 33.7362 23.3245 33.9942C23.0653 34.2522 22.7137 34.3972 22.3471 34.3972H19.5825C19.2159 34.3972 18.8643 34.5422 18.6051 34.8002C18.3458 35.0582 18.2002 35.4082 18.2002 35.7731C18.2002 36.138 18.3458 36.488 18.6051 36.746C18.8643 37.004 19.2159 37.149 19.5825 37.149H20.9648C20.9648 37.5139 21.1104 37.8639 21.3697 38.1219C21.6289 38.3799 21.9805 38.5249 22.3471 38.5249C22.7137 38.5249 23.0653 38.3799 23.3245 38.1219C23.5838 37.8639 23.7294 37.5139 23.7294 37.149V36.9013C24.6436 36.5711 25.4121 35.9316 25.9007 35.0946C26.3892 34.2576 26.5666 33.2762 26.4019 32.3222C26.2372 31.3682 25.7409 30.5021 24.9997 29.8753C24.2585 29.2486 23.3196 28.9011 22.3471 28.8936C21.9805 28.8936 21.6289 28.7487 21.3697 28.4906C21.1104 28.2326 20.9648 27.8826 20.9648 27.5177C20.9648 27.1528 21.1104 26.8029 21.3697 26.5448C21.6289 26.2868 21.9805 26.1418 22.3471 26.1418Z" fill="white"/>
<path d="M8.12368 10.0301L5.35908 7.27832C5.23058 7.14936 5.0777 7.04701 4.90925 6.97715C4.7408 6.9073 4.56013 6.87134 4.37765 6.87134C4.19517 6.87134 4.0145 6.9073 3.84605 6.97715C3.6776 7.04701 3.52472 7.14936 3.39622 7.27832L0.63162 10.0301C0.371328 10.2892 0.225098 10.6406 0.225098 11.007C0.225098 11.3734 0.371328 11.7248 0.63162 11.9839C0.891912 12.243 1.24494 12.3885 1.61305 12.3885C1.98116 12.3885 2.33419 12.243 2.59448 11.9839L2.99535 11.5711V15.1347C2.99535 15.4996 3.14099 15.8495 3.40022 16.1076C3.65945 16.3656 4.01104 16.5106 4.37765 16.5106C4.74426 16.5106 5.09585 16.3656 5.35508 16.1076C5.61431 15.8495 5.75995 15.4996 5.75995 15.1347V11.5711L6.16082 11.9839C6.28932 12.1128 6.4422 12.2152 6.61065 12.285C6.77909 12.3549 6.95977 12.3909 7.14225 12.3909C7.32473 12.3909 7.5054 12.3549 7.67385 12.285C7.84229 12.2152 7.99518 12.1128 8.12368 11.9839C8.25324 11.856 8.35607 11.7038 8.42625 11.5361C8.49643 11.3685 8.53256 11.1886 8.53256 11.007C8.53256 10.8254 8.49643 10.6455 8.42625 10.4779C8.35607 10.3102 8.25324 10.158 8.12368 10.0301Z" fill="white"/>
<path d="M44.0641 18.2855L41.2995 15.5337C41.171 15.4047 41.0181 15.3024 40.8497 15.2325C40.6812 15.1627 40.5006 15.1267 40.3181 15.1267C40.1356 15.1267 39.9549 15.1627 39.7865 15.2325C39.618 15.3024 39.4652 15.4047 39.3366 15.5337L36.5721 18.2855C36.4432 18.4138 36.3409 18.5661 36.2712 18.7337C36.2014 18.9013 36.1655 19.0809 36.1655 19.2624C36.1655 19.6288 36.3118 19.9802 36.5721 20.2392C36.8323 20.4983 37.1854 20.6439 37.5535 20.6439C37.7358 20.6439 37.9162 20.6082 38.0846 20.5387C38.253 20.4693 38.406 20.3675 38.5349 20.2392L38.9358 19.8265V23.39C38.9358 23.755 39.0814 24.1049 39.3406 24.3629C39.5999 24.621 39.9515 24.7659 40.3181 24.7659C40.6847 24.7659 41.0363 24.621 41.2955 24.3629C41.5547 24.1049 41.7004 23.755 41.7004 23.39V19.8265L42.1012 20.2392C42.2297 20.3682 42.3826 20.4706 42.5511 20.5404C42.7195 20.6103 42.9002 20.6462 43.0827 20.6462C43.2652 20.6462 43.4458 20.6103 43.6143 20.5404C43.7827 20.4706 43.9356 20.3682 44.0641 20.2392C44.1937 20.1113 44.2965 19.9592 44.3667 19.7915C44.4369 19.6238 44.473 19.444 44.473 19.2624C44.473 19.0807 44.4369 18.9009 44.3667 18.7332C44.2965 18.5656 44.1937 18.4134 44.0641 18.2855Z" fill="white"/>
</svg>
