<svg width="44" height="36" viewBox="0 0 44 36" fill="none" xmlns="http://www.w3.org/2000/svg">
<path d="M43.5358 33.514H40.4678C38.5797 29.4155 36.9952 24.981 36.2197 20.7817C36.0511 19.9082 35.8489 19.0683 35.7814 18.1949C35.4106 14.701 35.7477 11.476 37.13 8.88917L37.366 8.98995C38.2089 9.79622 39.3552 14.3987 39.3889 15.5745C40.8049 13.2229 40.4678 9.76262 38.8495 7.57898C38.9169 7.61257 39.1529 7.78055 40.1643 8.35166L40.8049 7.51179L40.7038 8.95636C40.9735 9.15792 41.6478 9.9642 41.7827 10.0314L42.4232 9.25871L42.3895 10.7033C42.6255 11.0392 42.8952 11.2072 43.165 11.5431C43.873 7.27663 40.4678 5.93284 38.4786 5.76487C39.3215 4.85782 41.2769 4.08514 43.4347 5.89925C43.2998 2.06946 37.5346 2.60698 37.0626 5.16017C36.9277 1.19601 30.6905 -1.86109 28.7013 1.33039C28.9373 1.33039 29.8813 1.59914 30.9602 2.06947L32.0391 0.6585V2.57339C32.3762 2.77495 32.7471 2.94293 33.0842 3.1445L34.534 2.13666V4.21952C35.0397 4.68984 35.3768 5.16017 35.5117 5.66409C35.5117 5.66409 26.6447 3.04372 28.3979 11.4088C28.3979 11.4088 31.0951 5.86566 35.3768 7.54539L35.006 8.04931C32.8145 11.8119 32.8482 17.6238 33.8597 23.1333C33.1517 24.1411 32.2751 25.0818 31.2299 25.888C30.7242 26.2912 30.2185 26.6271 29.679 26.9295L27.4539 24.4099C27.1504 24.0739 26.6447 23.9731 26.2738 24.1747L23.8127 25.5185C22.8012 25.2833 17.5754 23.9731 17.1708 23.9395C16.6988 23.9395 16.564 24.2755 16.4628 24.8802C16.4628 24.981 16.4291 25.0818 16.4291 25.149C16.4291 25.1825 16.4291 25.2497 16.4291 25.3169C16.4291 25.4849 16.564 26.1904 16.7325 27.0303C15.4514 26.3248 14.2714 25.3841 13.2936 24.3091C12.5182 23.4692 11.8776 22.5622 11.4056 21.6215C11.1359 16.9519 10.293 12.551 8.23641 9.05715L7.86555 8.55323C12.1473 6.8735 13.9005 13.6596 13.9005 13.6596C15.6537 5.29455 7.73069 6.67193 7.73069 6.67193C7.86555 6.16801 8.2027 5.69768 8.70842 5.22736V3.34607L10.1582 4.11874C10.4953 3.91717 10.8662 3.74919 11.2033 3.54763L10.1582 1.63274L12.2822 3.04371C13.3611 2.57338 14.3051 2.30463 14.5411 2.30463C12.5519 -0.886853 6.1461 1.56555 6.01124 5.49612C5.84266 3.71561 2.26889 2.20384 1.08887 5.73127C3.31405 4.82422 2.7409 5.16017 3.98835 6.53755C0.313434 6.33599 0.0437133 9.22511 0.751724 13.4916C1.02144 13.1557 1.69574 10.4681 2.60604 9.59465C3.51634 8.72119 4.08949 8.55322 4.22435 8.78838C2.57232 10.9384 2.43746 14.1635 3.85348 16.5151C3.8872 15.3393 5.0335 10.7369 5.87637 9.9306L6.11238 9.82982C9.41643 16.0784 8.47242 24.8466 7.86555 33.4468H0.448293H0.380859V36H0.448293H43.6033H43.6707V33.514H43.5358ZM21.6886 28.3404C22.4304 28.542 23.2732 28.4412 23.7115 27.9037L26.4761 26.2912L27.8584 27.8701C25.9367 28.6092 23.8801 28.9115 21.8909 28.7436C20.7783 28.6428 19.6657 28.4076 18.5869 28.0045L18.4857 27.5342C19.6657 27.8029 21.6886 28.3404 21.6886 28.3404ZM26.847 33.4804H12.9565H11.237C11.3719 30.2889 11.5068 26.9631 11.4056 23.7044C11.7428 24.1747 12.0799 24.6114 12.4845 25.0146C13.7656 26.392 15.2828 27.5006 16.9348 28.3068C17.2046 29.5498 17.4743 30.7257 17.4743 30.7257C17.5417 31.0616 17.7777 31.3304 18.1149 31.3975C18.216 31.4311 18.3509 31.4311 18.4857 31.3975C18.9577 31.3304 19.2612 30.86 19.1937 30.3897L18.8903 29.0123C19.8343 29.3147 20.8458 29.5162 21.8235 29.617C22.6326 29.6842 23.4755 29.6842 24.3184 29.617C25.7681 29.4826 27.1841 29.1131 28.5665 28.542L29.7128 29.8522C30.0499 30.2553 30.6568 30.2889 31.0613 29.953C31.4659 29.617 31.4996 29.0123 31.1625 28.6092L30.3196 27.6349C30.8253 27.3326 31.3311 26.9967 31.8031 26.6271C32.6797 25.9552 33.4551 25.2161 34.0957 24.4099C34.8037 27.7693 35.8826 30.9272 37.0289 33.3796H26.847V33.4804ZM15.2828 21.1512C16.1257 21.3528 16.5977 22.1926 16.3617 23.0325C16.1594 23.8388 15.3165 24.3427 14.4736 24.1075C13.6645 23.8724 13.1588 23.0661 13.3948 22.2262C13.5971 21.4199 14.4399 20.9496 15.2828 21.1512Z" fill="#7351D5"/>
</svg>
