<svg width="44" height="33" viewBox="0 0 44 33" fill="none" xmlns="http://www.w3.org/2000/svg">
<mask id="path-1-inside-1_14105_3189" fill="white">
<path d="M11.0721 0C8.9254 0 7.01369 1.41797 6.39762 3.50625L4.162 11.0859L1.0118 10.0031L-0.00439453 13.0969L3.19661 14.1797L2.18042 17.6859C2.14231 17.8342 2.12326 17.9953 2.12961 18.15V29.7C2.12961 29.7516 2.12961 29.8031 2.12961 29.8547V31.35C2.12961 32.2588 2.86 33 3.75552 33H8.63325L9.19215 31.35H34.0889L34.6478 33H39.5255C40.421 33 41.1514 32.2588 41.1514 31.35V29.9578C41.1578 29.874 41.1578 29.7838 41.1514 29.7V18.15C41.1578 17.9953 41.1387 17.8342 41.1006 17.6859L40.0844 14.1797L43.2854 13.0969L42.2692 10.0031L39.119 11.0859L36.8834 3.50625C36.2673 1.41797 34.3556 0 32.2089 0H11.0721ZM11.0721 3.3H32.2089C32.933 3.3 33.5744 3.7834 33.784 4.48594L35.8672 11.55H7.41382L9.49701 4.48594C9.7066 3.77695 10.3481 3.3 11.0721 3.3ZM6.44843 14.85H36.8326L37.8996 18.4594V28.05H5.38143V18.4594L6.44843 14.85ZM9.4462 16.5C8.09975 16.5 7.00734 17.6086 7.00734 18.975C7.00734 20.3414 8.09975 21.45 9.4462 21.45C10.7927 21.45 11.8851 20.3414 11.8851 18.975C11.8851 17.6086 10.7927 16.5 9.4462 16.5ZM33.8348 16.5C32.4884 16.5 31.396 17.6086 31.396 18.975C31.396 20.3414 32.4884 21.45 33.8348 21.45C35.1813 21.45 36.2737 20.3414 36.2737 18.975C36.2737 17.6086 35.1813 16.5 33.8348 16.5ZM15.1369 21.45L13.1045 26.4H16.6104L17.3217 24.75H25.9593L26.6707 26.4H30.1765L28.1442 21.45H15.1369Z"/>
</mask>
<path d="M11.0721 0C8.9254 0 7.01369 1.41797 6.39762 3.50625L4.162 11.0859L1.0118 10.0031L-0.00439453 13.0969L3.19661 14.1797L2.18042 17.6859C2.14231 17.8342 2.12326 17.9953 2.12961 18.15V29.7C2.12961 29.7516 2.12961 29.8031 2.12961 29.8547V31.35C2.12961 32.2588 2.86 33 3.75552 33H8.63325L9.19215 31.35H34.0889L34.6478 33H39.5255C40.421 33 41.1514 32.2588 41.1514 31.35V29.9578C41.1578 29.874 41.1578 29.7838 41.1514 29.7V18.15C41.1578 17.9953 41.1387 17.8342 41.1006 17.6859L40.0844 14.1797L43.2854 13.0969L42.2692 10.0031L39.119 11.0859L36.8834 3.50625C36.2673 1.41797 34.3556 0 32.2089 0H11.0721ZM11.0721 3.3H32.2089C32.933 3.3 33.5744 3.7834 33.784 4.48594L35.8672 11.55H7.41382L9.49701 4.48594C9.7066 3.77695 10.3481 3.3 11.0721 3.3ZM6.44843 14.85H36.8326L37.8996 18.4594V28.05H5.38143V18.4594L6.44843 14.85ZM9.4462 16.5C8.09975 16.5 7.00734 17.6086 7.00734 18.975C7.00734 20.3414 8.09975 21.45 9.4462 21.45C10.7927 21.45 11.8851 20.3414 11.8851 18.975C11.8851 17.6086 10.7927 16.5 9.4462 16.5ZM33.8348 16.5C32.4884 16.5 31.396 17.6086 31.396 18.975C31.396 20.3414 32.4884 21.45 33.8348 21.45C35.1813 21.45 36.2737 20.3414 36.2737 18.975C36.2737 17.6086 35.1813 16.5 33.8348 16.5ZM15.1369 21.45L13.1045 26.4H16.6104L17.3217 24.75H25.9593L26.6707 26.4H30.1765L28.1442 21.45H15.1369Z" fill="white"/>
<path d="M6.39762 3.50625L-17.5807 -3.56763L-17.5811 -3.56626L6.39762 3.50625ZM4.162 11.0859L-3.96454 34.7283L20.748 43.2227L28.1407 18.1585L4.162 11.0859ZM1.0118 10.0031L9.13833 -13.6392L-14.8304 -21.8779L-22.7397 2.20154L1.0118 10.0031ZM-0.00439453 13.0969L-23.7559 5.29529L-31.489 28.8381L-8.01528 36.7786L-0.00439453 13.0969ZM3.19661 14.1797L27.2085 21.1389L33.8674 -1.83686L11.2075 -9.50207L3.19661 14.1797ZM2.18042 17.6859L-21.8314 10.7267L-21.9375 11.0928L-22.0324 11.4619L2.18042 17.6859ZM2.12961 18.15H27.1296V17.637L27.1086 17.1245L2.12961 18.15ZM8.63325 33V58H26.5603L32.3117 41.0206L8.63325 33ZM9.19215 31.35V6.35H-8.73487L-14.4863 23.3294L9.19215 31.35ZM34.0889 31.35L57.7673 23.3294L52.0159 6.35H34.0889V31.35ZM34.6478 33L10.9693 41.0206L16.7208 58H34.6478V33ZM41.1514 29.9578L16.2229 28.0683L16.1514 29.0117V29.9578H41.1514ZM41.1514 29.7H16.1514V30.6461L16.2229 31.5895L41.1514 29.7ZM41.1514 18.15L16.1725 17.1245L16.1514 17.637V18.15H41.1514ZM41.1006 17.6859L65.3134 11.4617L65.2185 11.0927L65.1125 10.7267L41.1006 17.6859ZM40.0844 14.1797L32.0735 -9.50207L9.41365 -1.83686L16.0726 21.1389L40.0844 14.1797ZM43.2854 13.0969L51.2963 36.7786L74.77 28.8381L67.037 5.29529L43.2854 13.0969ZM42.2692 10.0031L66.0208 2.20154L58.1115 -21.8779L34.1427 -13.6392L42.2692 10.0031ZM39.119 11.0859L15.1403 18.1585L22.533 43.2227L47.2456 34.7283L39.119 11.0859ZM36.8834 3.50625L60.8621 -3.56626L60.8617 -3.56763L36.8834 3.50625ZM33.784 4.48594L57.7631 -2.5855L57.7519 -2.62331L57.7407 -2.66108L33.784 4.48594ZM35.8672 11.55V36.55H69.3042L59.8463 4.47857L35.8672 11.55ZM7.41382 11.55L-16.5652 4.47857L-26.0231 36.55H7.41382V11.55ZM9.49701 4.48594L-14.4774 -2.60136L-14.4797 -2.59343L-14.482 -2.5855L9.49701 4.48594ZM6.44843 14.85V-10.15H-12.2306L-17.5259 7.7627L6.44843 14.85ZM36.8326 14.85L60.807 7.7627L55.5116 -10.15L36.8326 -10.15V14.85ZM37.8996 18.4594H62.8996V14.8415L61.874 11.3721L37.8996 18.4594ZM37.8996 28.05V53.05H62.8996V28.05H37.8996ZM5.38143 28.05H-19.6186V53.05H5.38143V28.05ZM5.38143 18.4594L-18.5929 11.3721L-19.6186 14.8415V18.4594H5.38143ZM15.1369 21.45V-3.55H-1.62374L-7.98968 11.9546L15.1369 21.45ZM13.1045 26.4L-10.0221 16.9046L-24.1853 51.4L13.1045 51.4V26.4ZM16.6104 26.4V51.4H33.0568L39.5678 36.2972L16.6104 26.4ZM17.3217 24.75V-0.25H0.87523L-5.63576 14.8528L17.3217 24.75ZM25.9593 24.75L48.9168 14.8528L42.4058 -0.25H25.9593V24.75ZM26.6707 26.4L3.71322 36.2972L10.2242 51.4H26.6707V26.4ZM30.1765 26.4V51.4H67.4663L53.3031 16.9046L30.1765 26.4ZM28.1442 21.45L51.2707 11.9546L44.9048 -3.55H28.1442V21.45ZM11.0721 -25C-2.1588 -25 -13.8292 -16.2841 -17.5807 -3.56763L30.376 10.5801C27.8566 19.12 20.0096 25 11.0721 25V-25ZM-17.5811 -3.56626L-19.8167 4.01342L28.1407 18.1585L30.3764 10.5788L-17.5811 -3.56626ZM12.2885 -12.5564L9.13833 -13.6392L-7.11474 33.6454L-3.96454 34.7283L12.2885 -12.5564ZM-22.7397 2.20154L-23.7559 5.29529L23.7471 20.8985L24.7633 17.8047L-22.7397 2.20154ZM-8.01528 36.7786L-4.81427 37.8614L11.2075 -9.50207L8.00649 -10.5849L-8.01528 36.7786ZM-20.8152 7.22049L-21.8314 10.7267L26.1923 24.6451L27.2085 21.1389L-20.8152 7.22049ZM-22.0324 11.4619C-22.6274 13.7765 -22.964 16.3821 -22.8493 19.1755L27.1086 17.1245C27.2106 19.6086 26.912 21.8918 26.3933 23.91L-22.0324 11.4619ZM-22.8704 18.15V29.7H27.1296V18.15H-22.8704ZM-22.8704 29.7C-22.8704 29.7001 -22.8704 29.7002 -22.8704 29.7003C-22.8704 29.7004 -22.8704 29.7005 -22.8704 29.7006C-22.8704 29.7007 -22.8704 29.7008 -22.8704 29.7009C-22.8704 29.701 -22.8704 29.7011 -22.8704 29.7012C-22.8704 29.7013 -22.8704 29.7014 -22.8704 29.7015C-22.8704 29.7016 -22.8704 29.7017 -22.8704 29.7018C-22.8704 29.7019 -22.8704 29.702 -22.8704 29.7021C-22.8704 29.7022 -22.8704 29.7023 -22.8704 29.7024C-22.8704 29.7025 -22.8704 29.7026 -22.8704 29.7027C-22.8704 29.7028 -22.8704 29.7029 -22.8704 29.703C-22.8704 29.7031 -22.8704 29.7032 -22.8704 29.7033C-22.8704 29.7034 -22.8704 29.7035 -22.8704 29.7036C-22.8704 29.7037 -22.8704 29.7038 -22.8704 29.7039C-22.8704 29.704 -22.8704 29.7041 -22.8704 29.7042C-22.8704 29.7043 -22.8704 29.7044 -22.8704 29.7045C-22.8704 29.7046 -22.8704 29.7047 -22.8704 29.7048C-22.8704 29.7049 -22.8704 29.705 -22.8704 29.7051C-22.8704 29.7052 -22.8704 29.7053 -22.8704 29.7054C-22.8704 29.7055 -22.8704 29.7056 -22.8704 29.7057C-22.8704 29.7058 -22.8704 29.7059 -22.8704 29.706C-22.8704 29.7061 -22.8704 29.7062 -22.8704 29.7063C-22.8704 29.7064 -22.8704 29.7065 -22.8704 29.7066C-22.8704 29.7067 -22.8704 29.7068 -22.8704 29.7069C-22.8704 29.707 -22.8704 29.7071 -22.8704 29.7073C-22.8704 29.7074 -22.8704 29.7075 -22.8704 29.7076C-22.8704 29.7077 -22.8704 29.7078 -22.8704 29.7079C-22.8704 29.708 -22.8704 29.7081 -22.8704 29.7082C-22.8704 29.7083 -22.8704 29.7084 -22.8704 29.7085C-22.8704 29.7086 -22.8704 29.7087 -22.8704 29.7088C-22.8704 29.7089 -22.8704 29.709 -22.8704 29.7091C-22.8704 29.7092 -22.8704 29.7093 -22.8704 29.7094C-22.8704 29.7095 -22.8704 29.7096 -22.8704 29.7097C-22.8704 29.7098 -22.8704 29.7099 -22.8704 29.71C-22.8704 29.7101 -22.8704 29.7102 -22.8704 29.7103C-22.8704 29.7104 -22.8704 29.7105 -22.8704 29.7106C-22.8704 29.7107 -22.8704 29.7108 -22.8704 29.7109C-22.8704 29.711 -22.8704 29.7111 -22.8704 29.7112C-22.8704 29.7113 -22.8704 29.7114 -22.8704 29.7115C-22.8704 29.7116 -22.8704 29.7117 -22.8704 29.7118C-22.8704 29.7119 -22.8704 29.712 -22.8704 29.7121C-22.8704 29.7122 -22.8704 29.7123 -22.8704 29.7124C-22.8704 29.7125 -22.8704 29.7126 -22.8704 29.7127C-22.8704 29.7128 -22.8704 29.7129 -22.8704 29.713C-22.8704 29.7131 -22.8704 29.7132 -22.8704 29.7133C-22.8704 29.7134 -22.8704 29.7135 -22.8704 29.7136C-22.8704 29.7137 -22.8704 29.7138 -22.8704 29.7139C-22.8704 29.714 -22.8704 29.7141 -22.8704 29.7142C-22.8704 29.7143 -22.8704 29.7144 -22.8704 29.7145C-22.8704 29.7146 -22.8704 29.7147 -22.8704 29.7148C-22.8704 29.7149 -22.8704 29.715 -22.8704 29.7151C-22.8704 29.7152 -22.8704 29.7153 -22.8704 29.7154C-22.8704 29.7155 -22.8704 29.7156 -22.8704 29.7157C-22.8704 29.7158 -22.8704 29.7159 -22.8704 29.716C-22.8704 29.7161 -22.8704 29.7162 -22.8704 29.7163C-22.8704 29.7164 -22.8704 29.7165 -22.8704 29.7166C-22.8704 29.7167 -22.8704 29.7168 -22.8704 29.7169C-22.8704 29.717 -22.8704 29.7171 -22.8704 29.7172C-22.8704 29.7173 -22.8704 29.7174 -22.8704 29.7175C-22.8704 29.7176 -22.8704 29.7177 -22.8704 29.7178C-22.8704 29.7179 -22.8704 29.718 -22.8704 29.7181C-22.8704 29.7182 -22.8704 29.7183 -22.8704 29.7184C-22.8704 29.7185 -22.8704 29.7186 -22.8704 29.7187C-22.8704 29.7188 -22.8704 29.7189 -22.8704 29.719C-22.8704 29.7191 -22.8704 29.7192 -22.8704 29.7193C-22.8704 29.7194 -22.8704 29.7195 -22.8704 29.7196C-22.8704 29.7197 -22.8704 29.7198 -22.8704 29.7199C-22.8704 29.72 -22.8704 29.7201 -22.8704 29.7202C-22.8704 29.7203 -22.8704 29.7204 -22.8704 29.7205C-22.8704 29.7206 -22.8704 29.7207 -22.8704 29.7208C-22.8704 29.7209 -22.8704 29.721 -22.8704 29.7211C-22.8704 29.7212 -22.8704 29.7213 -22.8704 29.7215C-22.8704 29.7216 -22.8704 29.7217 -22.8704 29.7218C-22.8704 29.7219 -22.8704 29.722 -22.8704 29.7221C-22.8704 29.7222 -22.8704 29.7223 -22.8704 29.7224C-22.8704 29.7225 -22.8704 29.7226 -22.8704 29.7227C-22.8704 29.7228 -22.8704 29.7229 -22.8704 29.723C-22.8704 29.7231 -22.8704 29.7232 -22.8704 29.7233C-22.8704 29.7234 -22.8704 29.7235 -22.8704 29.7236C-22.8704 29.7237 -22.8704 29.7238 -22.8704 29.7239C-22.8704 29.724 -22.8704 29.7241 -22.8704 29.7242C-22.8704 29.7243 -22.8704 29.7244 -22.8704 29.7245C-22.8704 29.7246 -22.8704 29.7247 -22.8704 29.7248C-22.8704 29.7249 -22.8704 29.725 -22.8704 29.7251C-22.8704 29.7252 -22.8704 29.7253 -22.8704 29.7254C-22.8704 29.7255 -22.8704 29.7256 -22.8704 29.7257C-22.8704 29.7258 -22.8704 29.7259 -22.8704 29.726C-22.8704 29.7261 -22.8704 29.7262 -22.8704 29.7263C-22.8704 29.7264 -22.8704 29.7265 -22.8704 29.7266C-22.8704 29.7267 -22.8704 29.7268 -22.8704 29.7269C-22.8704 29.727 -22.8704 29.7271 -22.8704 29.7272C-22.8704 29.7273 -22.8704 29.7274 -22.8704 29.7275C-22.8704 29.7276 -22.8704 29.7277 -22.8704 29.7278C-22.8704 29.7279 -22.8704 29.728 -22.8704 29.7281C-22.8704 29.7282 -22.8704 29.7283 -22.8704 29.7284C-22.8704 29.7285 -22.8704 29.7286 -22.8704 29.7287C-22.8704 29.7288 -22.8704 29.7289 -22.8704 29.729C-22.8704 29.7291 -22.8704 29.7292 -22.8704 29.7293C-22.8704 29.7294 -22.8704 29.7295 -22.8704 29.7296C-22.8704 29.7297 -22.8704 29.7298 -22.8704 29.7299C-22.8704 29.73 -22.8704 29.7301 -22.8704 29.7302C-22.8704 29.7303 -22.8704 29.7304 -22.8704 29.7305C-22.8704 29.7306 -22.8704 29.7307 -22.8704 29.7308C-22.8704 29.7309 -22.8704 29.731 -22.8704 29.7311C-22.8704 29.7312 -22.8704 29.7313 -22.8704 29.7314C-22.8704 29.7315 -22.8704 29.7316 -22.8704 29.7317C-22.8704 29.7318 -22.8704 29.7319 -22.8704 29.732C-22.8704 29.7321 -22.8704 29.7322 -22.8704 29.7323C-22.8704 29.7324 -22.8704 29.7325 -22.8704 29.7326C-22.8704 29.7327 -22.8704 29.7328 -22.8704 29.7329C-22.8704 29.733 -22.8704 29.7331 -22.8704 29.7332C-22.8704 29.7333 -22.8704 29.7334 -22.8704 29.7335C-22.8704 29.7336 -22.8704 29.7337 -22.8704 29.7338C-22.8704 29.7339 -22.8704 29.734 -22.8704 29.7341C-22.8704 29.7342 -22.8704 29.7343 -22.8704 29.7344C-22.8704 29.7345 -22.8704 29.7346 -22.8704 29.7347C-22.8704 29.7348 -22.8704 29.7349 -22.8704 29.735C-22.8704 29.7351 -22.8704 29.7352 -22.8704 29.7353C-22.8704 29.7354 -22.8704 29.7355 -22.8704 29.7357C-22.8704 29.7358 -22.8704 29.7359 -22.8704 29.736C-22.8704 29.7361 -22.8704 29.7362 -22.8704 29.7363C-22.8704 29.7364 -22.8704 29.7365 -22.8704 29.7366C-22.8704 29.7367 -22.8704 29.7368 -22.8704 29.7369C-22.8704 29.737 -22.8704 29.7371 -22.8704 29.7372C-22.8704 29.7373 -22.8704 29.7374 -22.8704 29.7375C-22.8704 29.7376 -22.8704 29.7377 -22.8704 29.7378C-22.8704 29.7379 -22.8704 29.738 -22.8704 29.7381C-22.8704 29.7382 -22.8704 29.7383 -22.8704 29.7384C-22.8704 29.7385 -22.8704 29.7386 -22.8704 29.7387C-22.8704 29.7388 -22.8704 29.7389 -22.8704 29.739C-22.8704 29.7391 -22.8704 29.7392 -22.8704 29.7393C-22.8704 29.7394 -22.8704 29.7395 -22.8704 29.7396C-22.8704 29.7397 -22.8704 29.7398 -22.8704 29.7399C-22.8704 29.74 -22.8704 29.7401 -22.8704 29.7402C-22.8704 29.7403 -22.8704 29.7404 -22.8704 29.7405C-22.8704 29.7406 -22.8704 29.7407 -22.8704 29.7408C-22.8704 29.7409 -22.8704 29.741 -22.8704 29.7411C-22.8704 29.7412 -22.8704 29.7413 -22.8704 29.7414C-22.8704 29.7415 -22.8704 29.7416 -22.8704 29.7417C-22.8704 29.7418 -22.8704 29.7419 -22.8704 29.742C-22.8704 29.7421 -22.8704 29.7422 -22.8704 29.7423C-22.8704 29.7424 -22.8704 29.7425 -22.8704 29.7426C-22.8704 29.7427 -22.8704 29.7428 -22.8704 29.7429C-22.8704 29.743 -22.8704 29.7431 -22.8704 29.7432C-22.8704 29.7433 -22.8704 29.7434 -22.8704 29.7435C-22.8704 29.7436 -22.8704 29.7437 -22.8704 29.7438C-22.8704 29.7439 -22.8704 29.744 -22.8704 29.7441C-22.8704 29.7442 -22.8704 29.7443 -22.8704 29.7444C-22.8704 29.7445 -22.8704 29.7446 -22.8704 29.7447C-22.8704 29.7448 -22.8704 29.7449 -22.8704 29.745C-22.8704 29.7451 -22.8704 29.7452 -22.8704 29.7453C-22.8704 29.7454 -22.8704 29.7455 -22.8704 29.7456C-22.8704 29.7457 -22.8704 29.7458 -22.8704 29.7459C-22.8704 29.746 -22.8704 29.7461 -22.8704 29.7462C-22.8704 29.7463 -22.8704 29.7464 -22.8704 29.7465C-22.8704 29.7466 -22.8704 29.7467 -22.8704 29.7468C-22.8704 29.7469 -22.8704 29.747 -22.8704 29.7471C-22.8704 29.7472 -22.8704 29.7473 -22.8704 29.7474C-22.8704 29.7475 -22.8704 29.7476 -22.8704 29.7477C-22.8704 29.7478 -22.8704 29.7479 -22.8704 29.748C-22.8704 29.7481 -22.8704 29.7482 -22.8704 29.7483C-22.8704 29.7484 -22.8704 29.7485 -22.8704 29.7486C-22.8704 29.7487 -22.8704 29.7488 -22.8704 29.7489C-22.8704 29.749 -22.8704 29.7491 -22.8704 29.7492C-22.8704 29.7493 -22.8704 29.7494 -22.8704 29.7495C-22.8704 29.7496 -22.8704 29.7497 -22.8704 29.7499C-22.8704 29.75 -22.8704 29.7501 -22.8704 29.7502C-22.8704 29.7503 -22.8704 29.7504 -22.8704 29.7505C-22.8704 29.7506 -22.8704 29.7507 -22.8704 29.7508C-22.8704 29.7509 -22.8704 29.751 -22.8704 29.7511C-22.8704 29.7512 -22.8704 29.7513 -22.8704 29.7514C-22.8704 29.7515 -22.8704 29.7516 -22.8704 29.7517C-22.8704 29.7518 -22.8704 29.7519 -22.8704 29.752C-22.8704 29.7521 -22.8704 29.7522 -22.8704 29.7523C-22.8704 29.7524 -22.8704 29.7525 -22.8704 29.7526C-22.8704 29.7527 -22.8704 29.7528 -22.8704 29.7529C-22.8704 29.753 -22.8704 29.7531 -22.8704 29.7532C-22.8704 29.7533 -22.8704 29.7534 -22.8704 29.7535C-22.8704 29.7536 -22.8704 29.7537 -22.8704 29.7538C-22.8704 29.7539 -22.8704 29.754 -22.8704 29.7541C-22.8704 29.7542 -22.8704 29.7543 -22.8704 29.7544C-22.8704 29.7545 -22.8704 29.7546 -22.8704 29.7547C-22.8704 29.7548 -22.8704 29.7549 -22.8704 29.755C-22.8704 29.7551 -22.8704 29.7552 -22.8704 29.7553C-22.8704 29.7554 -22.8704 29.7555 -22.8704 29.7556C-22.8704 29.7557 -22.8704 29.7558 -22.8704 29.7559C-22.8704 29.756 -22.8704 29.7561 -22.8704 29.7562C-22.8704 29.7563 -22.8704 29.7564 -22.8704 29.7565C-22.8704 29.7566 -22.8704 29.7567 -22.8704 29.7568C-22.8704 29.7569 -22.8704 29.757 -22.8704 29.7571C-22.8704 29.7572 -22.8704 29.7573 -22.8704 29.7574C-22.8704 29.7575 -22.8704 29.7576 -22.8704 29.7577C-22.8704 29.7578 -22.8704 29.7579 -22.8704 29.758C-22.8704 29.7581 -22.8704 29.7582 -22.8704 29.7583C-22.8704 29.7584 -22.8704 29.7585 -22.8704 29.7586C-22.8704 29.7587 -22.8704 29.7588 -22.8704 29.7589C-22.8704 29.759 -22.8704 29.7591 -22.8704 29.7592C-22.8704 29.7593 -22.8704 29.7594 -22.8704 29.7595C-22.8704 29.7596 -22.8704 29.7597 -22.8704 29.7598C-22.8704 29.7599 -22.8704 29.76 -22.8704 29.7601C-22.8704 29.7602 -22.8704 29.7603 -22.8704 29.7604C-22.8704 29.7605 -22.8704 29.7606 -22.8704 29.7607C-22.8704 29.7608 -22.8704 29.7609 -22.8704 29.761C-22.8704 29.7611 -22.8704 29.7612 -22.8704 29.7613C-22.8704 29.7614 -22.8704 29.7615 -22.8704 29.7616C-22.8704 29.7617 -22.8704 29.7618 -22.8704 29.7619C-22.8704 29.762 -22.8704 29.7621 -22.8704 29.7622C-22.8704 29.7623 -22.8704 29.7624 -22.8704 29.7625C-22.8704 29.7626 -22.8704 29.7627 -22.8704 29.7628C-22.8704 29.7629 -22.8704 29.763 -22.8704 29.7631C-22.8704 29.7632 -22.8704 29.7633 -22.8704 29.7634C-22.8704 29.7635 -22.8704 29.7636 -22.8704 29.7637C-22.8704 29.7638 -22.8704 29.7639 -22.8704 29.764C-22.8704 29.7642 -22.8704 29.7643 -22.8704 29.7644C-22.8704 29.7645 -22.8704 29.7646 -22.8704 29.7647C-22.8704 29.7648 -22.8704 29.7649 -22.8704 29.765C-22.8704 29.7651 -22.8704 29.7652 -22.8704 29.7653C-22.8704 29.7654 -22.8704 29.7655 -22.8704 29.7656C-22.8704 29.7657 -22.8704 29.7658 -22.8704 29.7659C-22.8704 29.766 -22.8704 29.7661 -22.8704 29.7662C-22.8704 29.7663 -22.8704 29.7664 -22.8704 29.7665C-22.8704 29.7666 -22.8704 29.7667 -22.8704 29.7668C-22.8704 29.7669 -22.8704 29.767 -22.8704 29.7671C-22.8704 29.7672 -22.8704 29.7673 -22.8704 29.7674C-22.8704 29.7675 -22.8704 29.7676 -22.8704 29.7677C-22.8704 29.7678 -22.8704 29.7679 -22.8704 29.768C-22.8704 29.7681 -22.8704 29.7682 -22.8704 29.7683C-22.8704 29.7684 -22.8704 29.7685 -22.8704 29.7686C-22.8704 29.7687 -22.8704 29.7688 -22.8704 29.7689C-22.8704 29.769 -22.8704 29.7691 -22.8704 29.7692C-22.8704 29.7693 -22.8704 29.7694 -22.8704 29.7695C-22.8704 29.7696 -22.8704 29.7697 -22.8704 29.7698C-22.8704 29.7699 -22.8704 29.77 -22.8704 29.7701C-22.8704 29.7702 -22.8704 29.7703 -22.8704 29.7704C-22.8704 29.7705 -22.8704 29.7706 -22.8704 29.7707C-22.8704 29.7708 -22.8704 29.7709 -22.8704 29.771C-22.8704 29.7711 -22.8704 29.7712 -22.8704 29.7713C-22.8704 29.7714 -22.8704 29.7715 -22.8704 29.7716C-22.8704 29.7717 -22.8704 29.7718 -22.8704 29.7719C-22.8704 29.772 -22.8704 29.7721 -22.8704 29.7722C-22.8704 29.7723 -22.8704 29.7724 -22.8704 29.7725C-22.8704 29.7726 -22.8704 29.7727 -22.8704 29.7728C-22.8704 29.7729 -22.8704 29.773 -22.8704 29.7731C-22.8704 29.7732 -22.8704 29.7733 -22.8704 29.7734C-22.8704 29.7735 -22.8704 29.7736 -22.8704 29.7737C-22.8704 29.7738 -22.8704 29.7739 -22.8704 29.774C-22.8704 29.7741 -22.8704 29.7742 -22.8704 29.7743C-22.8704 29.7744 -22.8704 29.7745 -22.8704 29.7746C-22.8704 29.7747 -22.8704 29.7748 -22.8704 29.7749C-22.8704 29.775 -22.8704 29.7751 -22.8704 29.7752C-22.8704 29.7753 -22.8704 29.7754 -22.8704 29.7755C-22.8704 29.7756 -22.8704 29.7757 -22.8704 29.7758C-22.8704 29.7759 -22.8704 29.776 -22.8704 29.7761C-22.8704 29.7762 -22.8704 29.7763 -22.8704 29.7764C-22.8704 29.7765 -22.8704 29.7766 -22.8704 29.7767C-22.8704 29.7768 -22.8704 29.7769 -22.8704 29.777C-22.8704 29.7771 -22.8704 29.7772 -22.8704 29.7773C-22.8704 29.7774 -22.8704 29.7775 -22.8704 29.7776C-22.8704 29.7777 -22.8704 29.7778 -22.8704 29.7779C-22.8704 29.778 -22.8704 29.7781 -22.8704 29.7782C-22.8704 29.7784 -22.8704 29.7785 -22.8704 29.7786C-22.8704 29.7787 -22.8704 29.7788 -22.8704 29.7789C-22.8704 29.779 -22.8704 29.7791 -22.8704 29.7792C-22.8704 29.7793 -22.8704 29.7794 -22.8704 29.7795C-22.8704 29.7796 -22.8704 29.7797 -22.8704 29.7798C-22.8704 29.7799 -22.8704 29.78 -22.8704 29.7801C-22.8704 29.7802 -22.8704 29.7803 -22.8704 29.7804C-22.8704 29.7805 -22.8704 29.7806 -22.8704 29.7807C-22.8704 29.7808 -22.8704 29.7809 -22.8704 29.781C-22.8704 29.7811 -22.8704 29.7812 -22.8704 29.7813C-22.8704 29.7814 -22.8704 29.7815 -22.8704 29.7816C-22.8704 29.7817 -22.8704 29.7818 -22.8704 29.7819C-22.8704 29.782 -22.8704 29.7821 -22.8704 29.7822C-22.8704 29.7823 -22.8704 29.7824 -22.8704 29.7825C-22.8704 29.7826 -22.8704 29.7827 -22.8704 29.7828C-22.8704 29.7829 -22.8704 29.783 -22.8704 29.7831C-22.8704 29.7832 -22.8704 29.7833 -22.8704 29.7834C-22.8704 29.7835 -22.8704 29.7836 -22.8704 29.7837C-22.8704 29.7838 -22.8704 29.7839 -22.8704 29.784C-22.8704 29.7841 -22.8704 29.7842 -22.8704 29.7843C-22.8704 29.7844 -22.8704 29.7845 -22.8704 29.7846C-22.8704 29.7847 -22.8704 29.7848 -22.8704 29.7849C-22.8704 29.785 -22.8704 29.7851 -22.8704 29.7852C-22.8704 29.7853 -22.8704 29.7854 -22.8704 29.7855C-22.8704 29.7856 -22.8704 29.7857 -22.8704 29.7858C-22.8704 29.7859 -22.8704 29.786 -22.8704 29.7861C-22.8704 29.7862 -22.8704 29.7863 -22.8704 29.7864C-22.8704 29.7865 -22.8704 29.7866 -22.8704 29.7867C-22.8704 29.7868 -22.8704 29.7869 -22.8704 29.787C-22.8704 29.7871 -22.8704 29.7872 -22.8704 29.7873C-22.8704 29.7874 -22.8704 29.7875 -22.8704 29.7876C-22.8704 29.7877 -22.8704 29.7878 -22.8704 29.7879C-22.8704 29.788 -22.8704 29.7881 -22.8704 29.7882C-22.8704 29.7883 -22.8704 29.7884 -22.8704 29.7885C-22.8704 29.7886 -22.8704 29.7887 -22.8704 29.7888C-22.8704 29.7889 -22.8704 29.789 -22.8704 29.7891C-22.8704 29.7892 -22.8704 29.7893 -22.8704 29.7894C-22.8704 29.7895 -22.8704 29.7896 -22.8704 29.7897C-22.8704 29.7898 -22.8704 29.7899 -22.8704 29.79C-22.8704 29.7901 -22.8704 29.7902 -22.8704 29.7903C-22.8704 29.7904 -22.8704 29.7905 -22.8704 29.7906C-22.8704 29.7907 -22.8704 29.7908 -22.8704 29.7909C-22.8704 29.791 -22.8704 29.7911 -22.8704 29.7912C-22.8704 29.7913 -22.8704 29.7914 -22.8704 29.7915C-22.8704 29.7916 -22.8704 29.7917 -22.8704 29.7918C-22.8704 29.7919 -22.8704 29.792 -22.8704 29.7921C-22.8704 29.7922 -22.8704 29.7923 -22.8704 29.7924C-22.8704 29.7926 -22.8704 29.7927 -22.8704 29.7928C-22.8704 29.7929 -22.8704 29.793 -22.8704 29.7931C-22.8704 29.7932 -22.8704 29.7933 -22.8704 29.7934C-22.8704 29.7935 -22.8704 29.7936 -22.8704 29.7937C-22.8704 29.7938 -22.8704 29.7939 -22.8704 29.794C-22.8704 29.7941 -22.8704 29.7942 -22.8704 29.7943C-22.8704 29.7944 -22.8704 29.7945 -22.8704 29.7946C-22.8704 29.7947 -22.8704 29.7948 -22.8704 29.7949C-22.8704 29.795 -22.8704 29.7951 -22.8704 29.7952C-22.8704 29.7953 -22.8704 29.7954 -22.8704 29.7955C-22.8704 29.7956 -22.8704 29.7957 -22.8704 29.7958C-22.8704 29.7959 -22.8704 29.796 -22.8704 29.7961C-22.8704 29.7962 -22.8704 29.7963 -22.8704 29.7964C-22.8704 29.7965 -22.8704 29.7966 -22.8704 29.7967C-22.8704 29.7968 -22.8704 29.7969 -22.8704 29.797C-22.8704 29.7971 -22.8704 29.7972 -22.8704 29.7973C-22.8704 29.7974 -22.8704 29.7975 -22.8704 29.7976C-22.8704 29.7977 -22.8704 29.7978 -22.8704 29.7979C-22.8704 29.798 -22.8704 29.7981 -22.8704 29.7982C-22.8704 29.7983 -22.8704 29.7984 -22.8704 29.7985C-22.8704 29.7986 -22.8704 29.7987 -22.8704 29.7988C-22.8704 29.7989 -22.8704 29.799 -22.8704 29.7991C-22.8704 29.7992 -22.8704 29.7993 -22.8704 29.7994C-22.8704 29.7995 -22.8704 29.7996 -22.8704 29.7997C-22.8704 29.7998 -22.8704 29.7999 -22.8704 29.8C-22.8704 29.8001 -22.8704 29.8002 -22.8704 29.8003C-22.8704 29.8004 -22.8704 29.8005 -22.8704 29.8006C-22.8704 29.8007 -22.8704 29.8008 -22.8704 29.8009C-22.8704 29.801 -22.8704 29.8011 -22.8704 29.8012C-22.8704 29.8013 -22.8704 29.8014 -22.8704 29.8015C-22.8704 29.8016 -22.8704 29.8017 -22.8704 29.8018C-22.8704 29.8019 -22.8704 29.802 -22.8704 29.8021C-22.8704 29.8022 -22.8704 29.8023 -22.8704 29.8024C-22.8704 29.8025 -22.8704 29.8026 -22.8704 29.8027C-22.8704 29.8028 -22.8704 29.8029 -22.8704 29.803C-22.8704 29.8031 -22.8704 29.8032 -22.8704 29.8033C-22.8704 29.8034 -22.8704 29.8035 -22.8704 29.8036C-22.8704 29.8037 -22.8704 29.8038 -22.8704 29.8039C-22.8704 29.804 -22.8704 29.8041 -22.8704 29.8042C-22.8704 29.8043 -22.8704 29.8044 -22.8704 29.8045C-22.8704 29.8046 -22.8704 29.8047 -22.8704 29.8048C-22.8704 29.8049 -22.8704 29.805 -22.8704 29.8051C-22.8704 29.8052 -22.8704 29.8053 -22.8704 29.8054C-22.8704 29.8055 -22.8704 29.8056 -22.8704 29.8057C-22.8704 29.8058 -22.8704 29.8059 -22.8704 29.806C-22.8704 29.8061 -22.8704 29.8062 -22.8704 29.8063C-22.8704 29.8064 -22.8704 29.8065 -22.8704 29.8066C-22.8704 29.8068 -22.8704 29.8069 -22.8704 29.807C-22.8704 29.8071 -22.8704 29.8072 -22.8704 29.8073C-22.8704 29.8074 -22.8704 29.8075 -22.8704 29.8076C-22.8704 29.8077 -22.8704 29.8078 -22.8704 29.8079C-22.8704 29.808 -22.8704 29.8081 -22.8704 29.8082C-22.8704 29.8083 -22.8704 29.8084 -22.8704 29.8085C-22.8704 29.8086 -22.8704 29.8087 -22.8704 29.8088C-22.8704 29.8089 -22.8704 29.809 -22.8704 29.8091C-22.8704 29.8092 -22.8704 29.8093 -22.8704 29.8094C-22.8704 29.8095 -22.8704 29.8096 -22.8704 29.8097C-22.8704 29.8098 -22.8704 29.8099 -22.8704 29.81C-22.8704 29.8101 -22.8704 29.8102 -22.8704 29.8103C-22.8704 29.8104 -22.8704 29.8105 -22.8704 29.8106C-22.8704 29.8107 -22.8704 29.8108 -22.8704 29.8109C-22.8704 29.811 -22.8704 29.8111 -22.8704 29.8112C-22.8704 29.8113 -22.8704 29.8114 -22.8704 29.8115C-22.8704 29.8116 -22.8704 29.8117 -22.8704 29.8118C-22.8704 29.8119 -22.8704 29.812 -22.8704 29.8121C-22.8704 29.8122 -22.8704 29.8123 -22.8704 29.8124C-22.8704 29.8125 -22.8704 29.8126 -22.8704 29.8127C-22.8704 29.8128 -22.8704 29.8129 -22.8704 29.813C-22.8704 29.8131 -22.8704 29.8132 -22.8704 29.8133C-22.8704 29.8134 -22.8704 29.8135 -22.8704 29.8136C-22.8704 29.8137 -22.8704 29.8138 -22.8704 29.8139C-22.8704 29.814 -22.8704 29.8141 -22.8704 29.8142C-22.8704 29.8143 -22.8704 29.8144 -22.8704 29.8145C-22.8704 29.8146 -22.8704 29.8147 -22.8704 29.8148C-22.8704 29.8149 -22.8704 29.815 -22.8704 29.8151C-22.8704 29.8152 -22.8704 29.8153 -22.8704 29.8154C-22.8704 29.8155 -22.8704 29.8156 -22.8704 29.8157C-22.8704 29.8158 -22.8704 29.8159 -22.8704 29.816C-22.8704 29.8161 -22.8704 29.8162 -22.8704 29.8163C-22.8704 29.8164 -22.8704 29.8165 -22.8704 29.8166C-22.8704 29.8167 -22.8704 29.8168 -22.8704 29.8169C-22.8704 29.817 -22.8704 29.8171 -22.8704 29.8172C-22.8704 29.8173 -22.8704 29.8174 -22.8704 29.8175C-22.8704 29.8176 -22.8704 29.8177 -22.8704 29.8178C-22.8704 29.8179 -22.8704 29.818 -22.8704 29.8181C-22.8704 29.8182 -22.8704 29.8183 -22.8704 29.8184C-22.8704 29.8185 -22.8704 29.8186 -22.8704 29.8187C-22.8704 29.8188 -22.8704 29.8189 -22.8704 29.819C-22.8704 29.8191 -22.8704 29.8192 -22.8704 29.8193C-22.8704 29.8194 -22.8704 29.8195 -22.8704 29.8196C-22.8704 29.8197 -22.8704 29.8198 -22.8704 29.8199C-22.8704 29.82 -22.8704 29.8201 -22.8704 29.8202C-22.8704 29.8203 -22.8704 29.8204 -22.8704 29.8205C-22.8704 29.8206 -22.8704 29.8207 -22.8704 29.8208C-22.8704 29.8209 -22.8704 29.8211 -22.8704 29.8212C-22.8704 29.8213 -22.8704 29.8214 -22.8704 29.8215C-22.8704 29.8216 -22.8704 29.8217 -22.8704 29.8218C-22.8704 29.8219 -22.8704 29.822 -22.8704 29.8221C-22.8704 29.8222 -22.8704 29.8223 -22.8704 29.8224C-22.8704 29.8225 -22.8704 29.8226 -22.8704 29.8227C-22.8704 29.8228 -22.8704 29.8229 -22.8704 29.823C-22.8704 29.8231 -22.8704 29.8232 -22.8704 29.8233C-22.8704 29.8234 -22.8704 29.8235 -22.8704 29.8236C-22.8704 29.8237 -22.8704 29.8238 -22.8704 29.8239C-22.8704 29.824 -22.8704 29.8241 -22.8704 29.8242C-22.8704 29.8243 -22.8704 29.8244 -22.8704 29.8245C-22.8704 29.8246 -22.8704 29.8247 -22.8704 29.8248C-22.8704 29.8249 -22.8704 29.825 -22.8704 29.8251C-22.8704 29.8252 -22.8704 29.8253 -22.8704 29.8254C-22.8704 29.8255 -22.8704 29.8256 -22.8704 29.8257C-22.8704 29.8258 -22.8704 29.8259 -22.8704 29.826C-22.8704 29.8261 -22.8704 29.8262 -22.8704 29.8263C-22.8704 29.8264 -22.8704 29.8265 -22.8704 29.8266C-22.8704 29.8267 -22.8704 29.8268 -22.8704 29.8269C-22.8704 29.827 -22.8704 29.8271 -22.8704 29.8272C-22.8704 29.8273 -22.8704 29.8274 -22.8704 29.8275C-22.8704 29.8276 -22.8704 29.8277 -22.8704 29.8278C-22.8704 29.8279 -22.8704 29.828 -22.8704 29.8281C-22.8704 29.8282 -22.8704 29.8283 -22.8704 29.8284C-22.8704 29.8285 -22.8704 29.8286 -22.8704 29.8287C-22.8704 29.8288 -22.8704 29.8289 -22.8704 29.829C-22.8704 29.8291 -22.8704 29.8292 -22.8704 29.8293C-22.8704 29.8294 -22.8704 29.8295 -22.8704 29.8296C-22.8704 29.8297 -22.8704 29.8298 -22.8704 29.8299C-22.8704 29.83 -22.8704 29.8301 -22.8704 29.8302C-22.8704 29.8303 -22.8704 29.8304 -22.8704 29.8305C-22.8704 29.8306 -22.8704 29.8307 -22.8704 29.8308C-22.8704 29.8309 -22.8704 29.831 -22.8704 29.8311C-22.8704 29.8312 -22.8704 29.8313 -22.8704 29.8314C-22.8704 29.8315 -22.8704 29.8316 -22.8704 29.8317C-22.8704 29.8318 -22.8704 29.8319 -22.8704 29.832C-22.8704 29.8321 -22.8704 29.8322 -22.8704 29.8323C-22.8704 29.8324 -22.8704 29.8325 -22.8704 29.8326C-22.8704 29.8327 -22.8704 29.8328 -22.8704 29.8329C-22.8704 29.833 -22.8704 29.8331 -22.8704 29.8332C-22.8704 29.8333 -22.8704 29.8334 -22.8704 29.8335C-22.8704 29.8336 -22.8704 29.8337 -22.8704 29.8338C-22.8704 29.8339 -22.8704 29.834 -22.8704 29.8341C-22.8704 29.8342 -22.8704 29.8343 -22.8704 29.8344C-22.8704 29.8345 -22.8704 29.8346 -22.8704 29.8347C-22.8704 29.8348 -22.8704 29.8349 -22.8704 29.835C-22.8704 29.8351 -22.8704 29.8353 -22.8704 29.8354C-22.8704 29.8355 -22.8704 29.8356 -22.8704 29.8357C-22.8704 29.8358 -22.8704 29.8359 -22.8704 29.836C-22.8704 29.8361 -22.8704 29.8362 -22.8704 29.8363C-22.8704 29.8364 -22.8704 29.8365 -22.8704 29.8366C-22.8704 29.8367 -22.8704 29.8368 -22.8704 29.8369C-22.8704 29.837 -22.8704 29.8371 -22.8704 29.8372C-22.8704 29.8373 -22.8704 29.8374 -22.8704 29.8375C-22.8704 29.8376 -22.8704 29.8377 -22.8704 29.8378C-22.8704 29.8379 -22.8704 29.838 -22.8704 29.8381C-22.8704 29.8382 -22.8704 29.8383 -22.8704 29.8384C-22.8704 29.8385 -22.8704 29.8386 -22.8704 29.8387C-22.8704 29.8388 -22.8704 29.8389 -22.8704 29.839C-22.8704 29.8391 -22.8704 29.8392 -22.8704 29.8393C-22.8704 29.8394 -22.8704 29.8395 -22.8704 29.8396C-22.8704 29.8397 -22.8704 29.8398 -22.8704 29.8399C-22.8704 29.84 -22.8704 29.8401 -22.8704 29.8402C-22.8704 29.8403 -22.8704 29.8404 -22.8704 29.8405C-22.8704 29.8406 -22.8704 29.8407 -22.8704 29.8408C-22.8704 29.8409 -22.8704 29.841 -22.8704 29.8411C-22.8704 29.8412 -22.8704 29.8413 -22.8704 29.8414C-22.8704 29.8415 -22.8704 29.8416 -22.8704 29.8417C-22.8704 29.8418 -22.8704 29.8419 -22.8704 29.842C-22.8704 29.8421 -22.8704 29.8422 -22.8704 29.8423C-22.8704 29.8424 -22.8704 29.8425 -22.8704 29.8426C-22.8704 29.8427 -22.8704 29.8428 -22.8704 29.8429C-22.8704 29.843 -22.8704 29.8431 -22.8704 29.8432C-22.8704 29.8433 -22.8704 29.8434 -22.8704 29.8435C-22.8704 29.8436 -22.8704 29.8437 -22.8704 29.8438C-22.8704 29.8439 -22.8704 29.844 -22.8704 29.8441C-22.8704 29.8442 -22.8704 29.8443 -22.8704 29.8444C-22.8704 29.8445 -22.8704 29.8446 -22.8704 29.8447C-22.8704 29.8448 -22.8704 29.8449 -22.8704 29.845C-22.8704 29.8451 -22.8704 29.8452 -22.8704 29.8453C-22.8704 29.8454 -22.8704 29.8455 -22.8704 29.8456C-22.8704 29.8457 -22.8704 29.8458 -22.8704 29.8459C-22.8704 29.846 -22.8704 29.8461 -22.8704 29.8462C-22.8704 29.8463 -22.8704 29.8464 -22.8704 29.8465C-22.8704 29.8466 -22.8704 29.8467 -22.8704 29.8468C-22.8704 29.8469 -22.8704 29.847 -22.8704 29.8471C-22.8704 29.8472 -22.8704 29.8473 -22.8704 29.8474C-22.8704 29.8475 -22.8704 29.8476 -22.8704 29.8477C-22.8704 29.8478 -22.8704 29.8479 -22.8704 29.848C-22.8704 29.8481 -22.8704 29.8482 -22.8704 29.8483C-22.8704 29.8484 -22.8704 29.8485 -22.8704 29.8486C-22.8704 29.8487 -22.8704 29.8488 -22.8704 29.8489C-22.8704 29.849 -22.8704 29.8491 -22.8704 29.8492C-22.8704 29.8493 -22.8704 29.8495 -22.8704 29.8496C-22.8704 29.8497 -22.8704 29.8498 -22.8704 29.8499C-22.8704 29.85 -22.8704 29.8501 -22.8704 29.8502C-22.8704 29.8503 -22.8704 29.8504 -22.8704 29.8505C-22.8704 29.8506 -22.8704 29.8507 -22.8704 29.8508C-22.8704 29.8509 -22.8704 29.851 -22.8704 29.8511C-22.8704 29.8512 -22.8704 29.8513 -22.8704 29.8514C-22.8704 29.8515 -22.8704 29.8516 -22.8704 29.8517C-22.8704 29.8518 -22.8704 29.8519 -22.8704 29.852C-22.8704 29.8521 -22.8704 29.8522 -22.8704 29.8523C-22.8704 29.8524 -22.8704 29.8525 -22.8704 29.8526C-22.8704 29.8527 -22.8704 29.8528 -22.8704 29.8529C-22.8704 29.853 -22.8704 29.8531 -22.8704 29.8532C-22.8704 29.8533 -22.8704 29.8534 -22.8704 29.8535C-22.8704 29.8536 -22.8704 29.8537 -22.8704 29.8538C-22.8704 29.8539 -22.8704 29.854 -22.8704 29.8541C-22.8704 29.8542 -22.8704 29.8543 -22.8704 29.8544C-22.8704 29.8545 -22.8704 29.8546 -22.8704 29.8547H27.1296C27.1296 29.8546 27.1296 29.8545 27.1296 29.8544C27.1296 29.8543 27.1296 29.8542 27.1296 29.8541C27.1296 29.854 27.1296 29.8539 27.1296 29.8538C27.1296 29.8537 27.1296 29.8536 27.1296 29.8535C27.1296 29.8534 27.1296 29.8533 27.1296 29.8532C27.1296 29.8531 27.1296 29.853 27.1296 29.8529C27.1296 29.8528 27.1296 29.8527 27.1296 29.8526C27.1296 29.8525 27.1296 29.8524 27.1296 29.8523C27.1296 29.8522 27.1296 29.8521 27.1296 29.852C27.1296 29.8519 27.1296 29.8518 27.1296 29.8517C27.1296 29.8516 27.1296 29.8515 27.1296 29.8514C27.1296 29.8513 27.1296 29.8512 27.1296 29.8511C27.1296 29.851 27.1296 29.8509 27.1296 29.8508C27.1296 29.8507 27.1296 29.8506 27.1296 29.8505C27.1296 29.8504 27.1296 29.8503 27.1296 29.8502C27.1296 29.8501 27.1296 29.85 27.1296 29.8499C27.1296 29.8498 27.1296 29.8497 27.1296 29.8496C27.1296 29.8495 27.1296 29.8493 27.1296 29.8492C27.1296 29.8491 27.1296 29.849 27.1296 29.8489C27.1296 29.8488 27.1296 29.8487 27.1296 29.8486C27.1296 29.8485 27.1296 29.8484 27.1296 29.8483C27.1296 29.8482 27.1296 29.8481 27.1296 29.848C27.1296 29.8479 27.1296 29.8478 27.1296 29.8477C27.1296 29.8476 27.1296 29.8475 27.1296 29.8474C27.1296 29.8473 27.1296 29.8472 27.1296 29.8471C27.1296 29.847 27.1296 29.8469 27.1296 29.8468C27.1296 29.8467 27.1296 29.8466 27.1296 29.8465C27.1296 29.8464 27.1296 29.8463 27.1296 29.8462C27.1296 29.8461 27.1296 29.846 27.1296 29.8459C27.1296 29.8458 27.1296 29.8457 27.1296 29.8456C27.1296 29.8455 27.1296 29.8454 27.1296 29.8453C27.1296 29.8452 27.1296 29.8451 27.1296 29.845C27.1296 29.8449 27.1296 29.8448 27.1296 29.8447C27.1296 29.8446 27.1296 29.8445 27.1296 29.8444C27.1296 29.8443 27.1296 29.8442 27.1296 29.8441C27.1296 29.844 27.1296 29.8439 27.1296 29.8438C27.1296 29.8437 27.1296 29.8436 27.1296 29.8435C27.1296 29.8434 27.1296 29.8433 27.1296 29.8432C27.1296 29.8431 27.1296 29.843 27.1296 29.8429C27.1296 29.8428 27.1296 29.8427 27.1296 29.8426C27.1296 29.8425 27.1296 29.8424 27.1296 29.8423C27.1296 29.8422 27.1296 29.8421 27.1296 29.842C27.1296 29.8419 27.1296 29.8418 27.1296 29.8417C27.1296 29.8416 27.1296 29.8415 27.1296 29.8414C27.1296 29.8413 27.1296 29.8412 27.1296 29.8411C27.1296 29.841 27.1296 29.8409 27.1296 29.8408C27.1296 29.8407 27.1296 29.8406 27.1296 29.8405C27.1296 29.8404 27.1296 29.8403 27.1296 29.8402C27.1296 29.8401 27.1296 29.84 27.1296 29.8399C27.1296 29.8398 27.1296 29.8397 27.1296 29.8396C27.1296 29.8395 27.1296 29.8394 27.1296 29.8393C27.1296 29.8392 27.1296 29.8391 27.1296 29.839C27.1296 29.8389 27.1296 29.8388 27.1296 29.8387C27.1296 29.8386 27.1296 29.8385 27.1296 29.8384C27.1296 29.8383 27.1296 29.8382 27.1296 29.8381C27.1296 29.838 27.1296 29.8379 27.1296 29.8378C27.1296 29.8377 27.1296 29.8376 27.1296 29.8375C27.1296 29.8374 27.1296 29.8373 27.1296 29.8372C27.1296 29.8371 27.1296 29.837 27.1296 29.8369C27.1296 29.8368 27.1296 29.8367 27.1296 29.8366C27.1296 29.8365 27.1296 29.8364 27.1296 29.8363C27.1296 29.8362 27.1296 29.8361 27.1296 29.836C27.1296 29.8359 27.1296 29.8358 27.1296 29.8357C27.1296 29.8356 27.1296 29.8355 27.1296 29.8354C27.1296 29.8353 27.1296 29.8351 27.1296 29.835C27.1296 29.8349 27.1296 29.8348 27.1296 29.8347C27.1296 29.8346 27.1296 29.8345 27.1296 29.8344C27.1296 29.8343 27.1296 29.8342 27.1296 29.8341C27.1296 29.834 27.1296 29.8339 27.1296 29.8338C27.1296 29.8337 27.1296 29.8336 27.1296 29.8335C27.1296 29.8334 27.1296 29.8333 27.1296 29.8332C27.1296 29.8331 27.1296 29.833 27.1296 29.8329C27.1296 29.8328 27.1296 29.8327 27.1296 29.8326C27.1296 29.8325 27.1296 29.8324 27.1296 29.8323C27.1296 29.8322 27.1296 29.8321 27.1296 29.832C27.1296 29.8319 27.1296 29.8318 27.1296 29.8317C27.1296 29.8316 27.1296 29.8315 27.1296 29.8314C27.1296 29.8313 27.1296 29.8312 27.1296 29.8311C27.1296 29.831 27.1296 29.8309 27.1296 29.8308C27.1296 29.8307 27.1296 29.8306 27.1296 29.8305C27.1296 29.8304 27.1296 29.8303 27.1296 29.8302C27.1296 29.8301 27.1296 29.83 27.1296 29.8299C27.1296 29.8298 27.1296 29.8297 27.1296 29.8296C27.1296 29.8295 27.1296 29.8294 27.1296 29.8293C27.1296 29.8292 27.1296 29.8291 27.1296 29.829C27.1296 29.8289 27.1296 29.8288 27.1296 29.8287C27.1296 29.8286 27.1296 29.8285 27.1296 29.8284C27.1296 29.8283 27.1296 29.8282 27.1296 29.8281C27.1296 29.828 27.1296 29.8279 27.1296 29.8278C27.1296 29.8277 27.1296 29.8276 27.1296 29.8275C27.1296 29.8274 27.1296 29.8273 27.1296 29.8272C27.1296 29.8271 27.1296 29.827 27.1296 29.8269C27.1296 29.8268 27.1296 29.8267 27.1296 29.8266C27.1296 29.8265 27.1296 29.8264 27.1296 29.8263C27.1296 29.8262 27.1296 29.8261 27.1296 29.826C27.1296 29.8259 27.1296 29.8258 27.1296 29.8257C27.1296 29.8256 27.1296 29.8255 27.1296 29.8254C27.1296 29.8253 27.1296 29.8252 27.1296 29.8251C27.1296 29.825 27.1296 29.8249 27.1296 29.8248C27.1296 29.8247 27.1296 29.8246 27.1296 29.8245C27.1296 29.8244 27.1296 29.8243 27.1296 29.8242C27.1296 29.8241 27.1296 29.824 27.1296 29.8239C27.1296 29.8238 27.1296 29.8237 27.1296 29.8236C27.1296 29.8235 27.1296 29.8234 27.1296 29.8233C27.1296 29.8232 27.1296 29.8231 27.1296 29.823C27.1296 29.8229 27.1296 29.8228 27.1296 29.8227C27.1296 29.8226 27.1296 29.8225 27.1296 29.8224C27.1296 29.8223 27.1296 29.8222 27.1296 29.8221C27.1296 29.822 27.1296 29.8219 27.1296 29.8218C27.1296 29.8217 27.1296 29.8216 27.1296 29.8215C27.1296 29.8214 27.1296 29.8213 27.1296 29.8212C27.1296 29.8211 27.1296 29.8209 27.1296 29.8208C27.1296 29.8207 27.1296 29.8206 27.1296 29.8205C27.1296 29.8204 27.1296 29.8203 27.1296 29.8202C27.1296 29.8201 27.1296 29.82 27.1296 29.8199C27.1296 29.8198 27.1296 29.8197 27.1296 29.8196C27.1296 29.8195 27.1296 29.8194 27.1296 29.8193C27.1296 29.8192 27.1296 29.8191 27.1296 29.819C27.1296 29.8189 27.1296 29.8188 27.1296 29.8187C27.1296 29.8186 27.1296 29.8185 27.1296 29.8184C27.1296 29.8183 27.1296 29.8182 27.1296 29.8181C27.1296 29.818 27.1296 29.8179 27.1296 29.8178C27.1296 29.8177 27.1296 29.8176 27.1296 29.8175C27.1296 29.8174 27.1296 29.8173 27.1296 29.8172C27.1296 29.8171 27.1296 29.817 27.1296 29.8169C27.1296 29.8168 27.1296 29.8167 27.1296 29.8166C27.1296 29.8165 27.1296 29.8164 27.1296 29.8163C27.1296 29.8162 27.1296 29.8161 27.1296 29.816C27.1296 29.8159 27.1296 29.8158 27.1296 29.8157C27.1296 29.8156 27.1296 29.8155 27.1296 29.8154C27.1296 29.8153 27.1296 29.8152 27.1296 29.8151C27.1296 29.815 27.1296 29.8149 27.1296 29.8148C27.1296 29.8147 27.1296 29.8146 27.1296 29.8145C27.1296 29.8144 27.1296 29.8143 27.1296 29.8142C27.1296 29.8141 27.1296 29.814 27.1296 29.8139C27.1296 29.8138 27.1296 29.8137 27.1296 29.8136C27.1296 29.8135 27.1296 29.8134 27.1296 29.8133C27.1296 29.8132 27.1296 29.8131 27.1296 29.813C27.1296 29.8129 27.1296 29.8128 27.1296 29.8127C27.1296 29.8126 27.1296 29.8125 27.1296 29.8124C27.1296 29.8123 27.1296 29.8122 27.1296 29.8121C27.1296 29.812 27.1296 29.8119 27.1296 29.8118C27.1296 29.8117 27.1296 29.8116 27.1296 29.8115C27.1296 29.8114 27.1296 29.8113 27.1296 29.8112C27.1296 29.8111 27.1296 29.811 27.1296 29.8109C27.1296 29.8108 27.1296 29.8107 27.1296 29.8106C27.1296 29.8105 27.1296 29.8104 27.1296 29.8103C27.1296 29.8102 27.1296 29.8101 27.1296 29.81C27.1296 29.8099 27.1296 29.8098 27.1296 29.8097C27.1296 29.8096 27.1296 29.8095 27.1296 29.8094C27.1296 29.8093 27.1296 29.8092 27.1296 29.8091C27.1296 29.809 27.1296 29.8089 27.1296 29.8088C27.1296 29.8087 27.1296 29.8086 27.1296 29.8085C27.1296 29.8084 27.1296 29.8083 27.1296 29.8082C27.1296 29.8081 27.1296 29.808 27.1296 29.8079C27.1296 29.8078 27.1296 29.8077 27.1296 29.8076C27.1296 29.8075 27.1296 29.8074 27.1296 29.8073C27.1296 29.8072 27.1296 29.8071 27.1296 29.807C27.1296 29.8069 27.1296 29.8068 27.1296 29.8066C27.1296 29.8065 27.1296 29.8064 27.1296 29.8063C27.1296 29.8062 27.1296 29.8061 27.1296 29.806C27.1296 29.8059 27.1296 29.8058 27.1296 29.8057C27.1296 29.8056 27.1296 29.8055 27.1296 29.8054C27.1296 29.8053 27.1296 29.8052 27.1296 29.8051C27.1296 29.805 27.1296 29.8049 27.1296 29.8048C27.1296 29.8047 27.1296 29.8046 27.1296 29.8045C27.1296 29.8044 27.1296 29.8043 27.1296 29.8042C27.1296 29.8041 27.1296 29.804 27.1296 29.8039C27.1296 29.8038 27.1296 29.8037 27.1296 29.8036C27.1296 29.8035 27.1296 29.8034 27.1296 29.8033C27.1296 29.8032 27.1296 29.8031 27.1296 29.803C27.1296 29.8029 27.1296 29.8028 27.1296 29.8027C27.1296 29.8026 27.1296 29.8025 27.1296 29.8024C27.1296 29.8023 27.1296 29.8022 27.1296 29.8021C27.1296 29.802 27.1296 29.8019 27.1296 29.8018C27.1296 29.8017 27.1296 29.8016 27.1296 29.8015C27.1296 29.8014 27.1296 29.8013 27.1296 29.8012C27.1296 29.8011 27.1296 29.801 27.1296 29.8009C27.1296 29.8008 27.1296 29.8007 27.1296 29.8006C27.1296 29.8005 27.1296 29.8004 27.1296 29.8003C27.1296 29.8002 27.1296 29.8001 27.1296 29.8C27.1296 29.7999 27.1296 29.7998 27.1296 29.7997C27.1296 29.7996 27.1296 29.7995 27.1296 29.7994C27.1296 29.7993 27.1296 29.7992 27.1296 29.7991C27.1296 29.799 27.1296 29.7989 27.1296 29.7988C27.1296 29.7987 27.1296 29.7986 27.1296 29.7985C27.1296 29.7984 27.1296 29.7983 27.1296 29.7982C27.1296 29.7981 27.1296 29.798 27.1296 29.7979C27.1296 29.7978 27.1296 29.7977 27.1296 29.7976C27.1296 29.7975 27.1296 29.7974 27.1296 29.7973C27.1296 29.7972 27.1296 29.7971 27.1296 29.797C27.1296 29.7969 27.1296 29.7968 27.1296 29.7967C27.1296 29.7966 27.1296 29.7965 27.1296 29.7964C27.1296 29.7963 27.1296 29.7962 27.1296 29.7961C27.1296 29.796 27.1296 29.7959 27.1296 29.7958C27.1296 29.7957 27.1296 29.7956 27.1296 29.7955C27.1296 29.7954 27.1296 29.7953 27.1296 29.7952C27.1296 29.7951 27.1296 29.795 27.1296 29.7949C27.1296 29.7948 27.1296 29.7947 27.1296 29.7946C27.1296 29.7945 27.1296 29.7944 27.1296 29.7943C27.1296 29.7942 27.1296 29.7941 27.1296 29.794C27.1296 29.7939 27.1296 29.7938 27.1296 29.7937C27.1296 29.7936 27.1296 29.7935 27.1296 29.7934C27.1296 29.7933 27.1296 29.7932 27.1296 29.7931C27.1296 29.793 27.1296 29.7929 27.1296 29.7928C27.1296 29.7927 27.1296 29.7926 27.1296 29.7924C27.1296 29.7923 27.1296 29.7922 27.1296 29.7921C27.1296 29.792 27.1296 29.7919 27.1296 29.7918C27.1296 29.7917 27.1296 29.7916 27.1296 29.7915C27.1296 29.7914 27.1296 29.7913 27.1296 29.7912C27.1296 29.7911 27.1296 29.791 27.1296 29.7909C27.1296 29.7908 27.1296 29.7907 27.1296 29.7906C27.1296 29.7905 27.1296 29.7904 27.1296 29.7903C27.1296 29.7902 27.1296 29.7901 27.1296 29.79C27.1296 29.7899 27.1296 29.7898 27.1296 29.7897C27.1296 29.7896 27.1296 29.7895 27.1296 29.7894C27.1296 29.7893 27.1296 29.7892 27.1296 29.7891C27.1296 29.789 27.1296 29.7889 27.1296 29.7888C27.1296 29.7887 27.1296 29.7886 27.1296 29.7885C27.1296 29.7884 27.1296 29.7883 27.1296 29.7882C27.1296 29.7881 27.1296 29.788 27.1296 29.7879C27.1296 29.7878 27.1296 29.7877 27.1296 29.7876C27.1296 29.7875 27.1296 29.7874 27.1296 29.7873C27.1296 29.7872 27.1296 29.7871 27.1296 29.787C27.1296 29.7869 27.1296 29.7868 27.1296 29.7867C27.1296 29.7866 27.1296 29.7865 27.1296 29.7864C27.1296 29.7863 27.1296 29.7862 27.1296 29.7861C27.1296 29.786 27.1296 29.7859 27.1296 29.7858C27.1296 29.7857 27.1296 29.7856 27.1296 29.7855C27.1296 29.7854 27.1296 29.7853 27.1296 29.7852C27.1296 29.7851 27.1296 29.785 27.1296 29.7849C27.1296 29.7848 27.1296 29.7847 27.1296 29.7846C27.1296 29.7845 27.1296 29.7844 27.1296 29.7843C27.1296 29.7842 27.1296 29.7841 27.1296 29.784C27.1296 29.7839 27.1296 29.7838 27.1296 29.7837C27.1296 29.7836 27.1296 29.7835 27.1296 29.7834C27.1296 29.7833 27.1296 29.7832 27.1296 29.7831C27.1296 29.783 27.1296 29.7829 27.1296 29.7828C27.1296 29.7827 27.1296 29.7826 27.1296 29.7825C27.1296 29.7824 27.1296 29.7823 27.1296 29.7822C27.1296 29.7821 27.1296 29.782 27.1296 29.7819C27.1296 29.7818 27.1296 29.7817 27.1296 29.7816C27.1296 29.7815 27.1296 29.7814 27.1296 29.7813C27.1296 29.7812 27.1296 29.7811 27.1296 29.781C27.1296 29.7809 27.1296 29.7808 27.1296 29.7807C27.1296 29.7806 27.1296 29.7805 27.1296 29.7804C27.1296 29.7803 27.1296 29.7802 27.1296 29.7801C27.1296 29.78 27.1296 29.7799 27.1296 29.7798C27.1296 29.7797 27.1296 29.7796 27.1296 29.7795C27.1296 29.7794 27.1296 29.7793 27.1296 29.7792C27.1296 29.7791 27.1296 29.779 27.1296 29.7789C27.1296 29.7788 27.1296 29.7787 27.1296 29.7786C27.1296 29.7785 27.1296 29.7784 27.1296 29.7782C27.1296 29.7781 27.1296 29.778 27.1296 29.7779C27.1296 29.7778 27.1296 29.7777 27.1296 29.7776C27.1296 29.7775 27.1296 29.7774 27.1296 29.7773C27.1296 29.7772 27.1296 29.7771 27.1296 29.777C27.1296 29.7769 27.1296 29.7768 27.1296 29.7767C27.1296 29.7766 27.1296 29.7765 27.1296 29.7764C27.1296 29.7763 27.1296 29.7762 27.1296 29.7761C27.1296 29.776 27.1296 29.7759 27.1296 29.7758C27.1296 29.7757 27.1296 29.7756 27.1296 29.7755C27.1296 29.7754 27.1296 29.7753 27.1296 29.7752C27.1296 29.7751 27.1296 29.775 27.1296 29.7749C27.1296 29.7748 27.1296 29.7747 27.1296 29.7746C27.1296 29.7745 27.1296 29.7744 27.1296 29.7743C27.1296 29.7742 27.1296 29.7741 27.1296 29.774C27.1296 29.7739 27.1296 29.7738 27.1296 29.7737C27.1296 29.7736 27.1296 29.7735 27.1296 29.7734C27.1296 29.7733 27.1296 29.7732 27.1296 29.7731C27.1296 29.773 27.1296 29.7729 27.1296 29.7728C27.1296 29.7727 27.1296 29.7726 27.1296 29.7725C27.1296 29.7724 27.1296 29.7723 27.1296 29.7722C27.1296 29.7721 27.1296 29.772 27.1296 29.7719C27.1296 29.7718 27.1296 29.7717 27.1296 29.7716C27.1296 29.7715 27.1296 29.7714 27.1296 29.7713C27.1296 29.7712 27.1296 29.7711 27.1296 29.771C27.1296 29.7709 27.1296 29.7708 27.1296 29.7707C27.1296 29.7706 27.1296 29.7705 27.1296 29.7704C27.1296 29.7703 27.1296 29.7702 27.1296 29.7701C27.1296 29.77 27.1296 29.7699 27.1296 29.7698C27.1296 29.7697 27.1296 29.7696 27.1296 29.7695C27.1296 29.7694 27.1296 29.7693 27.1296 29.7692C27.1296 29.7691 27.1296 29.769 27.1296 29.7689C27.1296 29.7688 27.1296 29.7687 27.1296 29.7686C27.1296 29.7685 27.1296 29.7684 27.1296 29.7683C27.1296 29.7682 27.1296 29.7681 27.1296 29.768C27.1296 29.7679 27.1296 29.7678 27.1296 29.7677C27.1296 29.7676 27.1296 29.7675 27.1296 29.7674C27.1296 29.7673 27.1296 29.7672 27.1296 29.7671C27.1296 29.767 27.1296 29.7669 27.1296 29.7668C27.1296 29.7667 27.1296 29.7666 27.1296 29.7665C27.1296 29.7664 27.1296 29.7663 27.1296 29.7662C27.1296 29.7661 27.1296 29.766 27.1296 29.7659C27.1296 29.7658 27.1296 29.7657 27.1296 29.7656C27.1296 29.7655 27.1296 29.7654 27.1296 29.7653C27.1296 29.7652 27.1296 29.7651 27.1296 29.765C27.1296 29.7649 27.1296 29.7648 27.1296 29.7647C27.1296 29.7646 27.1296 29.7645 27.1296 29.7644C27.1296 29.7643 27.1296 29.7642 27.1296 29.764C27.1296 29.7639 27.1296 29.7638 27.1296 29.7637C27.1296 29.7636 27.1296 29.7635 27.1296 29.7634C27.1296 29.7633 27.1296 29.7632 27.1296 29.7631C27.1296 29.763 27.1296 29.7629 27.1296 29.7628C27.1296 29.7627 27.1296 29.7626 27.1296 29.7625C27.1296 29.7624 27.1296 29.7623 27.1296 29.7622C27.1296 29.7621 27.1296 29.762 27.1296 29.7619C27.1296 29.7618 27.1296 29.7617 27.1296 29.7616C27.1296 29.7615 27.1296 29.7614 27.1296 29.7613C27.1296 29.7612 27.1296 29.7611 27.1296 29.761C27.1296 29.7609 27.1296 29.7608 27.1296 29.7607C27.1296 29.7606 27.1296 29.7605 27.1296 29.7604C27.1296 29.7603 27.1296 29.7602 27.1296 29.7601C27.1296 29.76 27.1296 29.7599 27.1296 29.7598C27.1296 29.7597 27.1296 29.7596 27.1296 29.7595C27.1296 29.7594 27.1296 29.7593 27.1296 29.7592C27.1296 29.7591 27.1296 29.759 27.1296 29.7589C27.1296 29.7588 27.1296 29.7587 27.1296 29.7586C27.1296 29.7585 27.1296 29.7584 27.1296 29.7583C27.1296 29.7582 27.1296 29.7581 27.1296 29.758C27.1296 29.7579 27.1296 29.7578 27.1296 29.7577C27.1296 29.7576 27.1296 29.7575 27.1296 29.7574C27.1296 29.7573 27.1296 29.7572 27.1296 29.7571C27.1296 29.757 27.1296 29.7569 27.1296 29.7568C27.1296 29.7567 27.1296 29.7566 27.1296 29.7565C27.1296 29.7564 27.1296 29.7563 27.1296 29.7562C27.1296 29.7561 27.1296 29.756 27.1296 29.7559C27.1296 29.7558 27.1296 29.7557 27.1296 29.7556C27.1296 29.7555 27.1296 29.7554 27.1296 29.7553C27.1296 29.7552 27.1296 29.7551 27.1296 29.755C27.1296 29.7549 27.1296 29.7548 27.1296 29.7547C27.1296 29.7546 27.1296 29.7545 27.1296 29.7544C27.1296 29.7543 27.1296 29.7542 27.1296 29.7541C27.1296 29.754 27.1296 29.7539 27.1296 29.7538C27.1296 29.7537 27.1296 29.7536 27.1296 29.7535C27.1296 29.7534 27.1296 29.7533 27.1296 29.7532C27.1296 29.7531 27.1296 29.753 27.1296 29.7529C27.1296 29.7528 27.1296 29.7527 27.1296 29.7526C27.1296 29.7525 27.1296 29.7524 27.1296 29.7523C27.1296 29.7522 27.1296 29.7521 27.1296 29.752C27.1296 29.7519 27.1296 29.7518 27.1296 29.7517C27.1296 29.7516 27.1296 29.7515 27.1296 29.7514C27.1296 29.7513 27.1296 29.7512 27.1296 29.7511C27.1296 29.751 27.1296 29.7509 27.1296 29.7508C27.1296 29.7507 27.1296 29.7506 27.1296 29.7505C27.1296 29.7504 27.1296 29.7503 27.1296 29.7502C27.1296 29.7501 27.1296 29.75 27.1296 29.7499C27.1296 29.7497 27.1296 29.7496 27.1296 29.7495C27.1296 29.7494 27.1296 29.7493 27.1296 29.7492C27.1296 29.7491 27.1296 29.749 27.1296 29.7489C27.1296 29.7488 27.1296 29.7487 27.1296 29.7486C27.1296 29.7485 27.1296 29.7484 27.1296 29.7483C27.1296 29.7482 27.1296 29.7481 27.1296 29.748C27.1296 29.7479 27.1296 29.7478 27.1296 29.7477C27.1296 29.7476 27.1296 29.7475 27.1296 29.7474C27.1296 29.7473 27.1296 29.7472 27.1296 29.7471C27.1296 29.747 27.1296 29.7469 27.1296 29.7468C27.1296 29.7467 27.1296 29.7466 27.1296 29.7465C27.1296 29.7464 27.1296 29.7463 27.1296 29.7462C27.1296 29.7461 27.1296 29.746 27.1296 29.7459C27.1296 29.7458 27.1296 29.7457 27.1296 29.7456C27.1296 29.7455 27.1296 29.7454 27.1296 29.7453C27.1296 29.7452 27.1296 29.7451 27.1296 29.745C27.1296 29.7449 27.1296 29.7448 27.1296 29.7447C27.1296 29.7446 27.1296 29.7445 27.1296 29.7444C27.1296 29.7443 27.1296 29.7442 27.1296 29.7441C27.1296 29.744 27.1296 29.7439 27.1296 29.7438C27.1296 29.7437 27.1296 29.7436 27.1296 29.7435C27.1296 29.7434 27.1296 29.7433 27.1296 29.7432C27.1296 29.7431 27.1296 29.743 27.1296 29.7429C27.1296 29.7428 27.1296 29.7427 27.1296 29.7426C27.1296 29.7425 27.1296 29.7424 27.1296 29.7423C27.1296 29.7422 27.1296 29.7421 27.1296 29.742C27.1296 29.7419 27.1296 29.7418 27.1296 29.7417C27.1296 29.7416 27.1296 29.7415 27.1296 29.7414C27.1296 29.7413 27.1296 29.7412 27.1296 29.7411C27.1296 29.741 27.1296 29.7409 27.1296 29.7408C27.1296 29.7407 27.1296 29.7406 27.1296 29.7405C27.1296 29.7404 27.1296 29.7403 27.1296 29.7402C27.1296 29.7401 27.1296 29.74 27.1296 29.7399C27.1296 29.7398 27.1296 29.7397 27.1296 29.7396C27.1296 29.7395 27.1296 29.7394 27.1296 29.7393C27.1296 29.7392 27.1296 29.7391 27.1296 29.739C27.1296 29.7389 27.1296 29.7388 27.1296 29.7387C27.1296 29.7386 27.1296 29.7385 27.1296 29.7384C27.1296 29.7383 27.1296 29.7382 27.1296 29.7381C27.1296 29.738 27.1296 29.7379 27.1296 29.7378C27.1296 29.7377 27.1296 29.7376 27.1296 29.7375C27.1296 29.7374 27.1296 29.7373 27.1296 29.7372C27.1296 29.7371 27.1296 29.737 27.1296 29.7369C27.1296 29.7368 27.1296 29.7367 27.1296 29.7366C27.1296 29.7365 27.1296 29.7364 27.1296 29.7363C27.1296 29.7362 27.1296 29.7361 27.1296 29.736C27.1296 29.7359 27.1296 29.7358 27.1296 29.7357C27.1296 29.7355 27.1296 29.7354 27.1296 29.7353C27.1296 29.7352 27.1296 29.7351 27.1296 29.735C27.1296 29.7349 27.1296 29.7348 27.1296 29.7347C27.1296 29.7346 27.1296 29.7345 27.1296 29.7344C27.1296 29.7343 27.1296 29.7342 27.1296 29.7341C27.1296 29.734 27.1296 29.7339 27.1296 29.7338C27.1296 29.7337 27.1296 29.7336 27.1296 29.7335C27.1296 29.7334 27.1296 29.7333 27.1296 29.7332C27.1296 29.7331 27.1296 29.733 27.1296 29.7329C27.1296 29.7328 27.1296 29.7327 27.1296 29.7326C27.1296 29.7325 27.1296 29.7324 27.1296 29.7323C27.1296 29.7322 27.1296 29.7321 27.1296 29.732C27.1296 29.7319 27.1296 29.7318 27.1296 29.7317C27.1296 29.7316 27.1296 29.7315 27.1296 29.7314C27.1296 29.7313 27.1296 29.7312 27.1296 29.7311C27.1296 29.731 27.1296 29.7309 27.1296 29.7308C27.1296 29.7307 27.1296 29.7306 27.1296 29.7305C27.1296 29.7304 27.1296 29.7303 27.1296 29.7302C27.1296 29.7301 27.1296 29.73 27.1296 29.7299C27.1296 29.7298 27.1296 29.7297 27.1296 29.7296C27.1296 29.7295 27.1296 29.7294 27.1296 29.7293C27.1296 29.7292 27.1296 29.7291 27.1296 29.729C27.1296 29.7289 27.1296 29.7288 27.1296 29.7287C27.1296 29.7286 27.1296 29.7285 27.1296 29.7284C27.1296 29.7283 27.1296 29.7282 27.1296 29.7281C27.1296 29.728 27.1296 29.7279 27.1296 29.7278C27.1296 29.7277 27.1296 29.7276 27.1296 29.7275C27.1296 29.7274 27.1296 29.7273 27.1296 29.7272C27.1296 29.7271 27.1296 29.727 27.1296 29.7269C27.1296 29.7268 27.1296 29.7267 27.1296 29.7266C27.1296 29.7265 27.1296 29.7264 27.1296 29.7263C27.1296 29.7262 27.1296 29.7261 27.1296 29.726C27.1296 29.7259 27.1296 29.7258 27.1296 29.7257C27.1296 29.7256 27.1296 29.7255 27.1296 29.7254C27.1296 29.7253 27.1296 29.7252 27.1296 29.7251C27.1296 29.725 27.1296 29.7249 27.1296 29.7248C27.1296 29.7247 27.1296 29.7246 27.1296 29.7245C27.1296 29.7244 27.1296 29.7243 27.1296 29.7242C27.1296 29.7241 27.1296 29.724 27.1296 29.7239C27.1296 29.7238 27.1296 29.7237 27.1296 29.7236C27.1296 29.7235 27.1296 29.7234 27.1296 29.7233C27.1296 29.7232 27.1296 29.7231 27.1296 29.723C27.1296 29.7229 27.1296 29.7228 27.1296 29.7227C27.1296 29.7226 27.1296 29.7225 27.1296 29.7224C27.1296 29.7223 27.1296 29.7222 27.1296 29.7221C27.1296 29.722 27.1296 29.7219 27.1296 29.7218C27.1296 29.7217 27.1296 29.7216 27.1296 29.7215C27.1296 29.7213 27.1296 29.7212 27.1296 29.7211C27.1296 29.721 27.1296 29.7209 27.1296 29.7208C27.1296 29.7207 27.1296 29.7206 27.1296 29.7205C27.1296 29.7204 27.1296 29.7203 27.1296 29.7202C27.1296 29.7201 27.1296 29.72 27.1296 29.7199C27.1296 29.7198 27.1296 29.7197 27.1296 29.7196C27.1296 29.7195 27.1296 29.7194 27.1296 29.7193C27.1296 29.7192 27.1296 29.7191 27.1296 29.719C27.1296 29.7189 27.1296 29.7188 27.1296 29.7187C27.1296 29.7186 27.1296 29.7185 27.1296 29.7184C27.1296 29.7183 27.1296 29.7182 27.1296 29.7181C27.1296 29.718 27.1296 29.7179 27.1296 29.7178C27.1296 29.7177 27.1296 29.7176 27.1296 29.7175C27.1296 29.7174 27.1296 29.7173 27.1296 29.7172C27.1296 29.7171 27.1296 29.717 27.1296 29.7169C27.1296 29.7168 27.1296 29.7167 27.1296 29.7166C27.1296 29.7165 27.1296 29.7164 27.1296 29.7163C27.1296 29.7162 27.1296 29.7161 27.1296 29.716C27.1296 29.7159 27.1296 29.7158 27.1296 29.7157C27.1296 29.7156 27.1296 29.7155 27.1296 29.7154C27.1296 29.7153 27.1296 29.7152 27.1296 29.7151C27.1296 29.715 27.1296 29.7149 27.1296 29.7148C27.1296 29.7147 27.1296 29.7146 27.1296 29.7145C27.1296 29.7144 27.1296 29.7143 27.1296 29.7142C27.1296 29.7141 27.1296 29.714 27.1296 29.7139C27.1296 29.7138 27.1296 29.7137 27.1296 29.7136C27.1296 29.7135 27.1296 29.7134 27.1296 29.7133C27.1296 29.7132 27.1296 29.7131 27.1296 29.713C27.1296 29.7129 27.1296 29.7128 27.1296 29.7127C27.1296 29.7126 27.1296 29.7125 27.1296 29.7124C27.1296 29.7123 27.1296 29.7122 27.1296 29.7121C27.1296 29.712 27.1296 29.7119 27.1296 29.7118C27.1296 29.7117 27.1296 29.7116 27.1296 29.7115C27.1296 29.7114 27.1296 29.7113 27.1296 29.7112C27.1296 29.7111 27.1296 29.711 27.1296 29.7109C27.1296 29.7108 27.1296 29.7107 27.1296 29.7106C27.1296 29.7105 27.1296 29.7104 27.1296 29.7103C27.1296 29.7102 27.1296 29.7101 27.1296 29.71C27.1296 29.7099 27.1296 29.7098 27.1296 29.7097C27.1296 29.7096 27.1296 29.7095 27.1296 29.7094C27.1296 29.7093 27.1296 29.7092 27.1296 29.7091C27.1296 29.709 27.1296 29.7089 27.1296 29.7088C27.1296 29.7087 27.1296 29.7086 27.1296 29.7085C27.1296 29.7084 27.1296 29.7083 27.1296 29.7082C27.1296 29.7081 27.1296 29.708 27.1296 29.7079C27.1296 29.7078 27.1296 29.7077 27.1296 29.7076C27.1296 29.7075 27.1296 29.7074 27.1296 29.7073C27.1296 29.7071 27.1296 29.707 27.1296 29.7069C27.1296 29.7068 27.1296 29.7067 27.1296 29.7066C27.1296 29.7065 27.1296 29.7064 27.1296 29.7063C27.1296 29.7062 27.1296 29.7061 27.1296 29.706C27.1296 29.7059 27.1296 29.7058 27.1296 29.7057C27.1296 29.7056 27.1296 29.7055 27.1296 29.7054C27.1296 29.7053 27.1296 29.7052 27.1296 29.7051C27.1296 29.705 27.1296 29.7049 27.1296 29.7048C27.1296 29.7047 27.1296 29.7046 27.1296 29.7045C27.1296 29.7044 27.1296 29.7043 27.1296 29.7042C27.1296 29.7041 27.1296 29.704 27.1296 29.7039C27.1296 29.7038 27.1296 29.7037 27.1296 29.7036C27.1296 29.7035 27.1296 29.7034 27.1296 29.7033C27.1296 29.7032 27.1296 29.7031 27.1296 29.703C27.1296 29.7029 27.1296 29.7028 27.1296 29.7027C27.1296 29.7026 27.1296 29.7025 27.1296 29.7024C27.1296 29.7023 27.1296 29.7022 27.1296 29.7021C27.1296 29.702 27.1296 29.7019 27.1296 29.7018C27.1296 29.7017 27.1296 29.7016 27.1296 29.7015C27.1296 29.7014 27.1296 29.7013 27.1296 29.7012C27.1296 29.7011 27.1296 29.701 27.1296 29.7009C27.1296 29.7008 27.1296 29.7007 27.1296 29.7006C27.1296 29.7005 27.1296 29.7004 27.1296 29.7003C27.1296 29.7002 27.1296 29.7001 27.1296 29.7H-22.8704ZM-22.8704 29.8547V31.35H27.1296V29.8547H-22.8704ZM-22.8704 31.35C-22.8704 45.718 -11.2925 58 3.75552 58V8C17.0125 8 27.1296 18.7996 27.1296 31.35H-22.8704ZM3.75552 58H8.63325V8H3.75552V58ZM32.3117 41.0206L32.8706 39.3706L-14.4863 23.3294L-15.0452 24.9794L32.3117 41.0206ZM9.19215 56.35H34.0889V6.35H9.19215V56.35ZM10.4104 39.3706L10.9693 41.0206L58.3263 24.9794L57.7673 23.3294L10.4104 39.3706ZM34.6478 58H39.5255V8H34.6478V58ZM39.5255 58C54.5735 58 66.1514 45.718 66.1514 31.35H16.1514C16.1514 18.7996 26.2685 8 39.5255 8V58ZM66.1514 31.35V29.9578H16.1514V31.35H66.1514ZM66.0799 31.8473C66.1816 30.5056 66.1816 29.1522 66.0799 27.8105L16.2229 31.5895C16.1339 30.4154 16.1339 29.2424 16.2229 28.0683L66.0799 31.8473ZM66.1514 29.7V18.15H16.1514V29.7H66.1514ZM66.1304 19.1755C66.2451 16.3822 65.9085 13.7766 65.3134 11.4617L16.8878 23.9102C16.369 21.8917 16.0705 19.6084 16.1725 17.1245L66.1304 19.1755ZM65.1125 10.7267L64.0963 7.22049L16.0726 21.1389L17.0888 24.6451L65.1125 10.7267ZM48.0953 37.8614L51.2963 36.7786L35.2745 -10.5849L32.0735 -9.50207L48.0953 37.8614ZM67.037 5.29529L66.0208 2.20154L18.5177 17.8047L19.5339 20.8985L67.037 5.29529ZM34.1427 -13.6392L30.9925 -12.5564L47.2456 34.7283L50.3958 33.6454L34.1427 -13.6392ZM63.0978 4.01342L60.8621 -3.56626L12.9047 10.5788L15.1403 18.1585L63.0978 4.01342ZM60.8617 -3.56763C57.1103 -16.2841 45.4398 -25 32.2089 -25V25C23.2714 25 15.4244 19.12 12.9051 10.5801L60.8617 -3.56763ZM32.2089 -25H11.0721V25H32.2089V-25ZM11.0721 28.3H32.2089V-21.7H11.0721V28.3ZM32.2089 28.3C21.6691 28.3 12.7177 21.3213 9.8274 11.633L57.7407 -2.66108C54.4311 -13.7545 44.1969 -21.7 32.2089 -21.7V28.3ZM9.80498 11.5574L11.8882 18.6214L59.8463 4.47857L57.7631 -2.5855L9.80498 11.5574ZM35.8672 -13.45H7.41382V36.55H35.8672V-13.45ZM31.3929 18.6214L33.4761 11.5574L-14.482 -2.5855L-16.5652 4.47857L31.3929 18.6214ZM33.4714 11.5732C30.5637 21.4092 21.5067 28.3 11.0721 28.3V-21.7C-0.810509 -21.7 -11.1505 -13.8553 -14.4774 -2.60136L33.4714 11.5732ZM6.44843 39.85H36.8326V-10.15H6.44843V39.85ZM12.8582 21.9373L13.9252 25.5467L61.874 11.3721L60.807 7.7627L12.8582 21.9373ZM12.8996 18.4594V28.05H62.8996V18.4594H12.8996ZM37.8996 3.05H5.38143V53.05H37.8996V3.05ZM30.3814 28.05V18.4594H-19.6186V28.05H30.3814ZM29.3558 25.5467L30.4228 21.9373L-17.5259 7.7627L-18.5929 11.3721L29.3558 25.5467ZM9.4462 -8.5C-6.05276 -8.5 -17.9927 4.14941 -17.9927 18.975H32.0073C32.0073 31.0678 22.2523 41.5 9.4462 41.5V-8.5ZM-17.9927 18.975C-17.9927 33.8006 -6.05276 46.45 9.4462 46.45V-3.55C22.2523 -3.55 32.0073 6.88222 32.0073 18.975H-17.9927ZM9.4462 46.45C24.9452 46.45 36.8851 33.8006 36.8851 18.975H-13.1149C-13.1149 6.88222 -3.35985 -3.55 9.4462 -3.55V46.45ZM36.8851 18.975C36.8851 4.14941 24.9452 -8.5 9.4462 -8.5V41.5C-3.35985 41.5 -13.1149 31.0678 -13.1149 18.975H36.8851ZM33.8348 -8.5C18.3359 -8.5 6.39597 4.14941 6.39597 18.975H56.396C56.396 31.0678 46.6409 41.5 33.8348 41.5V-8.5ZM6.39597 18.975C6.39597 33.8006 18.3359 46.45 33.8348 46.45V-3.55C46.6409 -3.55 56.396 6.88222 56.396 18.975H6.39597ZM33.8348 46.45C49.3338 46.45 61.2737 33.8006 61.2737 18.975H11.2737C11.2737 6.88222 21.0288 -3.55 33.8348 -3.55V46.45ZM61.2737 18.975C61.2737 4.14941 49.3338 -8.5 33.8348 -8.5V41.5C21.0288 41.5 11.2737 31.0678 11.2737 18.975H61.2737ZM-7.98968 11.9546L-10.0221 16.9046L36.2311 35.8954L38.2634 30.9454L-7.98968 11.9546ZM13.1045 51.4H16.6104V1.4H13.1045V51.4ZM39.5678 36.2972L40.2792 34.6472L-5.63576 14.8528L-6.34709 16.5028L39.5678 36.2972ZM17.3217 49.75H25.9593V-0.25H17.3217V49.75ZM3.00189 34.6472L3.71322 36.2972L49.6281 16.5028L48.9168 14.8528L3.00189 34.6472ZM26.6707 51.4H30.1765V1.4H26.6707V51.4ZM53.3031 16.9046L51.2707 11.9546L5.01759 30.9454L7.04998 35.8954L53.3031 16.9046ZM28.1442 -3.55H15.1369V46.45H28.1442V-3.55Z" fill="white" mask="url(#path-1-inside-1_14105_3189)"/>
</svg>
