<svg width="31" height="31" viewBox="0 0 31 31" fill="none" xmlns="http://www.w3.org/2000/svg">
<path d="M18.1155 9.3L17.8249 8.71875H15.4999H13.1749L12.9812 9.39687C12.3999 11.0438 11.2374 12.4969 9.68741 13.5625C3.77804 17.5344 4.84366 25.6719 11.6249 28.2875C14.1437 29.2563 16.953 29.2563 19.3749 28.2875C26.1562 25.6719 27.2218 17.4375 21.4093 13.4656C19.8593 12.4 18.6968 11.0438 18.1155 9.3Z" stroke="white" stroke-width="2" stroke-miterlimit="10" stroke-linecap="round" stroke-linejoin="round"/>
<path d="M10.075 3.39062L13.3687 8.71875" stroke="white" stroke-width="2" stroke-miterlimit="10" stroke-linecap="round" stroke-linejoin="round"/>
<path d="M11.2375 4.45615L12.3032 3.39053C12.8844 2.80928 13.8532 2.80928 14.4344 3.39053C15.0157 3.97178 15.9844 3.97178 16.5657 3.39053C17.1469 2.80928 18.1157 2.80928 18.6969 3.39053L19.7625 4.45615" stroke="white" stroke-width="2" stroke-miterlimit="10" stroke-linecap="round" stroke-linejoin="round"/>
<path d="M20.9251 8.71875H17.6313L20.9251 3.39062" stroke="white" stroke-width="2" stroke-miterlimit="10" stroke-linecap="round" stroke-linejoin="round"/>
<path d="M15.5 15.5V16.4688" stroke="white" stroke-width="2" stroke-miterlimit="10" stroke-linecap="round" stroke-linejoin="round"/>
<path d="M15.5 22.2812V23.25" stroke="white" stroke-width="2" stroke-miterlimit="10" stroke-linecap="round" stroke-linejoin="round"/>
<path d="M16.4688 16.4688H15.0156C14.2406 16.4688 13.5625 17.1469 13.5625 17.9219C13.5625 18.6969 14.2406 19.375 15.0156 19.375H15.9844C16.7594 19.375 17.4375 20.0531 17.4375 20.8281C17.4375 21.6031 16.7594 22.2812 15.9844 22.2812H14.5312" stroke="white" stroke-width="2" stroke-miterlimit="10" stroke-linecap="round" stroke-linejoin="round"/>
</svg>
