<svg width="44" height="36" viewBox="0 0 44 36" fill="none" xmlns="http://www.w3.org/2000/svg">
<path d="M40.4276 3.53445C39.2673 2.41435 37.8877 1.52543 36.3681 0.918853C34.8485 0.312273 33.2189 0 31.5731 0C29.9272 0 28.2976 0.312273 26.778 0.918853C25.2584 1.52543 23.8788 2.41435 22.7186 3.53445L22.0723 4.27865L21.426 3.65849C20.2657 2.53838 18.8861 1.64947 17.3665 1.04289C15.8469 0.436306 14.2173 0.124034 12.5715 0.124034C10.9256 0.124034 9.29601 0.436306 7.77641 1.04289C6.25681 1.64947 4.8772 2.53838 3.71696 3.65849C-1.19503 8.24773 -1.19503 15.8138 3.45843 20.5271L16.3847 33.6747C17.1077 34.409 17.9793 34.9941 18.9462 35.3939C19.913 35.7938 20.9548 36 22.0076 36C23.0605 36 24.1022 35.7938 25.0691 35.3939C26.036 34.9941 26.9076 34.409 27.6306 33.6747L40.6861 20.403C45.2103 15.5657 45.081 8.1237 40.4276 3.53445ZM36.8082 16.8061L23.7527 30.0777C23.2554 30.5542 22.5812 30.8219 21.8784 30.8219C21.1755 30.8219 20.5014 30.5542 20.0041 30.0777L7.07779 16.9301C4.36327 14.0773 4.36327 9.73614 7.20705 7.0074C10.0508 4.27865 14.7043 4.27865 17.6773 7.0074L18.3237 7.62756C20.3919 9.61211 23.6234 9.61211 25.5624 7.62756L26.2087 7.0074C27.5828 5.69675 29.4417 4.9611 31.3792 4.9611C33.3167 4.9611 35.1755 5.69675 36.5497 7.0074C37.2421 7.6317 37.7985 8.38162 38.1867 9.21372C38.5748 10.0458 38.7871 10.9436 38.8111 11.8549C38.8352 12.7663 38.6705 13.6732 38.3267 14.5231C37.9829 15.373 37.4668 16.1489 36.8082 16.8061Z" fill="#7351D5"/>
</svg>
