<svg width="44" height="36" viewBox="0 0 44 36" fill="none" xmlns="http://www.w3.org/2000/svg">
<path d="M23.5823 5.59007L24.1684 4.91522C25.1266 4.00518 26.2639 3.27753 27.5195 2.77634C28.8018 2.26447 30.1797 2 31.5731 2C32.9665 2 34.3444 2.26447 35.6267 2.77634C36.9055 3.28681 38.0616 4.03219 39.0308 4.96593C42.8883 8.77808 43.0172 14.9643 39.2419 19.0192L26.2053 32.2715C26.2052 32.2717 26.205 32.2719 26.2048 32.2721C25.6731 32.8121 25.0274 33.2469 24.3048 33.5457C23.5818 33.8447 22.7999 34 22.0076 34C21.2154 34 20.4335 33.8447 19.7105 33.5457C18.9879 33.2469 18.3422 32.812 17.8104 32.272C17.8103 32.2719 17.8101 32.2717 17.8099 32.2715L4.8846 19.1249L4.88165 19.1219C0.993518 15.1838 1.01993 8.91539 5.08235 5.11989L5.0943 5.10873L5.10607 5.09737C6.07685 4.16016 7.23566 3.41219 8.51786 2.90037C9.80018 2.38851 11.178 2.12403 12.5715 2.12403C13.9649 2.12403 15.3427 2.38851 16.6251 2.90037C17.9073 3.41219 19.0661 4.16016 20.0368 5.09737L20.0412 5.10159L20.6875 5.72175L22.1366 7.11219C21.2923 7.15362 20.4086 6.85633 19.7084 6.18446L19.0621 5.5643L19.0461 5.54894L19.0297 5.53394C15.3092 2.11918 9.45667 2.07698 5.82233 5.5643C2.14703 9.09092 2.19094 14.6957 5.6289 18.3088L5.64017 18.3206L5.65163 18.3323L18.5779 31.4798L18.5988 31.5011L18.6203 31.5217C19.4984 32.3631 20.6716 32.8219 21.8784 32.8219C23.0852 32.8219 24.2584 32.3631 25.1364 31.5217L25.1578 31.5013L25.1785 31.4802L38.2279 18.2148C39.0706 17.3721 39.7358 16.373 40.1808 15.2731C40.627 14.1699 40.8418 12.9899 40.8105 11.8022C40.7791 10.6145 40.5025 9.4471 39.9991 8.36818C39.4998 7.29792 38.7885 6.33811 37.9099 5.54091C36.1575 3.87967 33.8098 2.9611 31.3792 2.9611C28.9392 2.9611 26.5828 3.88675 24.8283 5.56012L24.824 5.5643L24.1776 6.18446L24.1544 6.2068L24.1318 6.22988C23.6324 6.74109 22.9682 7.03902 22.2684 7.10294L23.5823 5.59007Z" fill="white" stroke="white" stroke-width="4"/>
</svg>
