<svg width="22" height="23" viewBox="0 0 22 23" fill="none" xmlns="http://www.w3.org/2000/svg">
<path d="M4.4125 10.1149V10.0149H4.3125H1.03125C0.885267 10.0149 0.744265 9.95417 0.63955 9.84446C0.534684 9.73459 0.475 9.58462 0.475 9.42732V1.17658C0.475 1.01928 0.534684 0.86931 0.63955 0.75944C0.744265 0.649729 0.885267 0.589014 1.03125 0.589014H20.7188C20.8647 0.589014 21.0057 0.649729 21.1105 0.75944C21.2153 0.86931 21.275 1.01928 21.275 1.17658V9.42732C21.275 9.58462 21.2153 9.73459 21.1105 9.84446C21.0057 9.95417 20.8647 10.0149 20.7188 10.0149H17.4375H17.3375V10.1149V21.8034C17.3375 21.9607 17.2778 22.1107 17.173 22.2206C17.0682 22.3303 16.9272 22.391 16.7812 22.391H4.96875C4.82277 22.391 4.68176 22.3303 4.57705 22.2206C4.47218 22.1107 4.4125 21.9607 4.4125 21.8034V10.1149ZM1.6875 1.76414H1.5875V1.86414V3.23926V3.33926H1.6875H20.0625H20.1625V3.23926V1.86414V1.76414H20.0625H1.6875ZM16.125 21.2159H16.225V21.1159V7.36463V7.26463H16.125H5.625H5.525V7.36463V21.1159V21.2159H5.625H16.125ZM20.0625 8.83976H20.1625V8.73976V4.61439V4.51439H20.0625H1.6875H1.5875V4.61439V8.73976V8.83976H1.6875H4.3125H4.4125V8.73976V7.36463V7.26463H4.3125H3.65625C3.51027 7.26463 3.36927 7.20392 3.26455 7.09421C3.15968 6.98434 3.1 6.83437 3.1 6.67707C3.1 6.51978 3.15968 6.36981 3.26455 6.25994C3.36927 6.15023 3.51027 6.08951 3.65625 6.08951H18.0938C18.2397 6.08951 18.3807 6.15023 18.4855 6.25994C18.5903 6.36981 18.65 6.51978 18.65 6.67707C18.65 6.83437 18.5903 6.98434 18.4855 7.09421C18.3807 7.20392 18.2397 7.26463 18.0938 7.26463H17.4375H17.3375V7.36463V8.73976V8.83976H17.4375H20.0625Z" fill="white" stroke="white" stroke-width="0.2"/>
<path d="M19.0145 16.5734C19.1193 16.4637 19.2603 16.403 19.4062 16.403C19.5522 16.403 19.6932 16.4637 19.798 16.5734C19.9028 16.6833 19.9625 16.8332 19.9625 16.9905V19.7408C19.9625 19.8981 19.9028 20.0481 19.798 20.1579C19.6932 20.2676 19.5522 20.3284 19.4062 20.3284C19.2603 20.3284 19.1193 20.2676 19.0145 20.1579C18.9097 20.0481 18.85 19.8981 18.85 19.7408V16.9905C18.85 16.8332 18.9097 16.6833 19.0145 16.5734Z" fill="white" stroke="white" stroke-width="0.2"/>
<path d="M1.95205 11.7604C2.05676 11.6507 2.19777 11.59 2.34375 11.59C2.48973 11.59 2.63074 11.6507 2.73545 11.7604C2.84032 11.8703 2.9 12.0203 2.9 12.1776V14.9278C2.9 15.0851 2.84032 15.2351 2.73545 15.3449C2.63074 15.4546 2.48973 15.5154 2.34375 15.5154C2.19777 15.5154 2.05676 15.4546 1.95205 15.3449C1.84718 15.2351 1.7875 15.0851 1.7875 14.9278V12.1776C1.7875 12.0203 1.84718 11.8703 1.95205 11.7604Z" fill="white" stroke="white" stroke-width="0.2"/>
<path d="M13.9669 11.5901L13.9436 11.5228C13.7935 11.0894 13.5031 10.7261 13.1244 10.4955C12.7458 10.2651 12.3025 10.1817 11.8718 10.2592C11.441 10.3368 11.0489 10.5706 10.7647 10.9212C10.4804 11.2718 10.3222 11.7167 10.3187 12.1781C10.3187 12.1782 10.3187 12.1783 10.3187 12.1784L10.2188 12.1777L13.9669 11.5901ZM13.9669 11.5901H14.0381M13.9669 11.5901H14.0381M14.0381 11.5901H14.1562C14.3022 11.5901 14.4432 11.6508 14.548 11.7605C14.6528 11.8704 14.7125 12.0204 14.7125 12.1777C14.7125 12.335 14.6528 12.4849 14.548 12.5948C14.4432 12.7045 14.3022 12.7652 14.1562 12.7652H14.0563M14.0381 11.5901L14.0563 12.7652M14.0563 12.7652V12.8652M14.0563 12.7652V12.8652M14.0563 12.8652V13.5528C14.0563 13.7101 13.9966 13.8601 13.8917 13.9699C13.787 14.0796 13.646 14.1404 13.5 14.1404C13.354 14.1404 13.213 14.0796 13.1083 13.9699C13.0034 13.8601 12.9437 13.7101 12.9437 13.5528V12.1777C12.9437 11.9703 12.8652 11.7705 12.7239 11.6225C12.5825 11.4743 12.3896 11.3901 12.1875 11.3901C11.9854 11.3901 11.7925 11.4743 11.6511 11.6225C11.5099 11.7704 11.4313 11.97 11.4313 12.1773L14.0563 12.8652Z" fill="white" stroke="white" stroke-width="0.2"/>
<path d="M10.4833 16.5734C10.588 16.4637 10.729 16.403 10.875 16.403C11.021 16.403 11.162 16.4637 11.2667 16.5734C11.3716 16.6833 11.4312 16.8332 11.4312 16.9905V18.3657C11.4312 18.523 11.3716 18.6729 11.2667 18.7828C11.162 18.8925 11.021 18.9532 10.875 18.9532C10.729 18.9532 10.588 18.8925 10.4833 18.7828C10.3784 18.6729 10.3188 18.523 10.3188 18.3657V16.9905C10.3188 16.8332 10.3784 16.6833 10.4833 16.5734Z" fill="white" stroke="white" stroke-width="0.2"/>
</svg>
