<svg width="44" height="36" viewBox="0 0 44 36" fill="none" xmlns="http://www.w3.org/2000/svg">
<mask id="path-1-inside-1_14105_3193" fill="white">
<path d="M43.3962 33.514H40.3281C38.4401 29.4155 36.8555 24.981 36.0801 20.7817C35.9115 19.9082 35.7092 19.0683 35.6418 18.1949C35.2709 14.701 35.6081 11.476 36.9904 8.88917L37.2264 8.98995C38.0692 9.79622 39.2155 14.3987 39.2493 15.5745C40.6653 13.2229 40.3281 9.76262 38.7098 7.57898C38.7773 7.61257 39.0133 7.78055 40.0247 8.35166L40.6653 7.51179L40.5641 8.95636C40.8339 9.15792 41.5082 9.9642 41.643 10.0314L42.2836 9.25871L42.2499 10.7033C42.4859 11.0392 42.7556 11.2072 43.0253 11.5431C43.7333 7.27663 40.3281 5.93284 38.339 5.76487C39.1818 4.85782 41.1373 4.08514 43.295 5.89925C43.1602 2.06946 37.3949 2.60698 36.9229 5.16017C36.7881 1.19601 30.5508 -1.86109 28.5617 1.33039C28.7977 1.33039 29.7417 1.59914 30.8206 2.06947L31.8994 0.6585V2.57339C32.2366 2.77495 32.6074 2.94293 32.9446 3.1445L34.3943 2.13666V4.21952C34.9 4.68984 35.2372 5.16017 35.3721 5.66409C35.3721 5.66409 26.5051 3.04372 28.2582 11.4088C28.2582 11.4088 30.9554 5.86566 35.2372 7.54539L34.8663 8.04931C32.6749 11.8119 32.7086 17.6238 33.72 23.1333C33.012 24.1411 32.1354 25.0818 31.0903 25.888C30.5845 26.2912 30.0788 26.6271 29.5394 26.9295L27.3142 24.4099C27.0108 24.0739 26.5051 23.9731 26.1342 24.1747L23.673 25.5185C22.6616 25.2833 17.4358 23.9731 17.0312 23.9395C16.5592 23.9395 16.4243 24.2755 16.3232 24.8802C16.3232 24.981 16.2895 25.0818 16.2895 25.149C16.2895 25.1825 16.2895 25.2497 16.2895 25.3169C16.2895 25.4849 16.4243 26.1904 16.5929 27.0303C15.3117 26.3248 14.1317 25.3841 13.154 24.3091C12.3785 23.4692 11.738 22.5622 11.266 21.6215C10.9962 16.9519 10.1534 12.551 8.09676 9.05715L7.7259 8.55323C12.0077 6.8735 13.7609 13.6596 13.7609 13.6596C15.514 5.29455 7.59104 6.67193 7.59104 6.67193C7.7259 6.16801 8.06305 5.69768 8.56878 5.22736V3.34607L10.0185 4.11874C10.3557 3.91717 10.7265 3.74919 11.0637 3.54763L10.0185 1.63274L12.1425 3.04371C13.2214 2.57338 14.1654 2.30463 14.4014 2.30463C12.4123 -0.886853 6.00645 1.56555 5.87159 5.49612C5.70302 3.71561 2.12924 2.20384 0.949224 5.73127C3.1744 4.82422 2.60125 5.16017 3.8487 6.53755C0.173786 6.33599 -0.0959352 9.22511 0.612076 13.4916C0.881795 13.1557 1.55609 10.4681 2.46639 9.59465C3.37669 8.72119 3.94984 8.55322 4.0847 8.78838C2.43267 10.9384 2.29781 14.1635 3.71383 16.5151C3.74755 15.3393 4.89385 10.7369 5.73672 9.9306L5.97273 9.82982C9.27678 16.0784 8.33277 24.8466 7.7259 33.4468H0.308645H0.241211V36H0.308645H43.4636H43.531V33.514H43.3962ZM21.549 28.3404C22.2907 28.542 23.1336 28.4412 23.5719 27.9037L26.3365 26.2912L27.7188 27.8701C25.797 28.6092 23.7404 28.9115 21.7513 28.7436C20.6387 28.6428 19.5261 28.4076 18.4472 28.0045L18.3461 27.5342C19.5261 27.8029 21.549 28.3404 21.549 28.3404ZM26.7073 33.4804H12.8168H11.0974C11.2322 30.2889 11.3671 26.9631 11.266 23.7044C11.6031 24.1747 11.9403 24.6114 12.3448 25.0146C13.626 26.392 15.1432 27.5006 16.7952 28.3068C17.0649 29.5498 17.3346 30.7257 17.3346 30.7257C17.4021 31.0616 17.6381 31.3304 17.9752 31.3975C18.0764 31.4311 18.2112 31.4311 18.3461 31.3975C18.8181 31.3304 19.1215 30.86 19.0541 30.3897L18.7506 29.0123C19.6947 29.3147 20.7061 29.5162 21.6838 29.617C22.493 29.6842 23.3359 29.6842 24.1787 29.617C25.6285 29.4826 27.0445 29.1131 28.4268 28.542L29.5731 29.8522C29.9103 30.2553 30.5171 30.2889 30.9217 29.953C31.3263 29.617 31.36 29.0123 31.0228 28.6092L30.18 27.6349C30.6857 27.3326 31.1914 26.9967 31.6634 26.6271C32.54 25.9552 33.3154 25.2161 33.956 24.4099C34.664 27.7693 35.7429 30.9272 36.8892 33.3796H26.7073V33.4804ZM15.1432 21.1512C15.986 21.3528 16.458 22.1926 16.222 23.0325C16.0197 23.8388 15.1769 24.3427 14.334 24.1075C13.5248 23.8724 13.0191 23.0661 13.2551 22.2262C13.4574 21.4199 14.3003 20.9496 15.1432 21.1512Z"/>
</mask>
<path d="M43.3962 33.514H40.3281C38.4401 29.4155 36.8555 24.981 36.0801 20.7817C35.9115 19.9082 35.7092 19.0683 35.6418 18.1949C35.2709 14.701 35.6081 11.476 36.9904 8.88917L37.2264 8.98995C38.0692 9.79622 39.2155 14.3987 39.2493 15.5745C40.6653 13.2229 40.3281 9.76262 38.7098 7.57898C38.7773 7.61257 39.0133 7.78055 40.0247 8.35166L40.6653 7.51179L40.5641 8.95636C40.8339 9.15792 41.5082 9.9642 41.643 10.0314L42.2836 9.25871L42.2499 10.7033C42.4859 11.0392 42.7556 11.2072 43.0253 11.5431C43.7333 7.27663 40.3281 5.93284 38.339 5.76487C39.1818 4.85782 41.1373 4.08514 43.295 5.89925C43.1602 2.06946 37.3949 2.60698 36.9229 5.16017C36.7881 1.19601 30.5508 -1.86109 28.5617 1.33039C28.7977 1.33039 29.7417 1.59914 30.8206 2.06947L31.8994 0.6585V2.57339C32.2366 2.77495 32.6074 2.94293 32.9446 3.1445L34.3943 2.13666V4.21952C34.9 4.68984 35.2372 5.16017 35.3721 5.66409C35.3721 5.66409 26.5051 3.04372 28.2582 11.4088C28.2582 11.4088 30.9554 5.86566 35.2372 7.54539L34.8663 8.04931C32.6749 11.8119 32.7086 17.6238 33.72 23.1333C33.012 24.1411 32.1354 25.0818 31.0903 25.888C30.5845 26.2912 30.0788 26.6271 29.5394 26.9295L27.3142 24.4099C27.0108 24.0739 26.5051 23.9731 26.1342 24.1747L23.673 25.5185C22.6616 25.2833 17.4358 23.9731 17.0312 23.9395C16.5592 23.9395 16.4243 24.2755 16.3232 24.8802C16.3232 24.981 16.2895 25.0818 16.2895 25.149C16.2895 25.1825 16.2895 25.2497 16.2895 25.3169C16.2895 25.4849 16.4243 26.1904 16.5929 27.0303C15.3117 26.3248 14.1317 25.3841 13.154 24.3091C12.3785 23.4692 11.738 22.5622 11.266 21.6215C10.9962 16.9519 10.1534 12.551 8.09676 9.05715L7.7259 8.55323C12.0077 6.8735 13.7609 13.6596 13.7609 13.6596C15.514 5.29455 7.59104 6.67193 7.59104 6.67193C7.7259 6.16801 8.06305 5.69768 8.56878 5.22736V3.34607L10.0185 4.11874C10.3557 3.91717 10.7265 3.74919 11.0637 3.54763L10.0185 1.63274L12.1425 3.04371C13.2214 2.57338 14.1654 2.30463 14.4014 2.30463C12.4123 -0.886853 6.00645 1.56555 5.87159 5.49612C5.70302 3.71561 2.12924 2.20384 0.949224 5.73127C3.1744 4.82422 2.60125 5.16017 3.8487 6.53755C0.173786 6.33599 -0.0959352 9.22511 0.612076 13.4916C0.881795 13.1557 1.55609 10.4681 2.46639 9.59465C3.37669 8.72119 3.94984 8.55322 4.0847 8.78838C2.43267 10.9384 2.29781 14.1635 3.71383 16.5151C3.74755 15.3393 4.89385 10.7369 5.73672 9.9306L5.97273 9.82982C9.27678 16.0784 8.33277 24.8466 7.7259 33.4468H0.308645H0.241211V36H0.308645H43.4636H43.531V33.514H43.3962ZM21.549 28.3404C22.2907 28.542 23.1336 28.4412 23.5719 27.9037L26.3365 26.2912L27.7188 27.8701C25.797 28.6092 23.7404 28.9115 21.7513 28.7436C20.6387 28.6428 19.5261 28.4076 18.4472 28.0045L18.3461 27.5342C19.5261 27.8029 21.549 28.3404 21.549 28.3404ZM26.7073 33.4804H12.8168H11.0974C11.2322 30.2889 11.3671 26.9631 11.266 23.7044C11.6031 24.1747 11.9403 24.6114 12.3448 25.0146C13.626 26.392 15.1432 27.5006 16.7952 28.3068C17.0649 29.5498 17.3346 30.7257 17.3346 30.7257C17.4021 31.0616 17.6381 31.3304 17.9752 31.3975C18.0764 31.4311 18.2112 31.4311 18.3461 31.3975C18.8181 31.3304 19.1215 30.86 19.0541 30.3897L18.7506 29.0123C19.6947 29.3147 20.7061 29.5162 21.6838 29.617C22.493 29.6842 23.3359 29.6842 24.1787 29.617C25.6285 29.4826 27.0445 29.1131 28.4268 28.542L29.5731 29.8522C29.9103 30.2553 30.5171 30.2889 30.9217 29.953C31.3263 29.617 31.36 29.0123 31.0228 28.6092L30.18 27.6349C30.6857 27.3326 31.1914 26.9967 31.6634 26.6271C32.54 25.9552 33.3154 25.2161 33.956 24.4099C34.664 27.7693 35.7429 30.9272 36.8892 33.3796H26.7073V33.4804ZM15.1432 21.1512C15.986 21.3528 16.458 22.1926 16.222 23.0325C16.0197 23.8388 15.1769 24.3427 14.334 24.1075C13.5248 23.8724 13.0191 23.0661 13.2551 22.2262C13.4574 21.4199 14.3003 20.9496 15.1432 21.1512Z" fill="white" stroke="white" stroke-width="12.5" mask="url(#path-1-inside-1_14105_3193)"/>
</svg>
